<svg id="Layer_1" data-name="Layer 1" xmlns="http://www.w3.org/2000/svg" viewBox="0 0 540 432.01"><defs><style>.cls-1,.cls-3,.cls-4,.cls-5{font-size:14px;}.cls-1,.cls-103,.cls-107,.cls-27,.cls-3,.cls-32,.cls-4,.cls-43,.cls-5,.cls-54,.cls-63,.cls-7,.cls-73,.cls-87{fill:#231f20;}.cls-1,.cls-3,.cls-32,.cls-4,.cls-5,.cls-54,.cls-63,.cls-7{font-family:MyriadPro-Regular, Myriad Pro;}.cls-1{letter-spacing:-0.01em;}.cls-2{letter-spacing:0em;}.cls-3{letter-spacing:0.02em;}.cls-5{letter-spacing:-0.01em;}.cls-102,.cls-105,.cls-6,.cls-94,.cls-95,.cls-96,.cls-97,.cls-98{fill:none;}.cls-38,.cls-6{stroke:#a7a9ac;}.cls-105,.cls-38,.cls-6,.cls-60,.cls-94,.cls-95,.cls-96,.cls-97,.cls-98{stroke-miterlimit:10;}.cls-103,.cls-7{font-size:11px;}.cls-8{letter-spacing:0em;}.cls-9{letter-spacing:0em;}.cls-10{letter-spacing:0.01em;}.cls-11{letter-spacing:0em;}.cls-12{letter-spacing:0em;}.cls-13{letter-spacing:-0.01em;}.cls-14{letter-spacing:0.01em;}.cls-15{letter-spacing:-0.02em;}.cls-16{letter-spacing:-0.01em;}.cls-17{letter-spacing:0.01em;}.cls-18{letter-spacing:0em;}.cls-19{letter-spacing:-0.01em;}.cls-20{letter-spacing:0.03em;}.cls-21{letter-spacing:-0.01em;}.cls-22{letter-spacing:-0.01em;}.cls-23{letter-spacing:-0.04em;}.cls-24{letter-spacing:0em;}.cls-25{letter-spacing:-0.01em;}.cls-26{letter-spacing:-0.03em;}.cls-107,.cls-27,.cls-32,.cls-43,.cls-54,.cls-63,.cls-73{font-size:9px;}.cls-103,.cls-27,.cls-43{font-family:MyriadPro-It, Myriad Pro;}.cls-103,.cls-107,.cls-27,.cls-43,.cls-73{font-style:italic;}.cls-28{letter-spacing:0em;}.cls-29{letter-spacing:0em;}.cls-30{letter-spacing:0em;}.cls-31{letter-spacing:0em;}.cls-33{letter-spacing:0em;}.cls-34{letter-spacing:-0.01em;}.cls-35,.cls-63{letter-spacing:0em;}.cls-36{letter-spacing:-0.01em;}.cls-37{letter-spacing:0em;}.cls-38{fill:#fdf9d1;}.cls-39{letter-spacing:-0.01em;}.cls-40{letter-spacing:-0.03em;}.cls-41{letter-spacing:0.01em;}.cls-42{letter-spacing:0.01em;}.cls-43,.cls-76{letter-spacing:0.01em;}.cls-44{letter-spacing:-0.01em;}.cls-45{letter-spacing:-0.03em;}.cls-46{letter-spacing:0em;}.cls-47{letter-spacing:-0.01em;}.cls-48{letter-spacing:-0.02em;}.cls-49{letter-spacing:-0.02em;}.cls-50{letter-spacing:-0.02em;}.cls-51{letter-spacing:-0.01em;}.cls-52{letter-spacing:0.02em;}.cls-53{letter-spacing:-0.01em;}.cls-54,.cls-57{letter-spacing:0em;}.cls-55{letter-spacing:0.02em;}.cls-56{letter-spacing:-0.01em;}.cls-58{letter-spacing:-0.03em;}.cls-59{letter-spacing:0.01em;}.cls-60{fill:#95d5d4;}.cls-60,.cls-98{stroke:#58595b;}.cls-61{letter-spacing:0.02em;}.cls-62{letter-spacing:-0.01em;}.cls-64{letter-spacing:-0.01em;}.cls-65{fill:#a7a9ac;}.cls-66{letter-spacing:-0.05em;}.cls-67{letter-spacing:0.01em;}.cls-68{letter-spacing:-0.04em;}.cls-69{letter-spacing:-0.01em;}.cls-70{letter-spacing:-0.01em;}.cls-71{letter-spacing:-0.01em;}.cls-72{letter-spacing:-0.09em;}.cls-107,.cls-73{font-family:MyriadPro-LightIt, Myriad Pro;font-weight:300;}.cls-74{letter-spacing:0.01em;}.cls-75{letter-spacing:0.02em;}.cls-77{letter-spacing:-0.02em;}.cls-78{letter-spacing:-0.06em;}.cls-79{letter-spacing:-0.01em;}.cls-80{fill:#ed2024;}.cls-81{letter-spacing:-0.05em;}.cls-82{letter-spacing:-0.02em;}.cls-83{letter-spacing:0.01em;}.cls-84{letter-spacing:-0.02em;}.cls-85{letter-spacing:0.02em;}.cls-86{letter-spacing:0.02em;}.cls-88{letter-spacing:0.01em;}.cls-89{letter-spacing:-0.03em;}.cls-90{letter-spacing:0.03em;}.cls-91{letter-spacing:0.03em;}.cls-92{letter-spacing:0em;}.cls-93{fill:#4068b2;}.cls-94{stroke:#4068b2;}.cls-95{stroke:#ed2024;}.cls-102,.cls-96,.cls-97{stroke:#231f20;}.cls-102,.cls-105,.cls-96{stroke-width:0.5px;}.cls-97{stroke-width:0.2px;}.cls-98{stroke-width:0.75px;}.cls-99{fill:#58595b;}.cls-100{letter-spacing:0em;}.cls-101{letter-spacing:-0.02em;}.cls-102{stroke-miterlimit:1;stroke-dasharray:1 2;}.cls-104{letter-spacing:-0.03em;}.cls-105{stroke:#00aeef;}.cls-106{fill:#00aeef;}.cls-107{letter-spacing:-0.03em;}.cls-108{letter-spacing:-0.01em;}.cls-109{letter-spacing:0.03em;}.cls-110{letter-spacing:-0.01em;}.cls-111{letter-spacing:0em;}.cls-112{letter-spacing:-0.02em;}.cls-113{letter-spacing:0em;}.cls-114{letter-spacing:-0.03em;}.cls-115{letter-spacing:0.02em;}.cls-116{letter-spacing:-0.03em;}.cls-117{letter-spacing:-0.01em;}</style></defs><text class="cls-1" transform="translate(5.35 15.77)">A<tspan class="cls-2" x="8.44" y="0">)</tspan></text><text class="cls-3" transform="translate(5.35 258.04)">C<tspan class="cls-2" x="8.36" y="0">)</tspan></text><text class="cls-4" transform="translate(150.77 341.85)">E)</text><text class="cls-5" transform="translate(148.47 257.61)">D<tspan class="cls-2" x="9.23" y="0">)</tspan></text><text class="cls-4" transform="translate(242.14 15.77)">B)</text><rect class="cls-6" x="28.24" y="25.28" width="82.44" height="139.22" rx="7.2"/><text class="cls-7" transform="translate(21.52 15.81)"><tspan class="cls-8">S</tspan><tspan class="cls-9" x="5.39" y="0">tru</tspan><tspan class="cls-10" x="18.69" y="0">c</tspan><tspan x="23.76" y="0">tu</tspan><tspan class="cls-11" x="33.46" y="0">r</tspan><tspan x="37" y="0">al Eleme</tspan><tspan class="cls-12" x="75.44" y="0">n</tspan><tspan x="81.5" y="0">ts (Exp</tspan><tspan class="cls-13" x="111.71" y="0">r</tspan><tspan x="115.2" y="0">essed </tspan><tspan class="cls-14" x="143.47" y="0">G</tspan><tspan x="150.63" y="0">ene </tspan><tspan class="cls-15" x="170.09" y="0">P</tspan><tspan class="cls-16" x="175.77" y="0">r</tspan><tspan x="179.25" y="0">odu</tspan><tspan class="cls-17" x="197.56" y="0">c</tspan><tspan class="cls-9" x="202.63" y="0">t)</tspan></text><text class="cls-7" transform="translate(21.98 258.04)"><tspan class="cls-18">R</tspan><tspan x="5.96" y="0">egul</tspan><tspan class="cls-12" x="26.28" y="0">a</tspan><tspan class="cls-19" x="31.54" y="0">t</tspan><tspan x="35.11" y="0">o</tspan><tspan class="cls-20" x="41.15" y="0">r</tspan><tspan x="45.02" y="0">y Eleme</tspan><tspan class="cls-12" x="80.74" y="0">n</tspan><tspan x="86.8" y="0">ts</tspan></text><text class="cls-7" transform="translate(169.4 341.85)"><tspan class="cls-21">A</tspan><tspan class="cls-9" x="6.67" y="0">ss</tspan><tspan class="cls-22" x="15.38" y="0">a</tspan><tspan class="cls-16" x="20.59" y="0">y</tspan><tspan x="25.66" y="0">ed </tspan><tspan class="cls-23" x="39.71" y="0">F</tspan><tspan class="cls-9" x="44.68" y="0">usion Eleme</tspan><tspan class="cls-24" x="100.35" y="0">n</tspan><tspan x="106.41" y="0">ts</tspan></text><text class="cls-7" transform="translate(167.85 257.61)"><tspan class="cls-25">C</tspan><tspan class="cls-12" x="6.3" y="0">a</tspan><tspan class="cls-19" x="11.56" y="0">t</tspan><tspan x="15.14" y="0">ego</tspan><tspan class="cls-18" x="32.83" y="0">r</tspan><tspan x="36.48" y="0">ical </tspan><tspan class="cls-26" x="54.21" y="0">F</tspan><tspan x="59.18" y="0">usion Eleme</tspan><tspan class="cls-12" x="114.85" y="0">n</tspan><tspan class="cls-9" x="120.91" y="0">ts</tspan></text><text class="cls-27" transform="translate(33.52 36.57)"><tspan class="cls-28">G</tspan><tspan x="5.63" y="0">ene</tspan></text><rect class="cls-6" x="10.44" y="385.56" width="126.24" height="38.31" rx="7.2"/><text class="cls-27" transform="translate(15.73 395.51)"><tspan class="cls-29">A</tspan><tspan x="5.16" y="0">ss</tspan><tspan class="cls-28" x="11.87" y="0">o</tspan><tspan x="16.6" y="0">cia</tspan><tspan class="cls-30" x="27.16" y="0">t</tspan><tspan class="cls-31" x="29.94" y="0">ed </tspan><tspan class="cls-28" x="40.38" y="0">G</tspan><tspan x="46.02" y="0">ene</tspan></text><rect class="cls-6" x="35.26" y="44.62" width="67.81" height="32.26" rx="7.2"/><text class="cls-32" transform="translate(40.45 57.38)"><tspan class="cls-29">G</tspan><tspan class="cls-33" x="5.86" y="0">ene </tspan><tspan class="cls-34" x="21.78" y="0">S</tspan><tspan x="26.14" y="0">ymbol &amp;</tspan></text><text class="cls-32" transform="translate(41.51 69.89)"><tspan class="cls-35">S</tspan><tspan x="4.41" y="0">table </tspan><tspan class="cls-29" x="25.39" y="0">G</tspan><tspan class="cls-33" x="31.25" y="0">ene ID</tspan></text><rect class="cls-6" x="14.24" y="402.31" width="58.21" height="15.58" rx="7.2"/><text class="cls-32" transform="translate(18.03 412.91)"><tspan class="cls-29">G</tspan><tspan x="5.86" y="0">ene </tspan><tspan class="cls-36" x="21.78" y="0">S</tspan><tspan x="26.14" y="0">ymbol</tspan></text><rect class="cls-6" x="78.52" y="391.1" width="53.75" height="26.8" rx="7.2"/><text class="cls-32" transform="translate(93.65 401.96)"><tspan class="cls-37">S</tspan><tspan x="4.41" y="0">table </tspan><tspan class="cls-29" x="-3.22" y="10.8">G</tspan><tspan x="2.64" y="10.8">ene ID</tspan></text><rect class="cls-38" x="159.32" y="265.14" width="286.28" height="57.31" rx="7.2"/><rect class="cls-38" x="450.61" y="265.14" width="74.76" height="57.31" rx="7.2"/><text class="cls-27" transform="translate(163.87 276.43)">Criti<tspan class="cls-39" x="14.8" y="0">c</tspan><tspan class="cls-31" x="18.47" y="0">al </tspan><tspan class="cls-40" x="26.86" y="0">F</tspan><tspan x="30.81" y="0">un</tspan><tspan class="cls-41" x="40.35" y="0">c</tspan><tspan class="cls-31" x="44.21" y="0">tional </tspan><tspan class="cls-42" x="66.99" y="0">D</tspan><tspan class="cls-31" x="72.91" y="0">omains</tspan></text><text class="cls-27" transform="translate(298.59 280.76)"><tspan class="cls-28">G</tspan><tspan x="5.63" y="0">ene</tspan></text><text class="cls-43" transform="translate(372.91 280.76)">S<tspan class="cls-31" x="4.28" y="0">e</tspan><tspan class="cls-44" x="8.36" y="0">q</tspan><tspan class="cls-31" x="13" y="0">. </tspan><tspan class="cls-45" x="16.53" y="0">L</tspan><tspan class="cls-46" x="20.28" y="0">o</tspan><tspan class="cls-47" x="25" y="0">c</tspan><tspan class="cls-31" x="28.67" y="0">ation</tspan></text><text class="cls-27" transform="translate(454.6 276.43)">Reading <tspan class="cls-48" x="31.43" y="0">F</tspan><tspan class="cls-49" x="35.42" y="0">r</tspan><tspan x="38.15" y="0">ame</tspan></text><text class="cls-32" transform="translate(460.86 292.01)"><tspan class="cls-50">P</tspan><tspan class="cls-51" x="4.64" y="0">r</tspan><tspan x="7.5" y="0">ese</tspan><tspan class="cls-52" x="20.08" y="0">r</tspan><tspan class="cls-51" x="23.25" y="0">v</tspan><tspan class="cls-33" x="27.49" y="0">ed /</tspan><tspan class="cls-53"><tspan x="0" y="10.8">L</tspan><tspan class="cls-31" x="4.12" y="10.8">ost / </tspan></tspan><tspan x="0" y="21.6">Not </tspan><tspan class="cls-37" x="15.75" y="21.6">A</tspan><tspan x="21.23" y="21.6">pplicable</tspan></text><rect class="cls-38" x="165.61" y="283.9" width="67.81" height="32.26" rx="7.2"/><text class="cls-54" transform="translate(172.46 296.65)">D<tspan class="cls-31" x="6.03" y="0">omain Name</tspan></text><text class="cls-32" transform="translate(174.59 309.17)">and <tspan class="cls-35" x="16.32" y="0">S</tspan><tspan class="cls-33" x="20.73" y="0">table ID</tspan></text><rect class="cls-38" x="237.57" y="283.9" width="51.82" height="32.26" rx="7.2"/><text class="cls-32" transform="translate(244.95 296.75)"><tspan class="cls-50">P</tspan><tspan class="cls-51" x="4.64" y="0">r</tspan><tspan x="7.5" y="0">ese</tspan><tspan class="cls-52" x="20.08" y="0">r</tspan><tspan class="cls-51" x="23.25" y="0">v</tspan><tspan class="cls-33" x="27.49" y="0">ed</tspan><tspan x="5.84" y="10.8">or </tspan><tspan class="cls-53" x="15.63" y="10.8">L</tspan><tspan class="cls-31" x="19.75" y="10.8">ost</tspan></text><rect class="cls-6" x="9.3" y="271.82" width="127.38" height="106.12" rx="7.2"/><text class="cls-27" transform="translate(14.58 283.11)">Regula<tspan class="cls-24" x="24.99" y="0">t</tspan><tspan class="cls-31" x="27.77" y="0">o</tspan><tspan class="cls-55" x="32.47" y="0">r</tspan><tspan class="cls-33" x="35.51" y="0">y featu</tspan><tspan class="cls-56" x="59.99" y="0">r</tspan><tspan class="cls-31" x="62.8" y="0">e</tspan></text><text class="cls-27" transform="translate(21.98 339.85)"><tspan class="cls-28">G</tspan><tspan x="5.63" y="0">enomic </tspan><tspan class="cls-45" x="33.99" y="0">L</tspan><tspan class="cls-46" x="37.74" y="0">o</tspan><tspan class="cls-39" x="42.46" y="0">c</tspan><tspan x="46.13" y="0">ation</tspan></text><rect class="cls-6" x="16.75" y="290.58" width="54.77" height="32.26" rx="7.2"/><text class="cls-32" transform="translate(23.08 303.42)"><tspan class="cls-57">R</tspan><tspan x="4.88" y="0">egul</tspan><tspan class="cls-30" x="21.5" y="0">a</tspan><tspan class="cls-56" x="25.8" y="0">t</tspan><tspan x="28.73" y="0">o</tspan><tspan class="cls-52" x="33.67" y="0">r</tspan><tspan x="36.84" y="0">y </tspan><tspan x="11.13" y="10.8">Class</tspan></text><rect class="cls-6" x="75.77" y="290.58" width="54.77" height="32.26" rx="7.2"/><text class="cls-32" transform="translate(77.41 303.42)"><tspan class="cls-58">F</tspan><tspan x="4.1" y="0">e</tspan><tspan class="cls-24" x="8.61" y="0">a</tspan><tspan x="12.92" y="0">tu</tspan><tspan class="cls-51" x="20.85" y="0">r</tspan><tspan x="23.71" y="0">e Label </tspan><tspan x="13" y="10.8">and ID</tspan></text><rect class="cls-6" x="16.75" y="329.13" width="113.8" height="40.06" rx="7.2"/><text class="cls-32" transform="translate(32.18 352.58)">Chr <tspan class="cls-59" x="15.07" y="0">S</tspan><tspan x="19.56" y="0">eq ID (w/ vrsn) </tspan><tspan class="cls-59" x="0" y="10.8">S</tspan><tspan x="4.49" y="10.8">equen</tspan><tspan class="cls-56" x="28.53" y="10.8">c</tspan><tspan x="32.51" y="10.8">e i</tspan><tspan class="cls-30" x="41.03" y="10.8">n</tspan><tspan class="cls-56" x="45.99" y="10.8">t</tspan><tspan x="48.91" y="10.8">e</tspan><tspan class="cls-52" x="53.42" y="10.8">r</tspan><tspan class="cls-30" x="56.59" y="10.8">v</tspan><tspan x="60.88" y="10.8">al</tspan></text><rect class="cls-60" x="35.26" y="97.39" width="67.81" height="19.17" rx="7.2"/><text class="cls-32" transform="translate(50.99 110.08)">Un<tspan class="cls-61" x="10.82" y="0">k</tspan><tspan x="15.19" y="0">n</tspan><tspan class="cls-62" x="20.19" y="0">o</tspan><tspan x="25.06" y="0">wn</tspan></text><rect class="cls-38" x="35.26" y="137.05" width="67.81" height="19.17" rx="7.2"/><text class="cls-63" transform="translate(63.13 149.41)">A<tspan class="cls-64" x="5.48" y="0">n</tspan><tspan class="cls-31" x="10.36" y="0">y</tspan></text><text class="cls-32" transform="translate(57.86 89.7)">– OR –</text><text class="cls-32" transform="translate(57.59 129.37)">– OR –</text><rect class="cls-6" x="116.71" y="25.28" width="87.21" height="52.45" rx="7.2"/><rect class="cls-6" x="307.33" y="14.55" width="171.43" height="59.09"/><path class="cls-65" d="M203.67,189.15v43.49H60.76V189.15H203.67m1-1H59.76v45.49H204.67V188.15Z"/><rect class="cls-6" x="382.22" y="22.81" width="88.29" height="44.94"/><text class="cls-27" transform="translate(120.46 36.57)"><tspan class="cls-66">T</tspan><tspan class="cls-39" x="3.81" y="0">r</tspan><tspan class="cls-31" x="6.53" y="0">anscript </tspan><tspan class="cls-67" x="37.3" y="0">S</tspan><tspan x="41.59" y="0">egment</tspan></text><text class="cls-27" transform="translate(315.42 29.16)"><tspan class="cls-28">B</tspan><tspan class="cls-31" x="4.7" y="0">ounda</tspan><tspan class="cls-55" x="28.36" y="0">r</tspan><tspan x="31.4" y="0">y</tspan></text><text class="cls-27" transform="translate(385.65 34.54)"><tspan class="cls-28">G</tspan><tspan x="5.63" y="0">enomic </tspan><tspan class="cls-45" x="33.99" y="0">L</tspan><tspan class="cls-46" x="37.74" y="0">o</tspan><tspan class="cls-39" x="42.46" y="0">c</tspan><tspan x="46.13" y="0">ation</tspan></text><text class="cls-32" transform="translate(125.76 50.63)"><tspan class="cls-68">T</tspan><tspan class="cls-69" x="4.07" y="0">r</tspan><tspan x="6.97" y="0">ansc</tspan><tspan class="cls-57" x="23.89" y="0">r</tspan><tspan x="26.87" y="0">ipt ID</tspan></text><text class="cls-32" transform="translate(319.71 48.09)">E<tspan class="cls-39" x="4.43" y="0">x</tspan><tspan class="cls-31" x="8.46" y="0">on number</tspan></text><text class="cls-32" transform="translate(319.71 59.25)">E<tspan class="cls-39" x="4.43" y="0">x</tspan><tspan class="cls-31" x="8.46" y="0">on o</tspan><tspan class="cls-70" x="25.25" y="0">ff</tspan><tspan x="30.41" y="0">set</tspan></text><text class="cls-32" transform="translate(126.26 107.54)"><tspan class="cls-41">S</tspan><tspan x="4.49" y="0">equen</tspan><tspan class="cls-56" x="28.53" y="0">c</tspan><tspan x="32.51" y="0">e (cDN</tspan><tspan class="cls-71" x="57.43" y="0">A</tspan><tspan x="62.86" y="0">)</tspan></text><text class="cls-32" transform="translate(125.75 61.76)">5<tspan class="cls-72" x="4.62" y="0">’</tspan><tspan class="cls-31" x="5.71" y="0"> </tspan><tspan class="cls-35" x="7.61" y="0">e</tspan><tspan class="cls-39" x="12.1" y="0">x</tspan><tspan class="cls-31" x="16.13" y="0">on bounda</tspan><tspan class="cls-52" x="57.4" y="0">r</tspan><tspan class="cls-31" x="60.57" y="0">y*</tspan></text><text class="cls-32" transform="translate(125.75 72.89)">3<tspan class="cls-72" x="4.62" y="0">’</tspan><tspan class="cls-31" x="5.71" y="0"> </tspan><tspan class="cls-35" x="7.61" y="0">e</tspan><tspan class="cls-39" x="12.1" y="0">x</tspan><tspan class="cls-31" x="16.13" y="0">on bounda</tspan><tspan class="cls-52" x="57.4" y="0">r</tspan><tspan class="cls-31" x="60.57" y="0">y*</tspan></text><text class="cls-73" transform="translate(29.24 176.03)">*<tspan class="cls-74" x="3.52" y="0">O</tspan><tspan class="cls-33" x="9.4" y="0">ne or both of 5’ and 3’ bounda</tspan><tspan class="cls-75" x="111.46" y="0">r</tspan><tspan class="cls-31" x="114.22" y="0">y may be specified</tspan></text><rect class="cls-6" x="116.84" y="83.01" width="88.01" height="31.44" rx="7.2"/><text class="cls-27" transform="translate(121.98 94.61)">Lin<tspan class="cls-53" x="10.84" y="0">k</tspan><tspan x="14.82" y="0">er </tspan><tspan class="cls-76" x="23.4" y="0">S</tspan><tspan class="cls-31" x="27.68" y="0">equen</tspan><tspan class="cls-71" x="50.1" y="0">c</tspan><tspan x="53.83" y="0">e</tspan></text><text class="cls-32" transform="translate(125.74 145.62)">Chr <tspan class="cls-59" x="15.07" y="0">S</tspan><tspan x="19.56" y="0">eq ID (w/ vrsn)</tspan></text><text class="cls-32" transform="translate(126.27 156.57)"><tspan class="cls-59">S</tspan><tspan x="4.49" y="0">equen</tspan><tspan class="cls-56" x="28.53" y="0">c</tspan><tspan x="32.51" y="0">e </tspan><tspan class="cls-76" x="38.92" y="0">I</tspan><tspan class="cls-30" x="41.17" y="0">n</tspan><tspan class="cls-56" x="46.12" y="0">t</tspan><tspan x="49.05" y="0">e</tspan><tspan class="cls-52" x="53.56" y="0">r</tspan><tspan class="cls-24" x="56.73" y="0">v</tspan><tspan x="61.02" y="0">al</tspan></text><text class="cls-32" transform="translate(389.81 50.35)">Chr <tspan class="cls-59" x="15.07" y="0">S</tspan><tspan x="19.56" y="0">eq ID (w/ vrsn)</tspan></text><text class="cls-32" transform="translate(390.34 61.3)"><tspan class="cls-59">S</tspan><tspan x="4.49" y="0">equen</tspan><tspan class="cls-56" x="28.53" y="0">c</tspan><tspan x="32.51" y="0">e </tspan><tspan class="cls-77" x="38.92" y="0">P</tspan><tspan x="43.49" y="0">osition</tspan></text><rect class="cls-6" x="116.84" y="120.16" width="88.01" height="44.34" rx="7.2"/><text class="cls-27" transform="translate(121.04 131.59)"><tspan class="cls-78">T</tspan><tspan class="cls-31" x="3.74" y="0">empla</tspan><tspan class="cls-30" x="26.57" y="0">t</tspan><tspan x="29.35" y="0">ed Lin</tspan><tspan class="cls-79" x="50.63" y="0">k</tspan><tspan x="54.61" y="0">er</tspan></text><rect class="cls-80" x="413.05" y="100.59" width="28.52" height="9.48"/><rect class="cls-80" x="457.3" y="100.59" width="28.52" height="9.48"/><rect class="cls-80" x="485.82" y="103.58" width="12.23" height="3.5"/><rect class="cls-80" x="412.43" y="165.01" width="28.52" height="9.48"/><rect class="cls-80" x="440.95" y="165.01" width="28.52" height="9.48"/><rect class="cls-80" x="469.47" y="168" width="12.23" height="3.5"/><text class="cls-27" transform="translate(225.77 96.88)">DNA</text><text class="cls-73" transform="translate(247.01 161.45)"><tspan class="cls-81">T</tspan><tspan class="cls-82" x="3.52" y="0">r</tspan><tspan x="5.92" y="0">anscript </tspan><tspan class="cls-83" x="35.16" y="0">S</tspan><tspan x="39.21" y="0">egment 1</tspan></text><text class="cls-73" transform="translate(410.41 161.45)"><tspan class="cls-81">T</tspan><tspan class="cls-82" x="3.52" y="0">r</tspan><tspan x="5.92" y="0">anscript </tspan><tspan class="cls-83" x="35.16" y="0">S</tspan><tspan x="39.21" y="0">egment 2</tspan></text><text class="cls-73" transform="translate(380.06 200.9)">5’ E<tspan class="cls-84" x="11.15" y="0">x</tspan><tspan x="14.65" y="0">on Bounda</tspan><tspan class="cls-85" x="52.49" y="0">r</tspan><tspan x="55.24" y="0">y</tspan><tspan x="0" y="10.8">(E</tspan><tspan class="cls-84" x="6.35" y="10.8">x</tspan><tspan x="9.85" y="10.8">on Numbe</tspan><tspan class="cls-86" x="46.15" y="10.8">r</tspan><tspan class="cls-31" x="48.9" y="10.8">: 6)</tspan></text><path class="cls-87" d="M396.91,118.54h-2l-.57,1.84a1.55,1.55,0,0,1,.31,0,2,2,0,0,1,.9.23,1.39,1.39,0,0,1,.73,1.28,2.2,2.2,0,0,1-2.21,2.26,2,2,0,0,1-1.1-.31l.16-.32a2.06,2.06,0,0,0,1,.27,1.76,1.76,0,0,0,1.7-1.78c0-.7-.31-1.27-1.4-1.27l-.61,0,.8-2.57H397Z"/><path class="cls-87" d="M398.94,117.85a14.37,14.37,0,0,1-1,2l-.32,0a14.54,14.54,0,0,0,.83-1.91Z"/><path class="cls-87" d="M401.52,118a5.34,5.34,0,0,1,1.12-.12,1.68,1.68,0,0,1,1.34.48,1.24,1.24,0,0,1,.26.84,1.71,1.71,0,0,1-1.36,1.56v0a1.33,1.33,0,0,1,1,1.36,1.82,1.82,0,0,1-.67,1.38,2.74,2.74,0,0,1-1.76.5,5.65,5.65,0,0,1-1.09-.08Zm-.66,5.63a3.89,3.89,0,0,0,.68,0c1,0,1.95-.42,1.95-1.57A1.24,1.24,0,0,0,402.1,121h-.74Zm.57-3h.63c1,0,1.76-.54,1.76-1.42,0-.67-.5-1-1.26-1a2.85,2.85,0,0,0-.69.06Z"/><path class="cls-87" d="M408.58,121.41c0,1.18-.86,2.71-2.29,2.71a1.61,1.61,0,0,1-1.6-1.76A2.6,2.6,0,0,1,407,119.6,1.61,1.61,0,0,1,408.58,121.41Zm-3.47.91a1.29,1.29,0,0,0,1.24,1.45c1,0,1.81-1.2,1.81-2.37a1.3,1.3,0,0,0-1.21-1.46C405.89,119.94,405.11,121.13,405.11,122.32Z"/><path class="cls-87" d="M413.11,119.7l-.61,3.16c-.08.43-.13.82-.16,1.16H412l.13-.89h0a1.93,1.93,0,0,1-1.55,1c-.46,0-1.16-.19-1.16-1.28a4,4,0,0,1,.08-.68l.47-2.46h.41l-.47,2.47a2.89,2.89,0,0,0-.08.67c0,.55.22.91.85.91a2,2,0,0,0,1.64-1.7l.44-2.35Z"/><path class="cls-87" d="M413.75,124l.59-3.16c.09-.44.14-.82.19-1.16h.38l-.14.93h0a2,2,0,0,1,1.66-1,1.07,1.07,0,0,1,1.09,1.21,3.64,3.64,0,0,1-.09.68L417,124h-.41l.49-2.56a3.81,3.81,0,0,0,.06-.6c0-.51-.21-.9-.83-.9a2.13,2.13,0,0,0-1.73,1.85l-.41,2.21Z"/><path class="cls-87" d="M422.69,117.63l-1,5.21c-.07.39-.14.82-.17,1.18h-.37l.15-1h0a2,2,0,0,1-1.65,1.05c-.89,0-1.26-.76-1.26-1.54a2.88,2.88,0,0,1,2.65-3,2.1,2.1,0,0,1,.87.17l.4-2.14Zm-.88,2.53A1.52,1.52,0,0,0,421,120a2.47,2.47,0,0,0-2.18,2.59c0,.54.15,1.23.95,1.23a2.18,2.18,0,0,0,1.74-1.88Z"/><path class="cls-87" d="M425.81,124a9.36,9.36,0,0,1,.11-1.28h0c-.5,1-1.13,1.38-1.8,1.38a1.23,1.23,0,0,1-1.2-1.38,3.08,3.08,0,0,1,2.91-3.14,3.68,3.68,0,0,1,1,.13l-.43,2.25a10.55,10.55,0,0,0-.19,2Zm.54-4a1.72,1.72,0,0,0-.62-.08,2.64,2.64,0,0,0-2.42,2.72c0,.52.16,1.1.87,1.1s1.66-1,1.9-2.24Z"/><path class="cls-87" d="M427.44,124l.56-2.92c.09-.51.16-1,.22-1.4h.37c0,.31-.08.61-.15,1h0a1.55,1.55,0,0,1,1.29-1.07l.19,0-.08.41a.5.5,0,0,0-.19,0c-.54,0-1.24.82-1.44,1.91l-.39,2.1Z"/><path class="cls-87" d="M430.73,119.7l.53,2.6c.11.53.17.86.22,1.21h0c.13-.29.27-.61.5-1.09l1.32-2.72h.43l-1.67,3.39a8.23,8.23,0,0,1-1.38,2.16,2.68,2.68,0,0,1-1.18.75l-.12-.35a2.7,2.7,0,0,0,.83-.47,3.65,3.65,0,0,0,.92-1.15.22.22,0,0,0,0-.19l-.88-4.14Z"/><path class="cls-87" d="M382.19,134.57a4,4,0,0,1-1.55.31,2.31,2.31,0,0,1-2-.82,2.65,2.65,0,0,1-.53-1.7,3.87,3.87,0,0,1,1.16-2.75,3.48,3.48,0,0,1,2.38-.92A2.55,2.55,0,0,1,383,129l-.16.34a2.55,2.55,0,0,0-1.27-.27,2.91,2.91,0,0,0-2.08.89,3.53,3.53,0,0,0-.93,2.38,2,2,0,0,0,2.17,2.2,3.06,3.06,0,0,0,1.08-.2l.4-2.15h-1.4l.06-.35h1.81Z"/><path class="cls-87" d="M386.23,134.57a2.48,2.48,0,0,1-1.31.34,1.48,1.48,0,0,1-1.5-1.68c0-1.29,1-2.83,2.26-2.83a1,1,0,0,1,1.12,1c0,1.16-1.41,1.4-2.93,1.37a2.6,2.6,0,0,0,.06,1.06,1,1,0,0,0,1.05.74,2.12,2.12,0,0,0,1.13-.31Zm-.62-3.82c-.79,0-1.43.82-1.68,1.67,1.28,0,2.45-.16,2.45-1C386.38,131,386.05,130.75,385.61,130.75Z"/><path class="cls-87" d="M387.24,134.82l.59-3.16c.09-.44.14-.82.19-1.16h.38l-.14.93h0a2,2,0,0,1,1.67-1,1.07,1.07,0,0,1,1.08,1.21,3.64,3.64,0,0,1-.09.68l-.47,2.53h-.41l.49-2.57a3.57,3.57,0,0,0,.06-.59c0-.51-.21-.9-.83-.9a2.13,2.13,0,0,0-1.73,1.85l-.41,2.21Z"/><path class="cls-87" d="M395.77,132.21c0,1.18-.87,2.71-2.29,2.71a1.61,1.61,0,0,1-1.6-1.76,2.6,2.6,0,0,1,2.29-2.76A1.61,1.61,0,0,1,395.77,132.21Zm-3.47.91a1.29,1.29,0,0,0,1.24,1.45c1,0,1.81-1.2,1.81-2.37a1.3,1.3,0,0,0-1.21-1.46C393.08,130.74,392.3,131.93,392.3,133.12Z"/><path class="cls-87" d="M396.38,134.82l.59-3.16c.09-.44.15-.82.19-1.16h.38l-.13.87h0a1.91,1.91,0,0,1,1.56-1,1,1,0,0,1,1,1,1.9,1.9,0,0,1,1.65-1,1,1,0,0,1,1,1.12,5.22,5.22,0,0,1-.06.73l-.5,2.57h-.4l.49-2.57a3.68,3.68,0,0,0,.06-.59c0-.56-.2-.9-.79-.9a1.91,1.91,0,0,0-1.58,1.68l-.44,2.38H399l.51-2.64a2.72,2.72,0,0,0,.06-.55c0-.4-.11-.87-.8-.87a2.07,2.07,0,0,0-1.59,1.75l-.44,2.31Z"/><path class="cls-87" d="M403.53,134.82l.82-4.32h.41l-.83,4.32Zm.93-5.56a.35.35,0,0,1,.34-.36.33.33,0,0,1,.32.36.36.36,0,0,1-.35.36A.32.32,0,0,1,404.46,129.26Z"/><path class="cls-87" d="M408.22,134.62a2.74,2.74,0,0,1-1.27.29,1.47,1.47,0,0,1-1.57-1.6,2.79,2.79,0,0,1,2.55-2.91,1.68,1.68,0,0,1,.91.23l-.15.34a1.86,1.86,0,0,0-.83-.2,2.35,2.35,0,0,0-2.06,2.48,1.15,1.15,0,0,0,1.22,1.31,2.35,2.35,0,0,0,1.09-.28Z"/><path class="cls-87" d="M414.72,134.6a3.72,3.72,0,0,1-1.55.31,2.23,2.23,0,0,1-2.34-2.48,4,4,0,0,1,1.16-2.85,3.33,3.33,0,0,1,2.32-.93,2.12,2.12,0,0,1,1.3.32l-.17.32a2.41,2.41,0,0,0-1.24-.28,2.85,2.85,0,0,0-1.95.81,3.66,3.66,0,0,0-1,2.53c0,1.16.46,2.21,2,2.21a3.08,3.08,0,0,0,1.38-.3Z"/><path class="cls-87" d="M419.4,132.21c0,1.18-.86,2.71-2.28,2.71a1.61,1.61,0,0,1-1.61-1.76,2.61,2.61,0,0,1,2.29-2.76A1.61,1.61,0,0,1,419.4,132.21Zm-3.46.91a1.29,1.29,0,0,0,1.23,1.45c1,0,1.81-1.2,1.81-2.37a1.3,1.3,0,0,0-1.21-1.46C416.71,130.74,415.94,131.93,415.94,133.12Z"/><path class="cls-87" d="M423.9,132.21c0,1.18-.86,2.71-2.28,2.71a1.61,1.61,0,0,1-1.61-1.76,2.61,2.61,0,0,1,2.29-2.76A1.61,1.61,0,0,1,423.9,132.21Zm-3.46.91a1.29,1.29,0,0,0,1.23,1.45c1,0,1.81-1.2,1.81-2.37a1.3,1.3,0,0,0-1.21-1.46C421.21,130.74,420.44,131.93,420.44,133.12Z"/><path class="cls-87" d="M424.51,134.82l.56-2.92c.09-.51.16-1,.22-1.4h.37c-.05.31-.08.61-.15,1h0a1.55,1.55,0,0,1,1.29-1.07l.2,0-.09.41a.47.47,0,0,0-.19,0c-.54,0-1.24.81-1.44,1.91l-.39,2.1Z"/><path class="cls-87" d="M431.33,128.43l-1,5.21a10.48,10.48,0,0,0-.17,1.18h-.37l.14-.95h0a2,2,0,0,1-1.64,1c-.89,0-1.26-.76-1.26-1.54a2.88,2.88,0,0,1,2.64-3,2.11,2.11,0,0,1,.88.17l.39-2.14Zm-.88,2.53a1.54,1.54,0,0,0-.84-.21,2.47,2.47,0,0,0-2.19,2.59c0,.54.15,1.23.95,1.23a2.17,2.17,0,0,0,1.74-1.88Z"/><path class="cls-87" d="M431.55,134.82l.83-4.32h.4l-.82,4.32Zm.94-5.56a.35.35,0,0,1,.33-.36.32.32,0,0,1,.32.36.35.35,0,0,1-.35.36A.32.32,0,0,1,432.49,129.26Z"/><path class="cls-87" d="M433.41,134.82l.59-3.16c.09-.44.14-.82.19-1.16h.38l-.14.93h0a2,2,0,0,1,1.66-1,1.07,1.07,0,0,1,1.09,1.21,3.64,3.64,0,0,1-.09.68l-.47,2.53h-.41l.49-2.57a3.57,3.57,0,0,0,.06-.59c0-.51-.21-.9-.83-.9a2.13,2.13,0,0,0-1.73,1.85l-.41,2.21Z"/><path class="cls-87" d="M440.94,134.82a8.24,8.24,0,0,1,.12-1.28h0c-.51,1-1.14,1.38-1.81,1.38a1.23,1.23,0,0,1-1.2-1.38A3.08,3.08,0,0,1,441,130.4a3.73,3.73,0,0,1,1,.13l-.44,2.25a9.65,9.65,0,0,0-.18,2Zm.55-4a1.81,1.81,0,0,0-.62-.08,2.63,2.63,0,0,0-2.42,2.72c0,.52.16,1.1.87,1.1s1.65-1,1.89-2.24Z"/><path class="cls-87" d="M444.19,129.37,444,130.5h1.1l-.06.33H443.9l-.47,2.51a4.14,4.14,0,0,0-.09.77.4.4,0,0,0,.43.46,1.08,1.08,0,0,0,.35,0l0,.33a1.58,1.58,0,0,1-.47.06.72.72,0,0,1-.77-.77,3.46,3.46,0,0,1,.1-.82l.47-2.49h-.65l.06-.33h.67l.19-1Z"/><path class="cls-87" d="M448,134.57a2.48,2.48,0,0,1-1.31.34,1.48,1.48,0,0,1-1.5-1.68c0-1.29,1-2.83,2.26-2.83a1,1,0,0,1,1.11,1c0,1.16-1.4,1.4-2.92,1.37a2.29,2.29,0,0,0,.06,1.06,1,1,0,0,0,1.05.74,2.15,2.15,0,0,0,1.13-.31Zm-.62-3.82c-.79,0-1.44.82-1.68,1.67,1.28,0,2.45-.16,2.45-1C448.13,131,447.8,130.75,447.36,130.75Z"/><text class="cls-73" transform="translate(91.19 215.9)">Specific <tspan class="cls-37" x="27.38" y="0">t</tspan><tspan x="29.98" y="0">o </tspan><tspan class="cls-88" x="36.1" y="0">A</tspan><tspan x="40.99" y="0">ssa</tspan><tspan class="cls-62" x="51.75" y="0">y</tspan><tspan class="cls-33" x="55.34" y="0">ed </tspan><tspan class="cls-89" x="65.29" y="0">F</tspan><tspan x="68.94" y="0">usions</tspan></text><path class="cls-87" d="M480.25,123.44a1.9,1.9,0,0,0,1,.32,1.55,1.55,0,0,0,1.64-1.57,1.17,1.17,0,0,0-1.29-1.19h-.33l.06-.34h.35c.52,0,1.55-.43,1.55-1.36a.79.79,0,0,0-.9-.87,1.74,1.74,0,0,0-1.05.35l-.15-.31a2.27,2.27,0,0,1,1.25-.4,1.15,1.15,0,0,1,1.28,1.18,1.72,1.72,0,0,1-1.29,1.57h0a1.32,1.32,0,0,1,1,1.35,2,2,0,0,1-2.12,1.94,1.79,1.79,0,0,1-1.16-.36Z"/><path class="cls-87" d="M486,117.85a13.2,13.2,0,0,1-1,2l-.32,0a14.54,14.54,0,0,0,.83-1.91Z"/><path class="cls-87" d="M488.58,118a5.17,5.17,0,0,1,1.11-.12,1.69,1.69,0,0,1,1.35.48,1.29,1.29,0,0,1,.26.84,1.71,1.71,0,0,1-1.36,1.56v0a1.33,1.33,0,0,1,1,1.36,1.81,1.81,0,0,1-.66,1.38,2.75,2.75,0,0,1-1.77.5,5.65,5.65,0,0,1-1.09-.08Zm-.67,5.63a4,4,0,0,0,.69,0c1,0,1.94-.42,1.94-1.57a1.24,1.24,0,0,0-1.39-1.18h-.73Zm.58-3h.63c1,0,1.75-.54,1.75-1.42,0-.67-.49-1-1.26-1a2.81,2.81,0,0,0-.68.06Z"/><path class="cls-87" d="M495.64,121.41c0,1.18-.87,2.71-2.29,2.71a1.61,1.61,0,0,1-1.6-1.76A2.6,2.6,0,0,1,494,119.6,1.62,1.62,0,0,1,495.64,121.41Zm-3.47.91a1.29,1.29,0,0,0,1.23,1.45c1,0,1.81-1.2,1.81-2.37,0-.57-.27-1.46-1.2-1.46S492.17,121.13,492.17,122.32Z"/><path class="cls-87" d="M500.16,119.7l-.6,3.16a9.67,9.67,0,0,0-.16,1.16H499l.14-.89h0a2,2,0,0,1-1.55,1c-.47,0-1.16-.19-1.16-1.28a3.16,3.16,0,0,1,.08-.68l.47-2.46h.4l-.47,2.47a3.56,3.56,0,0,0-.08.67c0,.55.23.91.86.91a2,2,0,0,0,1.64-1.7l.44-2.35Z"/><path class="cls-87" d="M500.8,124l.59-3.16c.09-.44.15-.82.19-1.16H502l-.13.93h0a2,2,0,0,1,1.67-1,1.07,1.07,0,0,1,1.08,1.21,4.6,4.6,0,0,1-.08.68L504,124h-.4l.48-2.56a3.79,3.79,0,0,0,.07-.6c0-.51-.21-.9-.83-.9a2.15,2.15,0,0,0-1.74,1.85l-.4,2.21Z"/><path class="cls-87" d="M509.75,117.63l-1,5.21a10.48,10.48,0,0,0-.17,1.18h-.37l.14-1h0a2,2,0,0,1-1.64,1.05c-.89,0-1.26-.76-1.26-1.54a2.88,2.88,0,0,1,2.64-3,2.11,2.11,0,0,1,.88.17l.39-2.14Zm-.88,2.53A1.54,1.54,0,0,0,508,120a2.47,2.47,0,0,0-2.19,2.59c0,.54.15,1.23,1,1.23a2.17,2.17,0,0,0,1.74-1.88Z"/><path class="cls-87" d="M512.86,124a9.72,9.72,0,0,1,.12-1.28h0a2,2,0,0,1-1.81,1.38,1.23,1.23,0,0,1-1.2-1.38,3.08,3.08,0,0,1,2.92-3.14,3.73,3.73,0,0,1,1,.13l-.43,2.25a9.15,9.15,0,0,0-.19,2Zm.55-4a1.81,1.81,0,0,0-.62-.08,2.64,2.64,0,0,0-2.42,2.72c0,.52.16,1.1.87,1.1s1.66-1,1.89-2.24Z"/><path class="cls-87" d="M514.5,124l.56-2.92c.09-.51.16-1,.21-1.4h.37c0,.31-.08.61-.14,1h0a1.55,1.55,0,0,1,1.29-1.07l.2,0-.08.41a.56.56,0,0,0-.2,0c-.54,0-1.23.82-1.43,1.91l-.4,2.1Z"/><path class="cls-87" d="M517.78,119.7l.53,2.6c.11.53.18.86.23,1.21h0c.12-.29.27-.61.5-1.09l1.32-2.72h.43l-1.68,3.39a7.75,7.75,0,0,1-1.38,2.16,2.67,2.67,0,0,1-1.17.75l-.12-.35a2.82,2.82,0,0,0,.83-.47,4,4,0,0,0,.92-1.15.25.25,0,0,0,0-.19l-.87-4.14Z"/><path class="cls-87" d="M469.24,134.57a4,4,0,0,1-1.55.31,2.31,2.31,0,0,1-2-.82,2.64,2.64,0,0,1-.52-1.7,3.91,3.91,0,0,1,1.15-2.75,3.49,3.49,0,0,1,2.39-.92,2.47,2.47,0,0,1,1.32.29l-.15.34a2.55,2.55,0,0,0-1.27-.27,3,3,0,0,0-2.09.89,3.57,3.57,0,0,0-.93,2.38,2,2,0,0,0,2.17,2.2,3,3,0,0,0,1.08-.2l.41-2.15h-1.41l.07-.35h1.81Z"/><path class="cls-87" d="M473.28,134.57a2.4,2.4,0,0,1-1.3.34,1.49,1.49,0,0,1-1.51-1.68c0-1.29,1-2.83,2.26-2.83a1,1,0,0,1,1.12,1c0,1.16-1.4,1.4-2.92,1.37a2.29,2.29,0,0,0,.06,1.06,1,1,0,0,0,1,.74,2.2,2.2,0,0,0,1.14-.31Zm-.62-3.82c-.78,0-1.43.82-1.67,1.67,1.28,0,2.45-.16,2.45-1C473.44,131,473.1,130.75,472.66,130.75Z"/><path class="cls-87" d="M474.29,134.82l.6-3.16c.08-.44.14-.82.18-1.16h.38l-.13.93h0a2,2,0,0,1,1.66-1,1.07,1.07,0,0,1,1.08,1.21,3.56,3.56,0,0,1-.08.68l-.48,2.53h-.4l.48-2.57a3.53,3.53,0,0,0,.07-.59c0-.51-.21-.9-.83-.9a2.15,2.15,0,0,0-1.74,1.85l-.4,2.21Z"/><path class="cls-87" d="M482.82,132.21c0,1.18-.86,2.71-2.28,2.71a1.62,1.62,0,0,1-1.61-1.76,2.61,2.61,0,0,1,2.29-2.76A1.61,1.61,0,0,1,482.82,132.21Zm-3.46.91a1.29,1.29,0,0,0,1.23,1.45c1,0,1.81-1.2,1.81-2.37a1.3,1.3,0,0,0-1.21-1.46C480.13,130.74,479.36,131.93,479.36,133.12Z"/><path class="cls-87" d="M483.43,134.82l.6-3.16c.09-.44.14-.82.19-1.16h.38l-.14.87h0a1.88,1.88,0,0,1,1.56-1,1,1,0,0,1,1,1,1.88,1.88,0,0,1,1.64-1,1,1,0,0,1,1.05,1.12,4.14,4.14,0,0,1-.07.73l-.49,2.57h-.41l.49-2.57a2.81,2.81,0,0,0,.06-.59c0-.56-.19-.9-.79-.9a1.91,1.91,0,0,0-1.57,1.68l-.44,2.38h-.41l.5-2.64a2.18,2.18,0,0,0,.07-.55c0-.4-.11-.87-.8-.87a2.07,2.07,0,0,0-1.6,1.75l-.43,2.31Z"/><path class="cls-87" d="M490.58,134.82l.83-4.32h.4l-.82,4.32Zm.94-5.56a.35.35,0,0,1,.33-.36.32.32,0,0,1,.32.36.35.35,0,0,1-.35.36A.32.32,0,0,1,491.52,129.26Z"/><path class="cls-87" d="M495.27,134.62a2.74,2.74,0,0,1-1.27.29,1.48,1.48,0,0,1-1.57-1.6A2.8,2.8,0,0,1,495,130.4a1.65,1.65,0,0,1,.91.23l-.14.34a1.86,1.86,0,0,0-.83-.2,2.35,2.35,0,0,0-2.06,2.48c0,.76.36,1.31,1.21,1.31a2.28,2.28,0,0,0,1.09-.28Z"/><path class="cls-87" d="M501.78,134.6a3.73,3.73,0,0,1-1.56.31,2.22,2.22,0,0,1-2.33-2.48,4,4,0,0,1,1.15-2.85,3.33,3.33,0,0,1,2.32-.93,2.16,2.16,0,0,1,1.31.32l-.17.32a2.41,2.41,0,0,0-1.24-.28,2.86,2.86,0,0,0-2,.81,3.66,3.66,0,0,0-1,2.53c0,1.16.47,2.21,2,2.21a3.09,3.09,0,0,0,1.39-.3Z"/><path class="cls-87" d="M506.46,132.21c0,1.18-.87,2.71-2.29,2.71a1.61,1.61,0,0,1-1.6-1.76,2.6,2.6,0,0,1,2.29-2.76A1.61,1.61,0,0,1,506.46,132.21Zm-3.47.91a1.29,1.29,0,0,0,1.23,1.45c1,0,1.81-1.2,1.81-2.37a1.3,1.3,0,0,0-1.2-1.46C503.77,130.74,503,131.93,503,133.12Z"/><path class="cls-87" d="M511,132.21c0,1.18-.87,2.71-2.29,2.71a1.61,1.61,0,0,1-1.6-1.76,2.6,2.6,0,0,1,2.29-2.76A1.61,1.61,0,0,1,511,132.21Zm-3.47.91a1.29,1.29,0,0,0,1.23,1.45c1,0,1.81-1.2,1.81-2.37a1.3,1.3,0,0,0-1.2-1.46C508.27,130.74,507.49,131.93,507.49,133.12Z"/><path class="cls-87" d="M511.57,134.82l.56-2.92c.09-.51.16-1,.21-1.4h.37c0,.31-.08.61-.14,1h0a1.55,1.55,0,0,1,1.28-1.07l.2,0-.08.41a.56.56,0,0,0-.2,0c-.54,0-1.23.81-1.43,1.91l-.4,2.1Z"/><path class="cls-87" d="M518.38,128.43l-1,5.21c-.07.39-.14.82-.17,1.18h-.37l.15-.95h0a2,2,0,0,1-1.65,1c-.89,0-1.26-.76-1.26-1.54a2.88,2.88,0,0,1,2.65-3,2.1,2.1,0,0,1,.87.17l.4-2.14ZM517.5,131a1.52,1.52,0,0,0-.84-.21,2.47,2.47,0,0,0-2.18,2.59c0,.54.15,1.23.95,1.23a2.18,2.18,0,0,0,1.74-1.88Z"/><path class="cls-87" d="M518.61,134.82l.82-4.32h.41l-.83,4.32Zm.93-5.56a.35.35,0,0,1,.34-.36.33.33,0,0,1,.32.36.36.36,0,0,1-.35.36A.32.32,0,0,1,519.54,129.26Z"/><path class="cls-87" d="M520.46,134.82l.6-3.16c.08-.44.14-.82.18-1.16h.38l-.13.93h0a2,2,0,0,1,1.67-1,1.07,1.07,0,0,1,1.08,1.21,4.6,4.6,0,0,1-.08.68l-.48,2.53h-.4l.48-2.57a3.53,3.53,0,0,0,.07-.59c0-.51-.21-.9-.83-.9a2.15,2.15,0,0,0-1.74,1.85l-.4,2.21Z"/><path class="cls-87" d="M528,134.82a11.85,11.85,0,0,1,.12-1.28h0a2,2,0,0,1-1.81,1.38,1.23,1.23,0,0,1-1.19-1.38A3.07,3.07,0,0,1,528,130.4a3.73,3.73,0,0,1,1,.13l-.43,2.25a9.8,9.8,0,0,0-.19,2Zm.55-4a1.72,1.72,0,0,0-.62-.08,2.64,2.64,0,0,0-2.42,2.72c0,.52.16,1.1.87,1.1s1.66-1,1.89-2.24Z"/><path class="cls-87" d="M531.24,129.37,531,130.5h1.1l-.07.33H531l-.46,2.51a3.44,3.44,0,0,0-.09.77c0,.29.14.46.43.46a1.13,1.13,0,0,0,.35,0l0,.33a1.58,1.58,0,0,1-.47.06.72.72,0,0,1-.78-.77,4.07,4.07,0,0,1,.1-.82l.48-2.49h-.66l.07-.33h.66l.19-1Z"/><path class="cls-87" d="M535,134.57a2.4,2.4,0,0,1-1.3.34,1.49,1.49,0,0,1-1.51-1.68c0-1.29,1-2.83,2.26-2.83a1,1,0,0,1,1.12,1c0,1.16-1.41,1.4-2.93,1.37a2.45,2.45,0,0,0,.07,1.06,1,1,0,0,0,1,.74,2.2,2.2,0,0,0,1.14-.31Zm-.62-3.82c-.78,0-1.43.82-1.67,1.67,1.27,0,2.44-.16,2.44-1C535.18,131,534.85,130.75,534.41,130.75Z"/><text class="cls-73" transform="translate(457.08 200.9)">3’ E<tspan class="cls-84" x="11.15" y="0">x</tspan><tspan x="14.65" y="0">on Bounda</tspan><tspan class="cls-85" x="52.49" y="0">r</tspan><tspan x="55.24" y="0">y</tspan><tspan x="0" y="10.8">(E</tspan><tspan class="cls-84" x="6.35" y="10.8">x</tspan><tspan x="9.85" y="10.8">on Numbe</tspan><tspan class="cls-86" x="46.15" y="10.8">r</tspan><tspan class="cls-31" x="48.9" y="10.8">: 7)</tspan></text><text class="cls-73" transform="translate(484.13 187.76)">+ <tspan class="cls-90" x="6.98" y="0">O</tspan><tspan x="13.04" y="0">ffset</tspan></text><text class="cls-73" transform="translate(451.93 187.86)">- <tspan class="cls-91" x="4.3" y="0">O</tspan><tspan class="cls-92" x="10.36" y="0">ffset</tspan></text><text class="cls-27" transform="translate(225.77 149.04)">Chimeric <tspan class="cls-66" x="33.58" y="0">T</tspan><tspan class="cls-39" x="37.39" y="0">r</tspan><tspan x="40.11" y="0">anscript</tspan></text><polygon class="cls-93" points="280.15 106.61 241.47 106.61 241.47 104.86 241.47 103.12 280.15 103.12 280.15 106.61"/><rect class="cls-93" x="280.15" y="100.59" width="34.55" height="9.48"/><polygon class="cls-93" points="285.69 171.04 247.01 171.04 247.01 169.29 247.01 167.54 285.69 167.54 285.69 171.04"/><rect class="cls-93" x="285.69" y="165.01" width="34.55" height="9.48"/><line class="cls-94" x1="228.99" y1="104.87" x2="241.47" y2="104.87"/><line class="cls-94" x1="314.7" y1="105.33" x2="331.86" y2="105.33"/><line class="cls-95" x1="402.29" y1="105.33" x2="424.06" y2="105.33"/><line class="cls-95" x1="441.57" y1="105.33" x2="457.3" y2="105.33"/><polyline class="cls-96" points="330.14 98.33 332.41 100.6 330.03 102.98 332.37 105.32 329.97 107.72 332.39 110.13 330.2 112.32"/><polyline class="cls-96" points="400.37 98.33 402.64 100.6 400.26 102.98 402.6 105.32 400.21 107.72 402.62 110.13 400.44 112.32"/><line class="cls-97" x1="440.95" y1="165.01" x2="440.95" y2="174.49"/><polyline class="cls-98" points="481.76 171.5 481.76 191.57 470.36 191.57"/><polygon class="cls-99" points="467.19 191.57 471.66 189.74 470.6 191.57 471.66 193.4 467.19 191.57"/><line class="cls-98" x1="493.1" y1="191.57" x2="481.7" y2="191.57"/><polygon class="cls-99" points="496.27 191.57 491.8 189.74 492.86 191.57 491.8 193.4 496.27 191.57"/><text class="cls-73" transform="translate(295.36 200.9)">3’ E<tspan class="cls-84" x="11.15" y="0">x</tspan><tspan x="14.65" y="0">on Bounda</tspan><tspan class="cls-85" x="52.49" y="0">r</tspan><tspan x="55.24" y="0">y</tspan><tspan x="0" y="10.8">(E</tspan><tspan class="cls-84" x="6.35" y="10.8">x</tspan><tspan x="9.85" y="10.8">on Numbe</tspan><tspan class="cls-86" x="46.15" y="10.8">r</tspan><tspan class="cls-31" x="48.9" y="10.8">: 1)</tspan></text><text class="cls-73" transform="translate(322.4 187.76)">+ <tspan class="cls-90" x="6.98" y="0">O</tspan><tspan x="13.04" y="0">ffset</tspan></text><text class="cls-73" transform="translate(290.21 187.86)">- <tspan class="cls-91" x="4.3" y="0">O</tspan><tspan class="cls-92" x="10.36" y="0">ffset</tspan></text><polyline class="cls-98" points="320.04 171.5 320.04 191.57 308.64 191.57"/><polygon class="cls-99" points="305.46 191.57 309.94 189.74 308.88 191.57 309.94 193.4 305.46 191.57"/><line class="cls-98" x1="331.38" y1="191.57" x2="319.98" y2="191.57"/><polygon class="cls-99" points="334.55 191.57 330.08 189.74 331.14 191.57 330.08 193.4 334.55 191.57"/><text class="cls-73" transform="translate(414.82 187.76)">+ <tspan class="cls-90" x="6.98" y="0">O</tspan><tspan x="13.04" y="0">ffset</tspan></text><text class="cls-73" transform="translate(382.63 187.86)">- <tspan class="cls-91" x="4.3" y="0">O</tspan><tspan class="cls-92" x="10.36" y="0">ffset</tspan></text><polyline class="cls-98" points="412.46 171.5 412.46 191.57 401.06 191.57"/><polygon class="cls-99" points="397.88 191.57 402.36 189.74 401.3 191.57 402.36 193.4 397.88 191.57"/><line class="cls-98" x1="423.79" y1="191.57" x2="412.4" y2="191.57"/><polygon class="cls-99" points="426.97 191.57 422.49 189.74 423.56 191.57 422.49 193.4 426.97 191.57"/><line class="cls-98" x1="413.05" y1="105.33" x2="413.05" y2="116.92"/><line class="cls-98" x1="498.05" y1="105.33" x2="498.05" y2="116.92"/><path class="cls-87" d="M296.9,123.44a1.9,1.9,0,0,0,1,.32,1.55,1.55,0,0,0,1.64-1.57,1.17,1.17,0,0,0-1.29-1.19H298l.06-.34h.35c.52,0,1.55-.43,1.55-1.36a.79.79,0,0,0-.9-.87,1.72,1.72,0,0,0-1,.35l-.15-.31a2.24,2.24,0,0,1,1.25-.4,1.15,1.15,0,0,1,1.28,1.18,1.72,1.72,0,0,1-1.29,1.57h0a1.32,1.32,0,0,1,1,1.35,2,2,0,0,1-2.12,1.94,1.79,1.79,0,0,1-1.16-.36Z"/><path class="cls-87" d="M302.64,117.85a12.42,12.42,0,0,1-1,2l-.32,0a14.54,14.54,0,0,0,.83-1.91Z"/><path class="cls-87" d="M305.23,118a5.17,5.17,0,0,1,1.11-.12,1.67,1.67,0,0,1,1.34.48,1.25,1.25,0,0,1,.27.84,1.71,1.71,0,0,1-1.36,1.56v0a1.33,1.33,0,0,1,1,1.36,1.81,1.81,0,0,1-.66,1.38,2.75,2.75,0,0,1-1.77.5,5.65,5.65,0,0,1-1.09-.08Zm-.67,5.63a4,4,0,0,0,.69,0c1,0,1.94-.42,1.94-1.57A1.24,1.24,0,0,0,305.8,121h-.73Zm.58-3h.63c1,0,1.75-.54,1.75-1.42,0-.67-.49-1-1.26-1a2.75,2.75,0,0,0-.68.06Z"/><path class="cls-87" d="M312.28,121.41c0,1.18-.86,2.71-2.28,2.71a1.61,1.61,0,0,1-1.6-1.76,2.6,2.6,0,0,1,2.28-2.76A1.61,1.61,0,0,1,312.28,121.41Zm-3.46.91a1.29,1.29,0,0,0,1.23,1.45c1,0,1.81-1.2,1.81-2.37a1.3,1.3,0,0,0-1.21-1.46C309.59,119.94,308.82,121.13,308.82,122.32Z"/><path class="cls-87" d="M316.81,119.7l-.6,3.16a9.67,9.67,0,0,0-.16,1.16h-.39l.13-.89h0a2,2,0,0,1-1.55,1c-.47,0-1.16-.19-1.16-1.28a3.16,3.16,0,0,1,.08-.68l.47-2.46h.4l-.47,2.47a3.56,3.56,0,0,0-.08.67c0,.55.23.91.86.91a2,2,0,0,0,1.64-1.7l.44-2.35Z"/><path class="cls-87" d="M317.45,124l.59-3.16c.09-.44.15-.82.19-1.16h.38l-.14.93h0a2,2,0,0,1,1.67-1,1.07,1.07,0,0,1,1.08,1.21,4.6,4.6,0,0,1-.08.68l-.48,2.53h-.4l.48-2.56a3.79,3.79,0,0,0,.07-.6c0-.51-.21-.9-.83-.9a2.14,2.14,0,0,0-1.74,1.85l-.41,2.21Z"/><path class="cls-87" d="M326.4,117.63l-1,5.21a10.48,10.48,0,0,0-.17,1.18h-.37l.14-1h0a2,2,0,0,1-1.64,1.05c-.9,0-1.26-.76-1.26-1.54a2.87,2.87,0,0,1,2.64-3,2.11,2.11,0,0,1,.88.17l.39-2.14Zm-.89,2.53a1.48,1.48,0,0,0-.83-.21,2.47,2.47,0,0,0-2.19,2.59c0,.54.15,1.23.95,1.23a2.17,2.17,0,0,0,1.74-1.88Z"/><path class="cls-87" d="M329.51,124a8.24,8.24,0,0,1,.12-1.28h0c-.51,1-1.14,1.38-1.81,1.38a1.23,1.23,0,0,1-1.2-1.38,3.08,3.08,0,0,1,2.92-3.14,3.73,3.73,0,0,1,1,.13l-.43,2.25a9.15,9.15,0,0,0-.19,2Zm.55-4a1.81,1.81,0,0,0-.62-.08,2.63,2.63,0,0,0-2.42,2.72c0,.52.16,1.1.87,1.1s1.66-1,1.89-2.24Z"/><path class="cls-87" d="M331.15,124l.55-2.92c.09-.51.17-1,.22-1.4h.37c0,.31-.08.61-.14,1h0a1.55,1.55,0,0,1,1.29-1.07l.2,0-.08.41a.56.56,0,0,0-.2,0c-.54,0-1.23.82-1.43,1.91l-.4,2.1Z"/><path class="cls-87" d="M334.43,119.7l.53,2.6c.11.53.17.86.23,1.21h0c.12-.29.27-.61.5-1.09L337,119.7h.44l-1.68,3.39a8,8,0,0,1-1.38,2.16,2.63,2.63,0,0,1-1.18.75l-.11-.35a2.82,2.82,0,0,0,.83-.47,3.78,3.78,0,0,0,.91-1.15.22.22,0,0,0,0-.19L334,119.7Z"/><path class="cls-87" d="M285.89,134.57a4,4,0,0,1-1.55.31,2.31,2.31,0,0,1-2-.82,2.64,2.64,0,0,1-.52-1.7,3.91,3.91,0,0,1,1.15-2.75,3.49,3.49,0,0,1,2.39-.92,2.47,2.47,0,0,1,1.32.29l-.15.34a2.58,2.58,0,0,0-1.27-.27,2.93,2.93,0,0,0-2.09.89,3.53,3.53,0,0,0-.93,2.38,2,2,0,0,0,2.17,2.2,3,3,0,0,0,1.08-.2l.41-2.15h-1.41l.07-.35h1.81Z"/><path class="cls-87" d="M289.93,134.57a2.4,2.4,0,0,1-1.3.34,1.49,1.49,0,0,1-1.51-1.68c0-1.29,1-2.83,2.26-2.83a1,1,0,0,1,1.12,1c0,1.16-1.4,1.4-2.93,1.37a2.45,2.45,0,0,0,.07,1.06,1,1,0,0,0,1,.74,2.2,2.2,0,0,0,1.14-.31Zm-.62-3.82c-.78,0-1.43.82-1.67,1.67,1.28,0,2.45-.16,2.45-1C290.09,131,289.75,130.75,289.31,130.75Z"/><path class="cls-87" d="M290.94,134.82l.59-3.16c.09-.44.15-.82.19-1.16h.38l-.13.93h0a2,2,0,0,1,1.67-1,1.07,1.07,0,0,1,1.08,1.21,4.6,4.6,0,0,1-.08.68l-.48,2.53h-.4l.48-2.57a3.53,3.53,0,0,0,.07-.59c0-.51-.21-.9-.83-.9a2.15,2.15,0,0,0-1.74,1.85l-.4,2.21Z"/><path class="cls-87" d="M299.47,132.21c0,1.18-.86,2.71-2.28,2.71a1.61,1.61,0,0,1-1.61-1.76,2.61,2.61,0,0,1,2.29-2.76A1.61,1.61,0,0,1,299.47,132.21Zm-3.46.91a1.29,1.29,0,0,0,1.23,1.45c1,0,1.81-1.2,1.81-2.37a1.3,1.3,0,0,0-1.21-1.46C296.78,130.74,296,131.93,296,133.12Z"/><path class="cls-87" d="M300.08,134.82l.6-3.16c.09-.44.14-.82.19-1.16h.38l-.14.87h0a1.88,1.88,0,0,1,1.55-1,1,1,0,0,1,1,1,1.9,1.9,0,0,1,1.65-1,1,1,0,0,1,1.05,1.12,4.14,4.14,0,0,1-.07.73l-.49,2.57h-.41l.49-2.57a3.68,3.68,0,0,0,.06-.59c0-.56-.2-.9-.79-.9a1.9,1.9,0,0,0-1.57,1.68l-.45,2.38h-.4l.5-2.64a2.18,2.18,0,0,0,.07-.55c0-.4-.11-.87-.81-.87a2.07,2.07,0,0,0-1.59,1.75l-.43,2.31Z"/><path class="cls-87" d="M307.23,134.82l.83-4.32h.4l-.83,4.32Zm.94-5.56a.35.35,0,0,1,.33-.36.32.32,0,0,1,.32.36.35.35,0,0,1-.35.36A.31.31,0,0,1,308.17,129.26Z"/><path class="cls-87" d="M311.92,134.62a2.74,2.74,0,0,1-1.27.29,1.48,1.48,0,0,1-1.57-1.6,2.8,2.8,0,0,1,2.55-2.91,1.68,1.68,0,0,1,.91.23l-.14.34a1.86,1.86,0,0,0-.83-.2,2.35,2.35,0,0,0-2.06,2.48c0,.76.36,1.31,1.21,1.31a2.28,2.28,0,0,0,1.09-.28Z"/><path class="cls-87" d="M318.43,134.6a3.73,3.73,0,0,1-1.56.31,2.22,2.22,0,0,1-2.33-2.48,4,4,0,0,1,1.15-2.85,3.33,3.33,0,0,1,2.32-.93,2.16,2.16,0,0,1,1.31.32l-.17.32a2.48,2.48,0,0,0-1.25-.28,2.85,2.85,0,0,0-1.95.81,3.66,3.66,0,0,0-1,2.53c0,1.16.47,2.21,2,2.21a3.09,3.09,0,0,0,1.39-.3Z"/><path class="cls-87" d="M323.11,132.21c0,1.18-.87,2.71-2.29,2.71a1.61,1.61,0,0,1-1.6-1.76,2.6,2.6,0,0,1,2.28-2.76A1.61,1.61,0,0,1,323.11,132.21Zm-3.47.91a1.29,1.29,0,0,0,1.23,1.45c1,0,1.81-1.2,1.81-2.37a1.3,1.3,0,0,0-1.2-1.46C320.42,130.74,319.64,131.93,319.64,133.12Z"/><path class="cls-87" d="M327.61,132.21c0,1.18-.87,2.71-2.29,2.71a1.61,1.61,0,0,1-1.6-1.76A2.6,2.6,0,0,1,326,130.4,1.61,1.61,0,0,1,327.61,132.21Zm-3.47.91a1.29,1.29,0,0,0,1.23,1.45c1,0,1.81-1.2,1.81-2.37a1.3,1.3,0,0,0-1.2-1.46C324.92,130.74,324.14,131.93,324.14,133.12Z"/><path class="cls-87" d="M328.22,134.82l.56-2.92c.09-.51.16-1,.21-1.4h.37c0,.31-.08.61-.14,1h0a1.55,1.55,0,0,1,1.29-1.07l.2,0-.08.41a.56.56,0,0,0-.2,0c-.54,0-1.23.81-1.43,1.91l-.4,2.1Z"/><path class="cls-87" d="M335,128.43l-1,5.21c-.07.39-.14.82-.17,1.18h-.37l.15-.95h0a2,2,0,0,1-1.65,1c-.89,0-1.26-.76-1.26-1.54a2.88,2.88,0,0,1,2.65-3,2.1,2.1,0,0,1,.87.17l.4-2.14Zm-.88,2.53a1.52,1.52,0,0,0-.84-.21,2.48,2.48,0,0,0-2.19,2.59c0,.54.16,1.23,1,1.23a2.18,2.18,0,0,0,1.74-1.88Z"/><path class="cls-87" d="M335.26,134.82l.82-4.32h.41l-.83,4.32Zm.93-5.56a.35.35,0,0,1,.33-.36.33.33,0,0,1,.33.36.36.36,0,0,1-.35.36A.32.32,0,0,1,336.19,129.26Z"/><path class="cls-87" d="M337.11,134.82l.59-3.16c.09-.44.15-.82.19-1.16h.38l-.13.93h0a2,2,0,0,1,1.67-1,1.07,1.07,0,0,1,1.08,1.21,4.6,4.6,0,0,1-.08.68l-.48,2.53h-.4l.48-2.57a3.53,3.53,0,0,0,.07-.59c0-.51-.21-.9-.83-.9a2.14,2.14,0,0,0-1.74,1.85l-.41,2.21Z"/><path class="cls-87" d="M344.64,134.82a9.72,9.72,0,0,1,.12-1.28h0a2,2,0,0,1-1.81,1.38,1.23,1.23,0,0,1-1.19-1.38,3.07,3.07,0,0,1,2.91-3.14,3.73,3.73,0,0,1,1,.13l-.43,2.25a9.8,9.8,0,0,0-.19,2Zm.55-4a1.81,1.81,0,0,0-.62-.08,2.64,2.64,0,0,0-2.42,2.72c0,.52.16,1.1.87,1.1s1.66-1,1.89-2.24Z"/><path class="cls-87" d="M347.89,129.37l-.21,1.13h1.09l-.06.33H347.6l-.46,2.51a3.44,3.44,0,0,0-.09.77c0,.29.14.46.43.46a1.13,1.13,0,0,0,.35,0l0,.33a1.47,1.47,0,0,1-.46.06.72.72,0,0,1-.78-.77,4.07,4.07,0,0,1,.1-.82l.48-2.49h-.66l.06-.33h.67l.19-1Z"/><path class="cls-87" d="M351.68,134.57a2.46,2.46,0,0,1-1.3.34,1.49,1.49,0,0,1-1.51-1.68c0-1.29,1-2.83,2.26-2.83a1,1,0,0,1,1.12,1c0,1.16-1.41,1.4-2.93,1.37a2.45,2.45,0,0,0,.07,1.06,1,1,0,0,0,1,.74,2.12,2.12,0,0,0,1.13-.31Zm-.62-3.82c-.78,0-1.43.82-1.67,1.67,1.27,0,2.44-.16,2.44-1C351.83,131,351.5,130.75,351.06,130.75Z"/><text class="cls-73" transform="translate(320.65 87.06)"><tspan class="cls-100">R</tspan><tspan class="cls-92" x="4.4" y="0">ear</tspan><tspan class="cls-101" x="15.32" y="0">r</tspan><tspan x="17.72" y="0">angement b</tspan><tspan class="cls-36" x="59.6" y="0">r</tspan><tspan x="62.11" y="0">ea</tspan><tspan class="cls-74" x="70.44" y="0">k</tspan><tspan x="74.21" y="0">points</tspan></text><line class="cls-98" x1="314.7" y1="105.33" x2="314.7" y2="116.92"/><text class="cls-73" transform="translate(271.03 98.34)">E<tspan class="cls-50" x="3.97" y="0">x</tspan><tspan x="7.47" y="0">on1</tspan></text><text class="cls-73" transform="translate(416.11 98.34)">E<tspan class="cls-50" x="3.97" y="0">x</tspan><tspan x="7.47" y="0">on 6</tspan></text><text class="cls-73" transform="translate(471.56 98.34)">E<tspan class="cls-50" x="3.97" y="0">x</tspan><tspan x="7.47" y="0">on 7</tspan></text><path class="cls-102" d="M307.33,45.09l-44.51-.26a3.06,3.06,0,0,0-3.08,3.06V61.75a3.06,3.06,0,0,1-3.07,3.06l-40.24-.21a3.06,3.06,0,0,1-3-3.06h0a3.06,3.06,0,0,0-3.06-3.06l-10.47,0"/><polygon class="cls-87" points="196.32 58.46 201.3 56.43 200.12 58.46 201.3 60.5 196.32 58.46"/><path class="cls-102" d="M199.86,70.07h10.7a2.89,2.89,0,0,0,2.89-2.88h0a2.58,2.58,0,0,1,2.6-2.59h.38"/><polygon class="cls-87" points="196.32 70.07 201.3 72.11 200.12 70.07 201.3 68.04 196.32 70.07"/><text class="cls-103" transform="translate(62.54 199.86)"><tspan class="cls-104">L</tspan><tspan x="4.58" y="0">egend</tspan></text><line class="cls-105" x1="348.1" y1="90.88" x2="339.23" y2="97.48"/><polygon class="cls-106" points="336.4 99.58 339.18 94.98 339.44 97.32 341.6 98.25 336.4 99.58"/><line class="cls-105" x1="383.96" y1="90.88" x2="392.83" y2="97.48"/><polygon class="cls-106" points="395.67 99.58 390.46 98.25 392.62 97.32 392.89 94.98 395.67 99.58"/><text class="cls-107" transform="translate(340.7 239.76)">F<tspan class="cls-92" x="3.65" y="0">usion junctions</tspan></text><line class="cls-105" x1="348.1" y1="229.62" x2="339.23" y2="223.02"/><polygon class="cls-106" points="336.4 220.91 341.6 222.25 339.44 223.18 339.18 225.51 336.4 220.91"/><line class="cls-105" x1="383.96" y1="229.62" x2="392.83" y2="223.02"/><polygon class="cls-106" points="395.67 220.91 392.89 225.51 392.62 223.18 390.46 222.25 395.67 220.91"/><rect class="cls-6" x="293.55" y="270.04" width="67.81" height="46.13" rx="7.2"/><text class="cls-32" transform="translate(299.61 297.56)"><tspan class="cls-29">G</tspan><tspan x="5.86" y="0">ene </tspan><tspan class="cls-36" x="21.78" y="0">S</tspan><tspan x="26.14" y="0">ymbol &amp; </tspan><tspan class="cls-37" x="0" y="10.8">S</tspan><tspan x="4.41" y="10.8">table </tspan><tspan class="cls-29" x="25.39" y="10.8">G</tspan><tspan x="31.25" y="10.8">ene ID</tspan></text><rect class="cls-6" x="367.52" y="270.04" width="72.42" height="46.13" rx="7.2"/><text class="cls-32" transform="translate(373.92 297.56)"><tspan class="cls-59">S</tspan><tspan x="4.49" y="0">e</tspan><tspan class="cls-34" x="9" y="0">q</tspan><tspan x="14" y="0">. ID (w/ vrsn)</tspan><tspan class="cls-59" x="0" y="10.8">S</tspan><tspan x="4.49" y="10.8">e</tspan><tspan class="cls-34" x="9" y="10.8">q</tspan><tspan x="14" y="10.8">. i</tspan><tspan class="cls-30" x="19.87" y="10.8">n</tspan><tspan class="cls-108" x="24.83" y="10.8">t</tspan><tspan x="27.75" y="10.8">e</tspan><tspan class="cls-109" x="32.26" y="10.8">r</tspan><tspan class="cls-30" x="35.43" y="10.8">v</tspan><tspan x="39.73" y="10.8">al</tspan></text><rect class="cls-60" x="72.99" y="209.01" width="9.81" height="8.5"/><text class="cls-73" transform="translate(91.19 227.4)">Specific <tspan class="cls-37" x="27.38" y="0">t</tspan><tspan x="29.98" y="0">o </tspan><tspan class="cls-110" x="36.1" y="0">C</tspan><tspan x="40.88" y="0">a</tspan><tspan class="cls-111" x="45.4" y="0">t</tspan><tspan class="cls-92" x="48.01" y="0">egori</tspan><tspan class="cls-112" x="65.28" y="0">c</tspan><tspan x="68.88" y="0">al </tspan><tspan class="cls-89" x="76.88" y="0">F</tspan><tspan x="80.52" y="0">usions</tspan></text><rect class="cls-38" x="72.99" y="220.51" width="9.81" height="8.5"/><rect class="cls-60" x="155.66" y="352.81" width="191.73" height="70.57" rx="7.2"/><rect class="cls-60" x="353.74" y="352.81" width="170.84" height="70.57" rx="7.2"/><text class="cls-27" transform="translate(161.39 364.13)"><tspan class="cls-36">C</tspan><tspan x="4.92" y="0">ausati</tspan><tspan class="cls-34" x="27.29" y="0">v</tspan><tspan class="cls-31" x="31.31" y="0">e </tspan><tspan class="cls-36" x="37.03" y="0">Ev</tspan><tspan x="45.21" y="0">ent</tspan></text><text class="cls-27" transform="translate(359.04 364.13)"><tspan class="cls-34">E</tspan><tspan x="4.16" y="0">viden</tspan><tspan class="cls-70" x="23.92" y="0">c</tspan><tspan x="27.65" y="0">e </tspan><tspan class="cls-42" x="33.36" y="0">D</tspan><tspan x="39.28" y="0">etails</tspan></text><rect class="cls-60" x="162.28" y="371.27" width="83.35" height="45.74" rx="7.2"/><text class="cls-32" transform="translate(168.25 400.5)"><tspan class="cls-57">R</tspan><tspan x="4.88" y="0">ea</tspan><tspan class="cls-57" x="13.72" y="0">r</tspan><tspan class="cls-69" x="16.7" y="0">r</tspan><tspan x="19.6" y="0">angeme</tspan><tspan class="cls-30" x="50.49" y="0">n</tspan><tspan class="cls-33" x="55.45" y="0">t /</tspan><tspan class="cls-77" x="0" y="10.8">P</tspan><tspan class="cls-31" x="4.56" y="10.8">os</tspan><tspan class="cls-113" x="13.07" y="10.8">t</tspan><tspan x="16" y="10.8">-t</tspan><tspan class="cls-69" x="21.74" y="10.8">r</tspan><tspan x="24.64" y="10.8">ansc</tspan><tspan class="cls-57" x="41.57" y="10.8">r</tspan><tspan x="44.55" y="10.8">iptional</tspan></text><rect class="cls-60" x="250.4" y="359.38" width="91.01" height="57.63" rx="7.2"/><text class="cls-27" transform="translate(255.86 371.21)"><tspan class="cls-34">Ev</tspan><tspan x="8.18" y="0">ent </tspan><tspan class="cls-42" x="21.52" y="0">D</tspan><tspan x="27.44" y="0">escription</tspan></text><text class="cls-27" transform="translate(168.25 384)"><tspan class="cls-34">Ev</tspan><tspan x="8.18" y="0">ent </tspan><tspan class="cls-114" x="21.52" y="0">T</tspan><tspan class="cls-33" x="25.49" y="0">y</tspan><tspan class="cls-46" x="29.46" y="0">p</tspan><tspan x="34.21" y="0">e</tspan></text><text class="cls-32" transform="translate(259.28 391.03)"><tspan class="cls-57">R</tspan><tspan x="4.88" y="0">epo</tspan><tspan class="cls-115" x="19.45" y="0">r</tspan><tspan x="22.61" y="0">t with ISCN, </tspan><tspan x="0" y="10.8">HGVS, or equi</tspan><tspan class="cls-30" x="51.35" y="10.8">v</tspan><tspan x="55.64" y="10.8">ale</tspan><tspan class="cls-30" x="66.61" y="10.8">n</tspan><tspan x="71.57" y="10.8">t</tspan></text><rect class="cls-60" x="357.24" y="372.18" width="68.94" height="44.83" rx="7.2"/><text class="cls-27" transform="translate(362.69 384.01)"><tspan class="cls-116">F</tspan><tspan x="3.94" y="0">usion eviden</tspan><tspan class="cls-70" x="49.07" y="0">c</tspan><tspan x="52.8" y="0">e</tspan></text><text class="cls-32" transform="translate(364.98 398.3)">Obse<tspan class="cls-52" x="19.39" y="0">r</tspan><tspan class="cls-117" x="22.56" y="0">v</tspan><tspan x="26.8" y="0">ed / </tspan><tspan class="cls-76" x="0" y="10.8">I</tspan><tspan x="2.24" y="10.8">n</tspan><tspan class="cls-64" x="7.24" y="10.8">f</tspan><tspan x="9.75" y="10.8">e</tspan><tspan class="cls-57" x="14.26" y="10.8">r</tspan><tspan class="cls-117" x="17.24" y="10.8">r</tspan><tspan x="20.09" y="10.8">ed</tspan></text><rect class="cls-60" x="435.22" y="357.21" width="83.8" height="59.79" rx="7.2"/><text class="cls-27" transform="translate(442.33 370.58)">Molecular <tspan class="cls-29" x="37.65" y="0">A</tspan><tspan x="42.81" y="0">ssay</tspan></text><text class="cls-32" transform="translate(444.48 410.57)"><tspan class="cls-59">M</tspan><tspan x="7.29" y="0">ethod URI</tspan></text><text class="cls-32" transform="translate(444.48 398.7)">E<tspan class="cls-48" x="4.43" y="0">C</tspan><tspan x="9.46" y="0">O ID and label</tspan></text><text class="cls-32" transform="translate(444.48 386.16)"><tspan class="cls-56">A</tspan><tspan x="5.45" y="0">ss</tspan><tspan class="cls-36" x="12.58" y="0">a</tspan><tspan x="16.85" y="0">y name</tspan></text></svg>