<?xml version="1.0" encoding="utf-8"?>
<!-- Generator: Adobe Illustrator 26.0.1, SVG Export Plug-In . SVG Version: 6.00 Build 0)  -->
<svg version="1.1" id="Layer_1" xmlns="http://www.w3.org/2000/svg" xmlns:xlink="http://www.w3.org/1999/xlink" x="0px" y="0px"
	 viewBox="0 0 548 248" style="enable-background:new 0 0 548 248;" xml:space="preserve">
<style type="text/css">
	.st0{fill:#231F20;}
	.st1{font-family:'MyriadPro-Regular';}
	.st2{font-size:14px;}
	.st3{fill:none;stroke:#A6A8AB;stroke-miterlimit:10;}
	.st4{font-size:11px;}
	.st5{font-family:'MyriadPro-It';}
	.st6{font-size:9px;}
	.st7{fill:#94D4D3;stroke:#58595B;stroke-miterlimit:10;}
	.st8{fill:#FCF8D0;stroke:#A6A8AB;stroke-miterlimit:10;}
	.st9{fill:#A6A8AB;}
	.st10{font-family:'MyriadPro-LightIt';}
	.st11{fill:none;}
	.st12{fill:#EC1E24;}
	.st13{fill:#4068B1;}
	.st14{fill:none;stroke:#4068B1;stroke-miterlimit:10;}
	.st15{fill:none;stroke:#EC1E24;stroke-miterlimit:10;}
	.st16{fill:none;stroke:#231F20;stroke-width:0.5;stroke-miterlimit:10;}
	.st17{fill:none;stroke:#231F20;stroke-width:0.2;stroke-miterlimit:10;}
	.st18{fill:none;stroke:#58595B;stroke-width:0.75;stroke-miterlimit:10;}
	.st19{fill:#58595B;}
	.st20{fill:none;stroke:#231F20;stroke-width:0.5;stroke-miterlimit:1;stroke-dasharray:1,2;}
	.st21{fill:none;stroke:#00ADEE;stroke-width:0.5;stroke-miterlimit:10;}
	.st22{fill:#00ADEE;}
</style>
<text transform="matrix(1 0 0 1 7.336 15.1555)" class="st0 st1 st2">A)</text>
<text transform="matrix(1 0 0 1 244.1282 15.1556)" class="st0 st1 st2">B)</text>
<path class="st3" d="M105.5,163.9h-68c-4,0-7.2-3.2-7.2-7.2V31.9c0-4,3.2-7.2,7.2-7.2h68c4,0,7.2,3.2,7.2,7.2v124.8
	C112.7,160.7,109.4,163.9,105.5,163.9z"/>
<text transform="matrix(1 0 0 1 23.5012 15.1948)" class="st0 st1 st4">Structural Elements (Expressed Gene Product)</text>
<text transform="matrix(1 0 0 1 35.5082 35.9584)" class="st0 st5 st6">Gene</text>
<g>
	<path class="st3" d="M97.9,76.3H44.4c-4,0-7.2-3.2-7.2-7.2V51.2c0-4,3.2-7.2,7.2-7.2h53.4c4,0,7.2,3.2,7.2,7.2v17.9
		C105.1,73,101.8,76.3,97.9,76.3z"/>
	<text transform="matrix(1 0 0 1 42.422 56.7648)" class="st0 st1 st6">Gene Symbol &amp;</text>
	<text transform="matrix(1 0 0 1 43.5021 69.2818)" class="st0 st1 st6">Stable Gene ID</text>
</g>
<path class="st7" d="M97.9,115.9H44.4c-4,0-7.2-3.2-7.2-7.2V104c0-4,3.2-7.2,7.2-7.2h53.4c4,0,7.2,3.2,7.2,7.2v4.8
	C105.1,112.7,101.8,115.9,97.9,115.9z"/>
<text transform="matrix(1 0 0 1 52.9747 109.4707)" class="st0 st1 st6">Unknown</text>
<g>
	<path class="st8" d="M97.9,155.6H44.4c-4,0-7.2-3.2-7.2-7.2v-4.8c0-4,3.2-7.2,7.2-7.2h53.4c4,0,7.2,3.2,7.2,7.2v4.8
		C105.1,152.4,101.8,155.6,97.9,155.6z"/>
	<text transform="matrix(1 0 0 1 65.1158 148.8013)" class="st0 st1 st6">Any</text>
</g>
<text transform="matrix(1 0 0 1 59.8421 89.085)" class="st0 st1 st6">– OR –</text>
<text transform="matrix(1 0 0 1 59.5723 128.7525)" class="st0 st1 st6">– OR –</text>
<path class="st3" d="M198.7,77.1h-72.8c-4,0-7.2-3.2-7.2-7.2v-38c0-4,3.2-7.2,7.2-7.2h72.8c4,0,7.2,3.2,7.2,7.2v38
	C205.9,73.9,202.7,77.1,198.7,77.1z"/>
<rect x="309.3" y="13.9" class="st3" width="171.4" height="59.1"/>
<g>
	<path class="st9" d="M205.7,188.5V232H62.7v-43.5H205.7 M206.7,187.5H61.7V233h144.9V187.5L206.7,187.5z"/>
</g>
<rect x="384.2" y="22.2" class="st3" width="88.3" height="44.9"/>
<text transform="matrix(1 0 0 1 122.4401 35.9584)" class="st0 st5 st6">Transcript Segment</text>
<text transform="matrix(1 0 0 1 317.4029 28.5494)" class="st0 st5 st6">Boundary</text>
<text transform="matrix(1 0 0 1 387.6313 33.9229)" class="st0 st5 st6">Genomic Location</text>
<text transform="matrix(1 0 0 1 127.748 50.0138)" class="st0 st1 st6">Transcript ID</text>
<text transform="matrix(1 0 0 1 321.6985 47.475)" class="st0 st1 st6">Exon number</text>
<text transform="matrix(1 0 0 1 321.6985 58.636)" class="st0 st1 st6">Exon offset</text>
<text transform="matrix(1 0 0 1 128.2479 106.9265)" class="st0 st1 st6">Sequence (cDNA)</text>
<text transform="matrix(1 0 0 1 127.7391 61.148)" class="st0 st1 st6">5’ seg. boundary*</text>
<text transform="matrix(1 0 0 1 127.7387 72.2819)" class="st0 st1 st6">3’ seg. boundary*</text>
<text transform="matrix(1 0 0 1 31.2213 175.4188)" class="st0 st10 st6">*One or both of 5’ and 3’ boundary may be specified</text>
<path class="st3" d="M199.6,113.8H126c-4,0-7.2-3.2-7.2-7.2v-17c0-4,3.2-7.2,7.2-7.2h73.6c4,0,7.2,3.2,7.2,7.2v17
	C206.8,110.6,203.6,113.8,199.6,113.8z"/>
<text transform="matrix(1 0 0 1 123.968 93.9953)" class="st0 st5 st6">Linker Sequence</text>
<rect x="127.7" y="137.6" class="st11" width="78.2" height="10.9"/>
<text transform="matrix(1 0 0 1 127.7275 145.0039)" class="st0 st1 st6">Chr Seq ID (w/ vrsn)</text>
<rect x="128.3" y="148.5" class="st11" width="69.1" height="10.9"/>
<text transform="matrix(1 0 0 1 128.2572 155.9529)" class="st0 st1 st6">Sequence Interval</text>
<rect x="391.8" y="42.3" class="st11" width="78.2" height="10.9"/>
<text transform="matrix(1 0 0 1 391.7961 49.7406)" class="st0 st1 st6">Chr Seq ID (w/ vrsn)</text>
<rect x="392.3" y="53.2" class="st11" width="69.1" height="10.9"/>
<text transform="matrix(1 0 0 1 392.3258 60.6896)" class="st0 st1 st6">Sequence </text>
<path class="st3" d="M199.6,163.9H126c-4,0-7.2-3.2-7.2-7.2v-29.9c0-4,3.2-7.2,7.2-7.2h73.6c4,0,7.2,3.2,7.2,7.2v29.9
	C206.8,160.7,203.6,163.9,199.6,163.9z"/>
<text transform="matrix(1 0 0 1 123.0248 130.9797)" class="st0 st5 st6">Templated Linker</text>
<rect x="415" y="100" class="st12" width="28.5" height="9.5"/>
<rect x="459.3" y="100" class="st12" width="28.5" height="9.5"/>
<rect x="487.8" y="103" class="st12" width="22.8" height="3.5"/>
<rect x="414.4" y="164.4" class="st12" width="28.5" height="9.5"/>
<rect x="442.9" y="164.4" class="st12" width="28.5" height="9.5"/>
<rect x="471.5" y="167.4" class="st12" width="29.1" height="3.5"/>
<text transform="matrix(1 0 0 1 227.7529 96.2668)" class="st0 st5 st6">DNA</text>
<text transform="matrix(1 0 0 1 248.998 160.834)" class="st0 st10 st6">Transcript Segment 1</text>
<text transform="matrix(1 0 0 1 412.3945 160.834)" class="st0 st10 st6">Transcript Segment 2</text>
<text transform="matrix(1 0 0 1 378.8575 200.2905)"><tspan x="0" y="0" class="st0 st10 st6">5’ Segment Boundary</tspan><tspan x="7" y="10.8" class="st0 st10 st6">(Exon Number: 6)</tspan></text>
<text transform="matrix(1 0 0 1 394.9176 123.4081)"><tspan x="0" y="0" class="st0 st10 st6">5’ Boundary </tspan><tspan x="-15.3" y="10.8" class="st0 st10 st6">Genomic Coordinate</tspan></text>
<text transform="matrix(1 0 0 1 93.1764 215.2872)" class="st0 st10 st6">Specific to Assayed Fusions</text>
<text transform="matrix(1 0 0 1 484.9727 123.4081)"><tspan x="0" y="0" class="st0 st10 st6">3’ Boundary </tspan><tspan x="-15.3" y="10.8" class="st0 st10 st6">Genomic Coordinate</tspan></text>
<text transform="matrix(1 0 0 1 463.9307 200.2897)"><tspan x="0" y="0" class="st0 st10 st6">3’ Segment Boundary</tspan><tspan x="7" y="10.8" class="st0 st10 st6">(Exon Number: 7)</tspan></text>
<text transform="matrix(1 0 0 1 502.8729 187.1494)" class="st0 st10 st6">+ Offset</text>
<text transform="matrix(1 0 0 1 470.6787 187.2484)" class="st0 st10 st6">- Offset</text>
<text transform="matrix(1 0 0 1 227.7529 148.427)" class="st0 st5 st6">Chimeric Transcript</text>
<polygon class="st13" points="282.1,106 243.5,106 243.5,104.3 243.5,102.5 282.1,102.5 "/>
<rect x="282.1" y="100" class="st13" width="34.6" height="9.5"/>
<polygon class="st13" points="287.7,170.4 249,170.4 249,168.7 249,166.9 287.7,166.9 "/>
<rect x="287.7" y="164.4" class="st13" width="34.6" height="9.5"/>
<line class="st14" x1="231" y1="104.3" x2="243.5" y2="104.3"/>
<line class="st14" x1="316.7" y1="104.7" x2="333.8" y2="104.7"/>
<line class="st15" x1="404.3" y1="104.7" x2="426" y2="104.7"/>
<line class="st15" x1="443.6" y1="104.7" x2="459.3" y2="104.7"/>
<polyline class="st16" points="332.1,97.7 334.4,100 332,102.4 334.4,104.7 332,107.1 334.4,109.5 332.2,111.7 "/>
<polyline class="st16" points="402.4,97.7 404.6,100 402.2,102.4 404.6,104.7 402.2,107.1 404.6,109.5 402.4,111.7 "/>
<line class="st17" x1="442.9" y1="164.4" x2="442.9" y2="173.9"/>
<path class="st18" d="M414.4,191"/>
<path class="st17" d="M414.4,173.9"/>
<g>
	<g>
		<polyline class="st18" points="500.5,170.9 500.5,191 489.1,191 		"/>
		<g>
			<polygon class="st19" points="485.9,191 490.4,189.1 489.3,191 490.4,192.8 			"/>
		</g>
	</g>
</g>
<g>
	<g>
		<line class="st18" x1="511.8" y1="191" x2="500.4" y2="191"/>
		<g>
			<polygon class="st19" points="515,191 510.5,189.1 511.6,191 510.5,192.8 			"/>
		</g>
	</g>
</g>
<path class="st18" d="M500.5,191"/>
<text transform="matrix(1 0 0 1 285.6602 200.2897)"><tspan x="0" y="0" class="st0 st10 st6">3’ Segment Boundary</tspan><tspan x="7" y="10.8" class="st0 st10 st6">(Exon Number: 1)</tspan></text>
<text transform="matrix(1 0 0 1 324.3898 187.1494)" class="st0 st10 st6">+ Offset</text>
<text transform="matrix(1 0 0 1 292.1956 187.2484)" class="st0 st10 st6">- Offset</text>
<g>
	<g>
		<polyline class="st18" points="322,170.9 322,191 310.6,191 		"/>
		<g>
			<polygon class="st19" points="307.5,191 311.9,189.1 310.9,191 311.9,192.8 			"/>
		</g>
	</g>
</g>
<g>
	<g>
		<line class="st18" x1="333.4" y1="191" x2="322" y2="191"/>
		<g>
			<polygon class="st19" points="336.5,191 332.1,189.1 333.1,191 332.1,192.8 			"/>
		</g>
	</g>
</g>
<path class="st18" d="M322,191"/>
<text transform="matrix(1 0 0 1 416.8073 187.1494)" class="st0 st10 st6">+ Offset</text>
<text transform="matrix(1 0 0 1 384.6132 187.2484)" class="st0 st10 st6">- Offset</text>
<g>
	<g>
		<polyline class="st18" points="414.4,170.9 414.4,191 403,191 		"/>
		<g>
			<polygon class="st19" points="399.9,191 404.3,189.1 403.3,191 404.3,192.8 			"/>
		</g>
	</g>
</g>
<g>
	<g>
		<line class="st18" x1="425.8" y1="191" x2="414.4" y2="191"/>
		<g>
			<polygon class="st19" points="429,191 424.5,189.1 425.5,191 424.5,192.8 			"/>
		</g>
	</g>
</g>
<path class="st18" d="M414.4,191"/>
<line class="st18" x1="415" y1="104.7" x2="415" y2="116.3"/>
<line class="st18" x1="510.7" y1="104.7" x2="510.7" y2="116.3"/>
<text transform="matrix(1 0 0 1 298.6214 123.4081)"><tspan x="0" y="0" class="st0 st10 st6">3’ Boundary </tspan><tspan x="-15.3" y="10.8" class="st0 st10 st6">Genomic Coordinate</tspan></text>
<text transform="matrix(1 0 0 1 322.559 86.4439)" class="st0 st10 st6">Rearrangement breakpoints</text>
<line class="st18" x1="316.7" y1="104.7" x2="316.7" y2="116.3"/>
<text transform="matrix(1 0 0 1 273.0131 97.7224)" class="st0 st10 st6">Exon1</text>
<text transform="matrix(1 0 0 1 418.0971 97.7224)" class="st0 st10 st6">Exon 6</text>
<text transform="matrix(1 0 0 1 473.545 97.7224)" class="st0 st10 st6">Exon 7</text>
<g>
	<g>
		<path class="st20" d="M309.3,44.5l-44.5-0.3c-1.7,0-3.1,1.4-3.1,3.1v13.9c0,1.7-1.4,3.1-3.1,3.1L218.4,64c-1.7,0-3-1.4-3-3.1v0
			c0-1.7-1.4-3.1-3.1-3.1l-10.5,0"/>
		<g>
			<polygon class="st0" points="198.3,57.8 203.3,55.8 202.1,57.9 203.3,59.9 			"/>
		</g>
	</g>
</g>
<g>
	<g>
		<path class="st20" d="M201.8,69.5h10.7c1.6,0,2.9-1.3,2.9-2.9v0c0-1.4,1.2-2.6,2.6-2.6l0.4,0"/>
		<g>
			<polygon class="st0" points="198.3,69.5 203.3,71.5 202.1,69.5 203.3,67.4 			"/>
		</g>
	</g>
</g>
<text transform="matrix(1 0 0 1 64.3804 199.2475)" class="st0 st5 st4">Legend</text>
<g>
	<g>
		<line class="st21" x1="350.1" y1="90.3" x2="341.2" y2="96.9"/>
		<g>
			<polygon class="st22" points="338.4,99 341.2,94.4 341.4,96.7 343.6,97.6 			"/>
		</g>
	</g>
</g>
<g>
	<g>
		<line class="st21" x1="385.9" y1="90.3" x2="394.8" y2="96.9"/>
		<g>
			<polygon class="st22" points="397.7,99 392.4,97.6 394.6,96.7 394.9,94.4 			"/>
		</g>
	</g>
</g>
<text transform="matrix(1 0 0 1 342.5385 239.1461)" class="st0 st10 st6">Fusion junctions</text>
<g>
	<g>
		<line class="st21" x1="350.1" y1="229" x2="341.2" y2="222.4"/>
		<g>
			<polygon class="st22" points="338.4,220.3 343.6,221.6 341.4,222.6 341.2,224.9 			"/>
		</g>
	</g>
</g>
<g>
	<g>
		<line class="st21" x1="385.9" y1="229" x2="394.8" y2="222.4"/>
		<g>
			<polygon class="st22" points="397.7,220.3 394.9,224.9 394.6,222.6 392.4,221.6 			"/>
		</g>
	</g>
</g>
<rect x="75" y="208.4" class="st7" width="9.8" height="8.5"/>
<text transform="matrix(1 0 0 1 93.1763 226.7904)" class="st0 st10 st6">Specific to Categorical Fusions</text>
<rect x="75" y="219.9" class="st8" width="9.8" height="8.5"/>
</svg>
