<?xml version="1.0" encoding="UTF-8"?>
<svg id="Layer_1" data-name="Layer 1" xmlns="http://www.w3.org/2000/svg" viewBox="0 0 540 417.75">
  <defs>
    <style>
      .cls-1 {
        letter-spacing: .01em;
      }

      .cls-2 {
        letter-spacing: .03em;
      }

      .cls-3 {
        letter-spacing: 0em;
      }

      .cls-4, .cls-5 {
        letter-spacing: 0em;
      }

      .cls-6 {
        letter-spacing: 0em;
      }

      .cls-6, .cls-7, .cls-5, .cls-8, .cls-9, .cls-10, .cls-11, .cls-12 {
        font-family: MyriadPro-It, 'Myriad Pro';
      }

      .cls-6, .cls-7, .cls-5, .cls-9, .cls-10, .cls-11 {
        fill: #ef4136;
      }

      .cls-13 {
        letter-spacing: .02em;
      }

      .cls-14 {
        letter-spacing: -.01em;
      }

      .cls-15 {
        fill: #4068b2;
      }

      .cls-15, .cls-16, .cls-17, .cls-18, .cls-19, .cls-20 {
        stroke-width: 0px;
      }

      .cls-21 {
        letter-spacing: 0em;
      }

      .cls-22, .cls-23 {
        letter-spacing: -.02em;
      }

      .cls-24 {
        letter-spacing: .03em;
      }

      .cls-25 {
        letter-spacing: .02em;
      }

      .cls-26 {
        letter-spacing: -.02em;
      }

      .cls-27 {
        letter-spacing: 0em;
      }

      .cls-28 {
        letter-spacing: 0em;
      }

      .cls-29 {
        letter-spacing: 0em;
      }

      .cls-30 {
        letter-spacing: -.01em;
      }

      .cls-31 {
        letter-spacing: 0em;
      }

      .cls-32 {
        letter-spacing: 0em;
      }

      .cls-33 {
        letter-spacing: -.02em;
      }

      .cls-34 {
        letter-spacing: -.09em;
      }

      .cls-35 {
        letter-spacing: 0em;
      }

      .cls-36 {
        letter-spacing: 0em;
      }

      .cls-37, .cls-7 {
        letter-spacing: 0em;
      }

      .cls-38, .cls-39, .cls-40, .cls-12 {
        font-size: 9px;
      }

      .cls-38, .cls-8, .cls-40, .cls-12 {
        font-style: italic;
      }

      .cls-41 {
        letter-spacing: 0em;
      }

      .cls-42 {
        letter-spacing: -.01em;
      }

      .cls-43 {
        letter-spacing: 0em;
      }

      .cls-44 {
        letter-spacing: -.03em;
      }

      .cls-39, .cls-45, .cls-46, .cls-8, .cls-18, .cls-23, .cls-47, .cls-40, .cls-12, .cls-48, .cls-49, .cls-50, .cls-51 {
        fill: #231f20;
      }

      .cls-39, .cls-48, .cls-49 {
        font-family: MyriadPro-Regular, 'Myriad Pro';
      }

      .cls-52 {
        fill: #95d5d4;
      }

      .cls-52, .cls-53 {
        stroke: #58595b;
      }

      .cls-52, .cls-53, .cls-54, .cls-55, .cls-56, .cls-57, .cls-58, .cls-59, .cls-60 {
        stroke-miterlimit: 10;
      }

      .cls-16 {
        fill: #a7a9ac;
      }

      .cls-53 {
        stroke-width: .75px;
      }

      .cls-53, .cls-54, .cls-55, .cls-56, .cls-57, .cls-61, .cls-59, .cls-60 {
        fill: none;
      }

      .cls-62 {
        letter-spacing: -.01em;
      }

      .cls-63 {
        letter-spacing: 0em;
      }

      .cls-64 {
        letter-spacing: 0em;
      }

      .cls-65 {
        letter-spacing: 0em;
      }

      .cls-66 {
        letter-spacing: 0em;
      }

      .cls-67 {
        letter-spacing: -.01em;
      }

      .cls-68 {
        letter-spacing: .02em;
      }

      .cls-69 {
        letter-spacing: .02em;
      }

      .cls-70 {
        letter-spacing: -.02em;
      }

      .cls-71 {
        letter-spacing: 0em;
      }

      .cls-72 {
        letter-spacing: 0em;
      }

      .cls-73 {
        letter-spacing: 0em;
      }

      .cls-54 {
        stroke: #ed2024;
      }

      .cls-74 {
        letter-spacing: .01em;
      }

      .cls-45 {
        letter-spacing: -.02em;
      }

      .cls-45, .cls-46, .cls-23, .cls-47, .cls-40, .cls-50, .cls-51 {
        font-family: MyriadPro-LightIt, 'Myriad Pro';
        font-weight: 300;
      }

      .cls-75 {
        letter-spacing: 0em;
      }

      .cls-76 {
        letter-spacing: 0em;
      }

      .cls-8, .cls-48 {
        font-size: 11px;
      }

      .cls-77 {
        letter-spacing: -.01em;
      }

      .cls-78 {
        letter-spacing: 0em;
      }

      .cls-55 {
        stroke-width: .2px;
      }

      .cls-55, .cls-61, .cls-59 {
        stroke: #231f20;
      }

      .cls-79 {
        letter-spacing: 0em;
      }

      .cls-80 {
        letter-spacing: -.03em;
      }

      .cls-81 {
        letter-spacing: .02em;
      }

      .cls-56 {
        stroke: #4068b2;
      }

      .cls-82 {
        letter-spacing: -.03em;
      }

      .cls-17 {
        fill: #58595b;
      }

      .cls-83 {
        letter-spacing: 0em;
      }

      .cls-84 {
        letter-spacing: -.02em;
      }

      .cls-85 {
        letter-spacing: -.03em;
      }

      .cls-86 {
        letter-spacing: -.02em;
      }

      .cls-19 {
        fill: #ed2024;
      }

      .cls-87 {
        letter-spacing: .02em;
      }

      .cls-88 {
        letter-spacing: 0em;
      }

      .cls-89 {
        letter-spacing: -.01em;
      }

      .cls-90 {
        letter-spacing: -.02em;
      }

      .cls-91 {
        letter-spacing: 0em;
      }

      .cls-92 {
        letter-spacing: 0em;
      }

      .cls-93 {
        letter-spacing: 0em;
      }

      .cls-94 {
        letter-spacing: 0em;
      }

      .cls-95 {
        letter-spacing: -.06em;
      }

      .cls-96 {
        letter-spacing: 0em;
      }

      .cls-97 {
        letter-spacing: 0em;
      }

      .cls-98 {
        letter-spacing: 0em;
      }

      .cls-99 {
        letter-spacing: 0em;
      }

      .cls-100 {
        letter-spacing: -.04em;
      }

      .cls-101 {
        letter-spacing: -.05em;
      }

      .cls-102, .cls-50 {
        letter-spacing: -.05em;
      }

      .cls-103, .cls-11 {
        letter-spacing: 0em;
      }

      .cls-10, .cls-51 {
        letter-spacing: 0em;
      }

      .cls-104 {
        letter-spacing: .02em;
      }

      .cls-57 {
        stroke: #00aeef;
      }

      .cls-57, .cls-61, .cls-59 {
        stroke-width: .5px;
      }

      .cls-47, .cls-105 {
        letter-spacing: 0em;
      }

      .cls-106 {
        letter-spacing: .03em;
      }

      .cls-107 {
        letter-spacing: .03em;
      }

      .cls-61 {
        stroke-dasharray: 0 0 1 2;
        stroke-miterlimit: 1;
      }

      .cls-108 {
        letter-spacing: 0em;
      }

      .cls-109 {
        letter-spacing: -.02em;
      }

      .cls-58 {
        fill: #fdf9d1;
      }

      .cls-58, .cls-60 {
        stroke: #a7a9ac;
      }

      .cls-110 {
        letter-spacing: 0em;
      }

      .cls-111 {
        letter-spacing: 0em;
      }

      .cls-112 {
        letter-spacing: 0em;
      }

      .cls-113 {
        letter-spacing: 0em;
      }

      .cls-114 {
        letter-spacing: -.03em;
      }

      .cls-115 {
        letter-spacing: .01em;
      }

      .cls-116 {
        letter-spacing: -.03em;
      }

      .cls-117 {
        letter-spacing: -.04em;
      }

      .cls-118 {
        letter-spacing: .01em;
      }

      .cls-119 {
        letter-spacing: 0em;
      }

      .cls-20 {
        fill: #00aeef;
      }

      .cls-120 {
        letter-spacing: 0em;
      }

      .cls-121 {
        letter-spacing: -.01em;
      }

      .cls-122 {
        letter-spacing: 0em;
      }

      .cls-49 {
        font-size: 14px;
      }

      .cls-123 {
        letter-spacing: -.03em;
      }

      .cls-124 {
        letter-spacing: -.03em;
      }

      .cls-125 {
        letter-spacing: 0em;
      }
    </style>
  </defs>
  <text class="cls-49" transform="translate(5.35 18.46)"><tspan class="cls-41" x="0" y="0">A</tspan><tspan class="cls-113" x="8.44" y="0">)</tspan></text>
  <text class="cls-49" transform="translate(5.35 246.5)"><tspan class="cls-81" x="0" y="0">C</tspan><tspan class="cls-113" x="8.36" y="0">)</tspan></text>
  <text class="cls-49" transform="translate(150.77 330.3)"><tspan x="0" y="0">E)</tspan></text>
  <text class="cls-49" transform="translate(148.47 246.06)"><tspan class="cls-96" x="0" y="0">D</tspan><tspan class="cls-113" x="9.23" y="0">)</tspan></text>
  <text class="cls-49" transform="translate(242.14 18.46)"><tspan x="0" y="0">B)</tspan></text>
  <rect class="cls-60" x="28.24" y="27.98" width="82.44" height="134.91" rx="7.2" ry="7.2"/>
  <text class="cls-48" transform="translate(21.52 18.5)"><tspan class="cls-65" x="0" y="0">S</tspan><tspan class="cls-64" x="5.39" y="0">tru</tspan><tspan class="cls-118" x="18.69" y="0">c</tspan><tspan x="23.76" y="0">tu</tspan><tspan class="cls-120" x="33.46" y="0">r</tspan><tspan x="37" y="0">al Eleme</tspan><tspan class="cls-92" x="75.44" y="0">n</tspan><tspan x="81.5" y="0">ts </tspan><tspan class="cls-67" x="91.83" y="0">(</tspan><tspan class="cls-125" x="94.82" y="0">G</tspan><tspan x="101.98" y="0">ene </tspan><tspan class="cls-84" x="121.44" y="0">P</tspan><tspan class="cls-111" x="127.11" y="0">r</tspan><tspan x="130.6" y="0">odu</tspan><tspan class="cls-115" x="148.91" y="0">c</tspan><tspan class="cls-64" x="153.98" y="0">t)</tspan></text>
  <text class="cls-48" transform="translate(21.98 246.5)"><tspan class="cls-28" x="0" y="0">R</tspan><tspan x="5.96" y="0">egul</tspan><tspan class="cls-92" x="26.28" y="0">a</tspan><tspan class="cls-35" x="31.54" y="0">t</tspan><tspan x="35.11" y="0">o</tspan><tspan class="cls-2" x="41.15" y="0">r</tspan><tspan x="45.02" y="0">y Eleme</tspan><tspan class="cls-92" x="80.74" y="0">n</tspan><tspan x="86.8" y="0">ts</tspan></text>
  <text class="cls-48" transform="translate(169.4 330.3)"><tspan class="cls-72" x="0" y="0">A</tspan><tspan class="cls-64" x="6.67" y="0">ss</tspan><tspan class="cls-91" x="15.38" y="0">a</tspan><tspan class="cls-111" x="20.59" y="0">y</tspan><tspan x="25.66" y="0">ed </tspan><tspan class="cls-117" x="39.71" y="0">F</tspan><tspan class="cls-64" x="44.68" y="0">usion Eleme</tspan><tspan class="cls-88" x="100.35" y="0">n</tspan><tspan x="106.41" y="0">ts</tspan></text>
  <text class="cls-48" transform="translate(167.85 246.06)"><tspan class="cls-99" x="0" y="0">C</tspan><tspan class="cls-92" x="6.3" y="0">a</tspan><tspan class="cls-35" x="11.56" y="0">t</tspan><tspan x="15.14" y="0">ego</tspan><tspan class="cls-28" x="32.83" y="0">r</tspan><tspan x="36.48" y="0">ical </tspan><tspan class="cls-116" x="54.21" y="0">F</tspan><tspan x="59.18" y="0">usion Eleme</tspan><tspan class="cls-92" x="114.85" y="0">n</tspan><tspan class="cls-64" x="120.91" y="0">ts</tspan></text>
  <text class="cls-12" transform="translate(33.52 39.27)"><tspan class="cls-76" x="0" y="0">G</tspan><tspan x="5.63" y="0">ene</tspan></text>
  <rect class="cls-60" x="16.77" y="367.01" width="113.77" height="38.31" rx="7.2" ry="7.2"/>
  <text class="cls-12" transform="translate(22.42 376.96)"><tspan class="cls-122" x="0" y="0">A</tspan><tspan x="5.16" y="0">ss</tspan><tspan class="cls-76" x="11.87" y="0">o</tspan><tspan x="16.6" y="0">cia</tspan><tspan class="cls-94" x="27.16" y="0">t</tspan><tspan class="cls-79" x="29.94" y="0">ed </tspan><tspan class="cls-76" x="40.38" y="0">G</tspan><tspan x="46.02" y="0">ene</tspan></text>
  <g>
    <rect class="cls-60" x="35.26" y="43.51" width="67.81" height="32.26" rx="7.2" ry="7.2"/>
    <text class="cls-39" transform="translate(40.45 56.27)"><tspan class="cls-122" x="0" y="0">G</tspan><tspan class="cls-78" x="5.86" y="0">ene </tspan><tspan class="cls-98" x="21.78" y="0">S</tspan><tspan x="26.14" y="0">ymbol &amp;</tspan></text>
    <text class="cls-39" transform="translate(41.51 68.78)"><tspan class="cls-21" x="0" y="0">S</tspan><tspan x="4.41" y="0">table </tspan><tspan class="cls-122" x="25.39" y="0">G</tspan><tspan class="cls-78" x="31.25" y="0">ene ID</tspan></text>
  </g>
  <text class="cls-39" transform="translate(32.18 400.46)"><tspan class="cls-122" x="0" y="0">G</tspan><tspan x="5.86" y="0">ene </tspan><tspan class="cls-93" x="21.78" y="0">S</tspan><tspan x="26.14" y="0">ymbol</tspan></text>
  <text class="cls-39" transform="translate(32.17 389.74)"><tspan class="cls-71" x="0" y="0">S</tspan><tspan x="4.41" y="0">table </tspan><tspan class="cls-122" x="25.39" y="0">G</tspan><tspan x="31.25" y="0">ene ID</tspan></text>
  <rect class="cls-58" x="159.32" y="253.59" width="286.28" height="57.31" rx="7.2" ry="7.2"/>
  <rect class="cls-58" x="450.61" y="253.59" width="74.76" height="57.31" rx="7.2" ry="7.2"/>
  <text class="cls-12" transform="translate(163.87 264.88)"><tspan x="0" y="0">Criti</tspan><tspan class="cls-42" x="14.8" y="0">c</tspan><tspan class="cls-79" x="18.47" y="0">al </tspan><tspan class="cls-82" x="26.86" y="0">F</tspan><tspan x="30.81" y="0">un</tspan><tspan class="cls-73" x="40.35" y="0">c</tspan><tspan class="cls-79" x="44.21" y="0">tional </tspan><tspan class="cls-74" x="66.99" y="0">D</tspan><tspan class="cls-79" x="72.91" y="0">omains</tspan></text>
  <text class="cls-12" transform="translate(298.59 269.21)"><tspan class="cls-76" x="0" y="0">G</tspan><tspan x="5.63" y="0">ene</tspan></text>
  <text class="cls-12" transform="translate(372.91 269.21)"><tspan class="cls-83" x="0" y="0">S</tspan><tspan class="cls-79" x="4.28" y="0">e</tspan><tspan class="cls-110" x="8.36" y="0">q</tspan><tspan class="cls-79" x="13" y="0">. </tspan><tspan class="cls-124" x="16.53" y="0">L</tspan><tspan class="cls-63" x="20.28" y="0">o</tspan><tspan class="cls-30" x="25" y="0">c</tspan><tspan class="cls-79" x="28.67" y="0">ation</tspan></text>
  <text class="cls-12" transform="translate(454.6 264.88)"><tspan x="0" y="0">Reading </tspan><tspan class="cls-26" x="31.43" y="0">F</tspan><tspan class="cls-33" x="35.42" y="0">r</tspan><tspan x="38.15" y="0">ame</tspan></text>
  <text class="cls-39" transform="translate(460.86 280.46)"><tspan class="cls-90" x="0" y="0">P</tspan><tspan class="cls-14" x="4.64" y="0">r</tspan><tspan x="7.5" y="0">ese</tspan><tspan class="cls-25" x="20.08" y="0">r</tspan><tspan class="cls-14" x="23.25" y="0">v</tspan><tspan class="cls-78" x="27.49" y="0">ed /</tspan><tspan class="cls-89" x="0" y="10.8">L</tspan><tspan class="cls-79" x="4.12" y="10.8">ost / </tspan><tspan x="0" y="21.6">Not </tspan><tspan class="cls-71" x="15.75" y="21.6">A</tspan><tspan x="21.23" y="21.6">pplicable</tspan></text>
  <g>
    <rect class="cls-58" x="165.61" y="272.35" width="67.81" height="32.26" rx="7.2" ry="7.2"/>
    <text class="cls-39" transform="translate(172.46 285.11)"><tspan class="cls-32" x="0" y="0">D</tspan><tspan class="cls-79" x="6.03" y="0">omain Name</tspan></text>
    <text class="cls-39" transform="translate(174.59 297.62)"><tspan x="0" y="0">and </tspan><tspan class="cls-21" x="16.32" y="0">S</tspan><tspan class="cls-78" x="20.73" y="0">table ID</tspan></text>
  </g>
  <g>
    <rect class="cls-58" x="237.57" y="272.35" width="51.82" height="32.26" rx="7.2" ry="7.2"/>
    <text class="cls-39" transform="translate(244.95 285.2)"><tspan class="cls-90" x="0" y="0">P</tspan><tspan class="cls-14" x="4.64" y="0">r</tspan><tspan x="7.5" y="0">ese</tspan><tspan class="cls-25" x="20.08" y="0">r</tspan><tspan class="cls-14" x="23.25" y="0">v</tspan><tspan class="cls-78" x="27.49" y="0">ed</tspan><tspan x="5.84" y="10.8">or </tspan><tspan class="cls-89" x="15.63" y="10.8">L</tspan><tspan class="cls-79" x="19.75" y="10.8">ost</tspan></text>
  </g>
  <rect class="cls-60" x="9.3" y="253.28" width="127.38" height="158.55" rx="7.2" ry="7.2"/>
  <text class="cls-12" transform="translate(14.58 264.57)"><tspan x="0" y="0">Regula</tspan><tspan class="cls-88" x="24.99" y="0">t</tspan><tspan class="cls-79" x="27.77" y="0">o</tspan><tspan class="cls-104" x="32.47" y="0">r</tspan><tspan class="cls-78" x="35.51" y="0">y featu</tspan><tspan class="cls-36" x="59.99" y="0">r</tspan><tspan class="cls-79" x="62.8" y="0">e</tspan></text>
  <text class="cls-12" transform="translate(21.98 327.3)"><tspan class="cls-76" x="0" y="0">G</tspan><tspan x="5.63" y="0">enomic </tspan><tspan class="cls-124" x="33.99" y="0">L</tspan><tspan class="cls-63" x="37.74" y="0">o</tspan><tspan class="cls-42" x="42.46" y="0">c</tspan><tspan x="46.13" y="0">ation</tspan></text>
  <g>
    <rect class="cls-60" x="16.75" y="272.04" width="54.77" height="32.26" rx="7.2" ry="7.2"/>
    <text class="cls-39" transform="translate(23.08 284.87)"><tspan class="cls-32" x="0" y="0">R</tspan><tspan x="4.88" y="0">egul</tspan><tspan class="cls-94" x="21.5" y="0">a</tspan><tspan class="cls-36" x="25.8" y="0">t</tspan><tspan x="28.73" y="0">o</tspan><tspan class="cls-25" x="33.67" y="0">r</tspan><tspan x="36.84" y="0">y </tspan><tspan x="11.13" y="10.8">Class</tspan></text>
  </g>
  <g>
    <rect class="cls-60" x="75.77" y="272.04" width="54.77" height="32.26" rx="7.2" ry="7.2"/>
    <text class="cls-39" transform="translate(77.41 284.87)"><tspan class="cls-44" x="0" y="0">F</tspan><tspan x="4.1" y="0">e</tspan><tspan class="cls-88" x="8.61" y="0">a</tspan><tspan x="12.92" y="0">tu</tspan><tspan class="cls-14" x="20.85" y="0">r</tspan><tspan x="23.71" y="0">e Label </tspan><tspan x="13" y="10.8">and ID</tspan></text>
  </g>
  <g>
    <rect class="cls-60" x="16.75" y="316.58" width="113.8" height="40.06" rx="7.2" ry="7.2"/>
    <text class="cls-39" transform="translate(32.18 340.03)"><tspan x="0" y="0">Chr </tspan><tspan class="cls-103" x="15.07" y="0">S</tspan><tspan x="19.56" y="0">eq ID (w/ vrsn) </tspan><tspan class="cls-103" x="0" y="10.8">S</tspan><tspan x="4.49" y="10.8">equen</tspan><tspan class="cls-36" x="28.53" y="10.8">c</tspan><tspan x="32.51" y="10.8">e i</tspan><tspan class="cls-94" x="41.03" y="10.8">n</tspan><tspan class="cls-36" x="45.99" y="10.8">t</tspan><tspan x="48.91" y="10.8">e</tspan><tspan class="cls-25" x="53.42" y="10.8">r</tspan><tspan class="cls-94" x="56.59" y="10.8">v</tspan><tspan x="60.88" y="10.8">al</tspan></text>
  </g>
  <rect class="cls-52" x="35.26" y="92.05" width="67.81" height="19.17" rx="7.2" ry="7.2"/>
  <text class="cls-39" transform="translate(50.99 104.75)"><tspan x="0" y="0">Un</tspan><tspan class="cls-87" x="10.82" y="0">k</tspan><tspan x="15.19" y="0">n</tspan><tspan class="cls-97" x="20.19" y="0">o</tspan><tspan x="25.06" y="0">wn</tspan></text>
  <g>
    <rect class="cls-58" x="35.26" y="130.17" width="67.81" height="19.17" rx="7.2" ry="7.2"/>
    <text class="cls-39" transform="translate(63.13 142.53)"><tspan class="cls-21" x="0" y="0">A</tspan><tspan class="cls-121" x="5.48" y="0">n</tspan><tspan class="cls-79" x="10.36" y="0">y</tspan></text>
  </g>
  <text class="cls-39" transform="translate(57.86 86.23)"><tspan x="0" y="0">– OR –</tspan></text>
  <text class="cls-39" transform="translate(57.59 122.77)"><tspan x="0" y="0">– OR –</tspan></text>
  <rect class="cls-60" x="116.71" y="27.98" width="87.21" height="52.45" rx="7.2" ry="7.2"/>
  <rect class="cls-60" x="307.33" y="9.72" width="171.43" height="59.09"/>
  <path class="cls-16" d="M203.67,182.26v43.48H60.76v-43.48h142.91M204.67,181.26H59.76v45.48h144.91v-45.48h0Z"/>
  <rect class="cls-60" x="382.22" y="17.99" width="90.63" height="44.94"/>
  <text class="cls-12" transform="translate(120.46 39.27)"><tspan class="cls-101" x="0" y="0">T</tspan><tspan class="cls-42" x="3.81" y="0">r</tspan><tspan class="cls-79" x="6.53" y="0">anscript </tspan><tspan class="cls-119" x="37.3" y="0">S</tspan><tspan x="41.59" y="0">egment</tspan></text>
  <text class="cls-12" transform="translate(315.42 24.34)"><tspan class="cls-101" x="0" y="0">T</tspan><tspan class="cls-74" x="3.81" y="0">r</tspan><tspan x="6.77" y="0">x </tspan><tspan class="cls-63" x="12.38" y="0">B</tspan><tspan x="17.07" y="0">ounda</tspan><tspan class="cls-104" x="40.73" y="0">r</tspan><tspan x="43.78" y="0">y</tspan></text>
  <text class="cls-12" transform="translate(385.65 29.71)"><tspan class="cls-76" x="0" y="0">G</tspan><tspan x="5.63" y="0">enomic </tspan><tspan class="cls-124" x="33.99" y="0">L</tspan><tspan class="cls-63" x="37.74" y="0">o</tspan><tspan class="cls-42" x="42.46" y="0">c</tspan><tspan x="46.13" y="0">ation</tspan></text>
  <text class="cls-39" transform="translate(125.76 53.32)"><tspan class="cls-100" x="0" y="0">T</tspan><tspan class="cls-27" x="4.07" y="0">r</tspan><tspan x="6.97" y="0">ansc</tspan><tspan class="cls-32" x="23.89" y="0">r</tspan><tspan x="26.87" y="0">ipt ID</tspan></text>
  <text class="cls-39" transform="translate(319.71 43.27)"><tspan x="0" y="0">E</tspan><tspan class="cls-42" x="4.43" y="0">x</tspan><tspan class="cls-79" x="8.46" y="0">on number</tspan></text>
  <text class="cls-39" transform="translate(319.71 54.43)"><tspan x="0" y="0">E</tspan><tspan class="cls-42" x="4.43" y="0">x</tspan><tspan class="cls-79" x="8.46" y="0">on o</tspan><tspan class="cls-31" x="25.25" y="0">ff</tspan><tspan x="30.41" y="0">set</tspan></text>
  <text class="cls-39" transform="translate(126.26 155.98)"><tspan class="cls-73" x="0" y="0">S</tspan><tspan x="4.49" y="0">equen</tspan><tspan class="cls-36" x="28.53" y="0">c</tspan><tspan x="32.51" y="0">e (cDN</tspan><tspan class="cls-43" x="57.43" y="0">A</tspan><tspan x="62.86" y="0">)</tspan></text>
  <text class="cls-39" transform="translate(125.75 64.46)"><tspan x="0" y="0">5</tspan><tspan class="cls-34" x="4.62" y="0">’</tspan><tspan class="cls-79" x="5.71" y="0" xml:space="preserve"> se</tspan><tspan class="cls-33" x="15.69" y="0">g</tspan><tspan x="20.58" y="0">. bounda</tspan><tspan class="cls-25" x="53.78" y="0">r</tspan><tspan class="cls-79" x="56.95" y="0">y**</tspan></text>
  <text class="cls-39" transform="translate(125.75 75.59)"><tspan x="0" y="0">3</tspan><tspan class="cls-34" x="4.62" y="0">’</tspan><tspan class="cls-79" x="5.71" y="0" xml:space="preserve"> se</tspan><tspan class="cls-33" x="15.69" y="0">g</tspan><tspan x="20.58" y="0">. bounda</tspan><tspan class="cls-25" x="53.78" y="0">r</tspan><tspan class="cls-79" x="56.95" y="0">y**</tspan></text>
  <text class="cls-40" transform="translate(29.43 175.88)"><tspan x="0" y="0">**</tspan><tspan class="cls-29" x="7.04" y="0">O</tspan><tspan x="12.92" y="0">ne or both of 5’ / 3’ boundaries may be specified </tspan></text>
  <rect class="cls-60" x="116.84" y="131.45" width="88.01" height="31.44" rx="7.2" ry="7.2"/>
  <text class="cls-12" transform="translate(121.98 143.05)"><tspan x="0" y="0">Lin</tspan><tspan class="cls-89" x="10.84" y="0">k</tspan><tspan x="14.82" y="0">er </tspan><tspan class="cls-83" x="23.4" y="0">S</tspan><tspan class="cls-79" x="27.68" y="0">equen</tspan><tspan class="cls-43" x="50.1" y="0">c</tspan><tspan x="53.83" y="0">e</tspan></text>
  <text class="cls-39" transform="translate(125.74 109.45)"><tspan x="0" y="0">Chr </tspan><tspan class="cls-103" x="15.07" y="0">S</tspan><tspan x="19.56" y="0">eq ID (w/ vrsn)</tspan></text>
  <text class="cls-39" transform="translate(126.27 120.4)"><tspan class="cls-103" x="0" y="0">S</tspan><tspan x="4.49" y="0">equen</tspan><tspan class="cls-36" x="28.53" y="0">c</tspan><tspan x="32.51" y="0">e </tspan><tspan class="cls-83" x="38.92" y="0">I</tspan><tspan class="cls-94" x="41.17" y="0">n</tspan><tspan class="cls-36" x="46.12" y="0">t</tspan><tspan x="49.05" y="0">e</tspan><tspan class="cls-25" x="53.56" y="0">r</tspan><tspan class="cls-88" x="56.73" y="0">v</tspan><tspan x="61.02" y="0">al</tspan></text>
  <text class="cls-39" transform="translate(389.81 45.53)"><tspan x="0" y="0">Chr </tspan><tspan class="cls-103" x="15.07" y="0">S</tspan><tspan x="19.56" y="0">eq ID (w/ vrsn)</tspan></text>
  <text class="cls-39" transform="translate(389.81 56.56)"><tspan class="cls-103" x="0" y="0">S</tspan><tspan x="4.49" y="0">equen</tspan><tspan class="cls-36" x="28.53" y="0">c</tspan><tspan x="32.51" y="0">e </tspan><tspan class="cls-77" x="38.92" y="0">C</tspan><tspan x="44.05" y="0">oo</tspan><tspan class="cls-112" x="53.93" y="0">r</tspan><tspan x="56.78" y="0">din</tspan><tspan class="cls-94" x="68.96" y="0">a</tspan><tspan class="cls-36" x="73.26" y="0">t</tspan><tspan x="76.19" y="0">e</tspan></text>
  <rect class="cls-60" x="116.84" y="84" width="88.01" height="44.34" rx="7.2" ry="7.2"/>
  <text class="cls-12" transform="translate(121.04 95.43)"><tspan class="cls-95" x="0" y="0">T</tspan><tspan class="cls-79" x="3.74" y="0">empla</tspan><tspan class="cls-94" x="26.57" y="0">t</tspan><tspan x="29.35" y="0">ed Lin</tspan><tspan class="cls-62" x="50.63" y="0">k</tspan><tspan x="54.61" y="0">er</tspan></text>
  <rect class="cls-19" x="413.05" y="96.71" width="28.52" height="9.48"/>
  <rect class="cls-19" x="457.3" y="96.71" width="28.52" height="9.48"/>
  <rect class="cls-19" x="485.82" y="99.71" width="22.85" height="3.5"/>
  <rect class="cls-19" x="412.43" y="171.14" width="28.52" height="9.48"/>
  <rect class="cls-19" x="440.95" y="171.14" width="28.52" height="9.48"/>
  <rect class="cls-19" x="469.47" y="174.13" width="29.13" height="3.5"/>
  <text class="cls-12" transform="translate(225.77 93.01)"><tspan x="0" y="0">DNA</tspan></text>
  <text class="cls-40" transform="translate(247.01 167.57)"><tspan class="cls-102" x="0" y="0">T</tspan><tspan class="cls-22" x="3.52" y="0">r</tspan><tspan x="5.92" y="0">anscript </tspan><tspan class="cls-1" x="35.16" y="0">S</tspan><tspan x="39.21" y="0">egment 1</tspan></text>
  <text class="cls-40" transform="translate(410.41 167.57)"><tspan class="cls-102" x="0" y="0">T</tspan><tspan class="cls-22" x="3.52" y="0">r</tspan><tspan x="5.92" y="0">anscript </tspan><tspan class="cls-1" x="35.16" y="0">S</tspan><tspan x="39.21" y="0">egment 2</tspan></text>
  <text class="cls-40" transform="translate(376.73 207.03)"><tspan x="0" y="0">5’ </tspan><tspan class="cls-1" x="7.18" y="0">S</tspan><tspan x="11.23" y="0">egment Bounda</tspan><tspan class="cls-69" x="66.48" y="0">r</tspan><tspan class="cls-4" x="69.24" y="0">y</tspan><tspan x="7.1" y="10.8">(E</tspan><tspan class="cls-86" x="13.45" y="10.8">x</tspan><tspan x="16.96" y="10.8">on Numbe</tspan><tspan class="cls-68" x="53.25" y="10.8">r</tspan><tspan x="56" y="10.8">: 6)</tspan></text>
  <g>
    <path class="cls-18" d="M385.54,114.15c.43-.07.91-.12,1.4-.12,1.05,0,1.84.33,2.25.9.23.3.42.81.42,1.49,0,1.05-.4,2.19-1.2,2.89-.7.6-1.58.86-2.66.86-.41,0-.9,0-1.35-.04l1.12-5.99ZM384.88,119.79c.34.04.69.04.91.04,1.13,0,1.88-.31,2.45-.86.63-.61.95-1.56.95-2.49,0-1.14-.52-2.09-2.3-2.09-.31,0-.73.02-1,.07l-1.01,5.33Z"/>
    <path class="cls-18" d="M390.04,120.15l1.15-6.07h.39l1.76,4.12c.28.64.4,1.03.51,1.46h.02c.04-.51.09-.92.24-1.74l.73-3.84h.4l-1.15,6.07h-.37l-1.71-4.05c-.31-.71-.43-1.05-.55-1.53l-.03.02c-.06.55-.13,1-.27,1.75l-.72,3.82h-.4Z"/>
    <path class="cls-18" d="M396.49,118.02l-1.12,2.13h-.41l3.24-6.07h.4l.92,6.07h-.4l-.32-2.13h-2.31ZM398.74,117.66l-.31-2.03c-.04-.31-.09-.73-.12-1.07h-.03c-.16.35-.31.68-.5,1.05l-1.09,2.04h2.04Z"/>
    <path class="cls-18" d="M405.7,114.67h-1.96l-.58,1.84c.1-.02.2-.03.31-.03.28,0,.6.07.91.23.52.26.73.81.73,1.28,0,1.4-1.08,2.26-2.21,2.26-.49,0-.94-.18-1.1-.31l.16-.32c.19.12.58.27,1.03.27.96,0,1.7-.85,1.7-1.78,0-.69-.32-1.27-1.4-1.27-.21,0-.39.02-.61.04l.79-2.57h2.3l-.07.37Z"/>
    <path class="cls-18" d="M407.73,113.98c-.28.68-.85,1.7-1.04,1.95l-.32.04c.22-.38.64-1.35.83-1.91l.52-.09Z"/>
    <path class="cls-18" d="M410.32,114.15c.32-.06.69-.12,1.12-.12.62,0,1.06.16,1.34.48.2.24.26.52.26.85,0,.77-.65,1.39-1.36,1.56v.03c.53.14,1.04.59,1.03,1.36,0,.6-.32,1.1-.67,1.39-.46.37-1.07.5-1.76.5-.42,0-.81-.02-1.09-.07l1.13-5.96ZM409.65,119.79c.22.04.47.04.68.04,1,0,1.94-.41,1.94-1.57,0-.78-.66-1.18-1.39-1.18h-.74l-.5,2.7ZM410.23,116.76h.63c.97,0,1.75-.54,1.75-1.41,0-.67-.5-.96-1.26-.96-.3,0-.56.02-.68.06l-.44,2.31Z"/>
    <path class="cls-18" d="M417.37,117.54c0,1.18-.86,2.71-2.29,2.71-1.07,0-1.6-.86-1.6-1.76,0-1.39.96-2.75,2.29-2.75,1.17,0,1.6.94,1.6,1.81ZM413.91,118.45c0,.83.48,1.45,1.23,1.45.98,0,1.81-1.2,1.81-2.37,0-.58-.27-1.46-1.21-1.46-1.06,0-1.84,1.19-1.84,2.38Z"/>
    <path class="cls-18" d="M421.9,115.83l-.6,3.16c-.08.43-.14.82-.16,1.16h-.39l.13-.89h-.02c-.35.57-.95.99-1.55.99-.47,0-1.16-.19-1.16-1.28,0-.19.03-.41.08-.68l.47-2.46h.4l-.47,2.47c-.05.27-.08.47-.08.68,0,.55.23.91.86.91s1.45-.7,1.64-1.7l.44-2.35h.41Z"/>
    <path class="cls-18" d="M422.54,120.15l.59-3.16c.09-.44.14-.82.19-1.16h.38l-.14.93h.02c.38-.63.99-1.03,1.67-1.03.39,0,1.08.21,1.08,1.21,0,.2-.04.44-.08.68l-.48,2.53h-.41l.49-2.57c.03-.18.06-.4.06-.59,0-.51-.21-.9-.83-.9s-1.53.7-1.74,1.85l-.41,2.21h-.4Z"/>
    <path class="cls-18" d="M431.48,113.76l-1,5.21c-.07.39-.14.82-.17,1.18h-.37l.14-.95h-.02c-.41.64-.95,1.05-1.65,1.05-.89,0-1.26-.76-1.26-1.54,0-1.56,1.18-2.98,2.65-2.98.33,0,.68.07.87.17l.4-2.14h.41ZM430.6,116.29c-.18-.12-.46-.21-.84-.21-1.21,0-2.19,1.25-2.19,2.59,0,.53.15,1.22.95,1.22.7,0,1.54-.81,1.74-1.88l.33-1.73Z"/>
    <path class="cls-18" d="M434.6,120.15c0-.27.04-.75.12-1.28h-.02c-.5,1.01-1.13,1.38-1.81,1.38-.76,0-1.2-.61-1.2-1.38,0-1.54,1.19-3.14,2.92-3.14.35,0,.74.05,1,.13l-.43,2.25c-.16.87-.21,1.6-.19,2.04h-.39ZM435.15,116.16c-.11-.04-.29-.08-.62-.08-1.31,0-2.41,1.26-2.42,2.72,0,.52.16,1.1.87,1.1.77,0,1.66-1.04,1.89-2.24l.28-1.49Z"/>
    <path class="cls-18" d="M436.24,120.15l.56-2.92c.09-.51.16-.99.22-1.4h.37c-.04.31-.08.61-.14.97h.03c.27-.6.72-1.07,1.29-1.07.06,0,.15,0,.2.02l-.08.41s-.11-.02-.2-.02c-.54,0-1.23.81-1.43,1.91l-.4,2.1h-.41Z"/>
    <path class="cls-18" d="M439.52,115.83l.53,2.6c.11.53.17.86.23,1.21h.03c.13-.29.27-.6.5-1.09l1.31-2.72h.43l-1.67,3.39c-.4.81-.78,1.55-1.38,2.15-.47.5-.95.69-1.18.76l-.12-.35c.18-.07.51-.2.83-.47.3-.23.65-.64.92-1.15.04-.07.04-.12.03-.19l-.87-4.14h.41Z"/>
    <path class="cls-18" d="M377.16,130.3c.31.22.73.39,1.2.39.8,0,1.53-.51,1.53-1.4,0-.52-.24-.93-.93-1.31-.86-.47-1.18-.95-1.18-1.53,0-1,.85-1.67,1.84-1.67.5,0,.95.18,1.12.33l-.17.31c-.19-.12-.54-.3-1.01-.3-.84,0-1.38.61-1.38,1.22s.27.89.98,1.29c.75.41,1.12.88,1.12,1.64,0,.86-.64,1.76-2.02,1.76-.46,0-1.05-.18-1.29-.41l.17-.32Z"/>
    <path class="cls-18" d="M384.01,130.7c-.22.14-.67.34-1.31.34-1.1,0-1.5-.83-1.5-1.68,0-1.29.97-2.83,2.26-2.83.78,0,1.12.49,1.12.99,0,1.16-1.4,1.4-2.93,1.37-.05.23-.04.77.06,1.06.17.5.55.74,1.04.74.54,0,.92-.18,1.13-.31l.12.32ZM383.39,126.88c-.78,0-1.43.82-1.67,1.67,1.28.02,2.45-.15,2.45-1,0-.44-.33-.67-.77-.67Z"/>
    <path class="cls-18" d="M387.36,132.73l.51-2.67h-.02c-.38.62-1.02.99-1.6.99-.9,0-1.25-.77-1.25-1.53,0-1.49,1.15-2.99,2.63-2.99.55,0,1.01.14,1.25.3l-1.12,5.91h-.41ZM388.43,127.07c-.15-.09-.46-.19-.85-.19-1.12,0-2.15,1.13-2.15,2.59,0,.77.34,1.22.87,1.22.86,0,1.64-.97,1.82-1.93l.31-1.7Z"/>
    <path class="cls-18" d="M393.46,126.63l-.6,3.16c-.08.43-.14.82-.16,1.16h-.39l.13-.89h-.02c-.35.57-.95.99-1.55.99-.47,0-1.16-.19-1.16-1.28,0-.19.03-.41.08-.68l.47-2.46h.4l-.47,2.47c-.05.27-.08.47-.08.68,0,.55.23.91.86.91s1.45-.7,1.64-1.7l.44-2.35h.41Z"/>
    <path class="cls-18" d="M396.9,130.7c-.22.14-.67.34-1.31.34-1.1,0-1.5-.83-1.5-1.68,0-1.29.97-2.83,2.26-2.83.78,0,1.12.49,1.12.99,0,1.16-1.4,1.4-2.93,1.37-.05.23-.04.77.06,1.06.17.5.55.74,1.04.74.54,0,.92-.18,1.13-.31l.12.32ZM396.28,126.88c-.78,0-1.43.82-1.67,1.67,1.28.02,2.45-.15,2.45-1,0-.44-.33-.67-.77-.67Z"/>
    <path class="cls-18" d="M397.91,130.95l.59-3.16c.09-.44.14-.82.19-1.16h.38l-.14.93h.02c.38-.63.99-1.03,1.67-1.03.39,0,1.08.21,1.08,1.21,0,.2-.04.44-.08.68l-.48,2.53h-.41l.49-2.57c.03-.18.06-.4.06-.59,0-.51-.21-.9-.83-.9s-1.53.7-1.74,1.85l-.41,2.21h-.4Z"/>
    <path class="cls-18" d="M405.39,130.75c-.18.1-.64.29-1.27.29-1.14,0-1.57-.81-1.57-1.6,0-1.44,1.05-2.91,2.55-2.91.42,0,.82.14.91.23l-.14.34c-.19-.09-.46-.2-.83-.2-1.26,0-2.06,1.32-2.06,2.48,0,.77.36,1.31,1.22,1.31.49,0,.86-.16,1.09-.28l.11.34Z"/>
    <path class="cls-18" d="M409.01,130.7c-.22.14-.67.34-1.31.34-1.1,0-1.5-.83-1.5-1.68,0-1.29.97-2.83,2.26-2.83.78,0,1.12.49,1.12.99,0,1.16-1.4,1.4-2.93,1.37-.05.23-.04.77.06,1.06.17.5.55.74,1.04.74.54,0,.92-.18,1.13-.31l.12.32ZM408.39,126.88c-.78,0-1.43.82-1.67,1.67,1.28.02,2.45-.15,2.45-1,0-.44-.33-.67-.77-.67Z"/>
    <path class="cls-18" d="M415.62,130.73c-.35.16-.91.31-1.56.31-1.48,0-2.33-.96-2.33-2.48,0-1,.38-2.11,1.15-2.85.63-.59,1.42-.93,2.32-.93.68,0,1.17.18,1.31.32l-.17.32c-.25-.16-.69-.28-1.24-.28-.7,0-1.43.3-1.95.81-.61.6-.99,1.57-.99,2.53,0,1.15.47,2.21,1.99,2.21.48,0,1.03-.1,1.39-.3l.09.34Z"/>
    <path class="cls-18" d="M420.3,128.34c0,1.18-.86,2.71-2.29,2.71-1.07,0-1.6-.86-1.6-1.76,0-1.39.96-2.75,2.29-2.75,1.17,0,1.6.94,1.6,1.81ZM416.83,129.25c0,.83.48,1.45,1.23,1.45.98,0,1.81-1.2,1.81-2.37,0-.58-.27-1.46-1.21-1.46-1.06,0-1.84,1.19-1.84,2.38Z"/>
    <path class="cls-18" d="M424.8,128.34c0,1.18-.86,2.71-2.29,2.71-1.07,0-1.6-.86-1.6-1.76,0-1.39.96-2.75,2.29-2.75,1.17,0,1.6.94,1.6,1.81ZM421.33,129.25c0,.83.48,1.45,1.23,1.45.98,0,1.81-1.2,1.81-2.37,0-.58-.27-1.46-1.21-1.46-1.06,0-1.84,1.19-1.84,2.38Z"/>
    <path class="cls-18" d="M425.41,130.95l.56-2.92c.09-.51.16-.99.22-1.4h.37c-.04.31-.08.61-.14.97h.03c.27-.6.72-1.07,1.29-1.07.06,0,.15,0,.2.02l-.08.41s-.11-.02-.2-.02c-.54,0-1.23.81-1.43,1.91l-.4,2.1h-.41Z"/>
    <path class="cls-18" d="M432.22,124.56l-1,5.21c-.07.39-.14.82-.17,1.18h-.37l.14-.95h-.02c-.41.64-.95,1.05-1.65,1.05-.89,0-1.26-.76-1.26-1.54,0-1.56,1.18-2.98,2.65-2.98.33,0,.68.07.87.17l.4-2.14h.41ZM431.34,127.09c-.18-.12-.46-.21-.84-.21-1.21,0-2.19,1.25-2.19,2.59,0,.53.15,1.22.95,1.22.7,0,1.54-.81,1.74-1.88l.33-1.73Z"/>
    <path class="cls-18" d="M432.45,130.95l.83-4.32h.41l-.83,4.32h-.41ZM433.38,125.39c0-.2.14-.36.33-.36.21,0,.32.16.32.36-.02.19-.14.36-.35.36-.2,0-.31-.17-.31-.36Z"/>
    <path class="cls-18" d="M434.3,130.95l.59-3.16c.09-.44.14-.82.19-1.16h.38l-.14.93h.02c.38-.63.99-1.03,1.67-1.03.39,0,1.08.21,1.08,1.21,0,.2-.04.44-.08.68l-.48,2.53h-.41l.49-2.57c.03-.18.06-.4.06-.59,0-.51-.21-.9-.83-.9s-1.53.7-1.74,1.85l-.41,2.21h-.4Z"/>
    <path class="cls-18" d="M441.83,130.95c0-.27.04-.75.12-1.28h-.02c-.5,1.01-1.13,1.38-1.81,1.38-.76,0-1.2-.61-1.2-1.38,0-1.54,1.19-3.14,2.92-3.14.35,0,.74.05,1,.13l-.43,2.25c-.16.87-.21,1.6-.19,2.04h-.39ZM442.38,126.96c-.11-.04-.29-.08-.62-.08-1.31,0-2.41,1.26-2.42,2.72,0,.52.16,1.1.87,1.1.77,0,1.66-1.04,1.89-2.24l.28-1.49Z"/>
    <path class="cls-18" d="M445.08,125.49l-.22,1.13h1.1l-.06.33h-1.11l-.47,2.5c-.05.29-.09.5-.09.77,0,.29.14.46.43.46.14,0,.26-.02.35-.04l.04.32c-.12.04-.29.06-.47.06-.58,0-.77-.4-.77-.77,0-.26.04-.52.1-.82l.48-2.48h-.66l.06-.33h.67l.19-1.02.43-.12Z"/>
    <path class="cls-18" d="M448.87,130.7c-.22.14-.67.34-1.31.34-1.1,0-1.5-.83-1.5-1.68,0-1.29.97-2.83,2.26-2.83.78,0,1.12.49,1.12.99,0,1.16-1.4,1.4-2.93,1.37-.05.23-.04.77.06,1.06.17.5.55.74,1.04.74.54,0,.92-.18,1.13-.31l.12.32ZM448.25,126.88c-.78,0-1.43.82-1.67,1.67,1.28.02,2.45-.15,2.45-1,0-.44-.33-.67-.77-.67Z"/>
  </g>
  <text class="cls-40" transform="translate(91.19 209)"><tspan x="0" y="0">Specific </tspan><tspan class="cls-71" x="27.38" y="0">t</tspan><tspan x="29.98" y="0">o </tspan><tspan class="cls-37" x="36.1" y="0">A</tspan><tspan x="40.99" y="0">ssa</tspan><tspan class="cls-97" x="51.75" y="0">y</tspan><tspan class="cls-78" x="55.34" y="0">ed </tspan><tspan class="cls-85" x="65.29" y="0">F</tspan><tspan x="68.94" y="0">usions</tspan></text>
  <g>
    <path class="cls-18" d="M475.6,114.15c.43-.07.91-.12,1.4-.12,1.05,0,1.84.33,2.25.9.22.3.42.81.42,1.49,0,1.05-.41,2.19-1.2,2.89-.7.6-1.58.86-2.66.86-.41,0-.9,0-1.35-.04l1.12-5.99ZM474.94,119.79c.34.04.69.04.91.04,1.12,0,1.88-.31,2.45-.86.63-.61.96-1.56.96-2.49,0-1.14-.52-2.09-2.3-2.09-.31,0-.73.02-1,.07l-1.01,5.33Z"/>
    <path class="cls-18" d="M480.09,120.15l1.15-6.07h.39l1.75,4.12c.28.64.4,1.03.51,1.46h.02c.04-.51.09-.92.24-1.74l.73-3.84h.4l-1.15,6.07h-.37l-1.71-4.05c-.32-.71-.43-1.05-.55-1.53l-.03.02c-.06.55-.13,1-.27,1.75l-.72,3.82h-.4Z"/>
    <path class="cls-18" d="M486.55,118.02l-1.12,2.13h-.41l3.24-6.07h.4l.92,6.07h-.4l-.31-2.13h-2.31ZM488.8,117.66l-.31-2.03c-.04-.31-.09-.73-.12-1.07h-.03c-.16.35-.31.68-.5,1.05l-1.09,2.04h2.04Z"/>
    <path class="cls-18" d="M492.05,119.57c.22.13.54.31,1.04.31,1.16,0,1.64-.88,1.64-1.57,0-.85-.65-1.19-1.29-1.19h-.33l.06-.34h.35c.52,0,1.55-.43,1.55-1.36,0-.55-.3-.87-.9-.87-.4,0-.78.14-1.04.35l-.15-.31c.33-.23.77-.4,1.25-.4.97,0,1.28.66,1.28,1.18,0,.81-.65,1.38-1.29,1.57v.02c.66.17.95.77.95,1.35,0,1.03-.85,1.94-2.12,1.94-.56,0-1-.2-1.16-.36l.16-.31Z"/>
    <path class="cls-18" d="M497.79,113.98c-.28.68-.85,1.7-1.04,1.95l-.32.04c.22-.38.64-1.35.83-1.91l.52-.09Z"/>
    <path class="cls-18" d="M500.37,114.15c.32-.06.69-.12,1.12-.12.62,0,1.06.16,1.34.48.2.24.26.52.26.85,0,.77-.65,1.39-1.36,1.56v.03c.53.14,1.04.59,1.03,1.36,0,.6-.32,1.1-.67,1.39-.46.37-1.07.5-1.76.5-.42,0-.81-.02-1.09-.07l1.13-5.96ZM499.71,119.79c.22.04.47.04.68.04,1,0,1.94-.41,1.94-1.57,0-.78-.66-1.18-1.39-1.18h-.74l-.5,2.7ZM500.28,116.76h.63c.97,0,1.76-.54,1.76-1.41,0-.67-.5-.96-1.26-.96-.3,0-.56.02-.68.06l-.44,2.31Z"/>
    <path class="cls-18" d="M507.43,117.54c0,1.18-.86,2.71-2.29,2.71-1.07,0-1.6-.86-1.6-1.76,0-1.39.96-2.75,2.29-2.75,1.17,0,1.6.94,1.6,1.81ZM503.96,118.45c0,.83.48,1.45,1.23,1.45.98,0,1.81-1.2,1.81-2.37,0-.58-.27-1.46-1.21-1.46-1.06,0-1.84,1.19-1.84,2.38Z"/>
    <path class="cls-18" d="M511.96,115.83l-.6,3.16c-.08.43-.13.82-.16,1.16h-.39l.13-.89h-.02c-.35.57-.95.99-1.55.99-.47,0-1.16-.19-1.16-1.28,0-.19.03-.41.08-.68l.47-2.46h.41l-.47,2.47c-.05.27-.08.47-.08.68,0,.55.22.91.85.91s1.45-.7,1.64-1.7l.44-2.35h.41Z"/>
    <path class="cls-18" d="M512.59,120.15l.59-3.16c.09-.44.14-.82.19-1.16h.38l-.13.93h.02c.38-.63.99-1.03,1.67-1.03.39,0,1.08.21,1.08,1.21,0,.2-.04.44-.08.68l-.48,2.53h-.41l.49-2.57c.03-.18.06-.4.06-.59,0-.51-.21-.9-.83-.9s-1.53.7-1.74,1.85l-.41,2.21h-.41Z"/>
    <path class="cls-18" d="M521.54,113.76l-1,5.21c-.07.39-.14.82-.17,1.18h-.37l.14-.95h-.02c-.41.64-.95,1.05-1.65,1.05-.89,0-1.26-.76-1.26-1.54,0-1.56,1.18-2.98,2.65-2.98.33,0,.68.07.87.17l.4-2.14h.41ZM520.66,116.29c-.18-.12-.46-.21-.84-.21-1.21,0-2.19,1.25-2.19,2.59,0,.53.15,1.22.95,1.22.7,0,1.54-.81,1.74-1.88l.33-1.73Z"/>
    <path class="cls-18" d="M524.65,120.15c0-.27.04-.75.12-1.28h-.02c-.5,1.01-1.13,1.38-1.81,1.38-.76,0-1.2-.61-1.2-1.38,0-1.54,1.19-3.14,2.92-3.14.35,0,.74.05,1,.13l-.43,2.25c-.16.87-.21,1.6-.19,2.04h-.39ZM525.2,116.16c-.11-.04-.29-.08-.62-.08-1.31,0-2.41,1.26-2.42,2.72,0,.52.16,1.1.87,1.1.77,0,1.66-1.04,1.89-2.24l.28-1.49Z"/>
    <path class="cls-18" d="M526.29,120.15l.56-2.92c.09-.51.16-.99.22-1.4h.37c-.04.31-.08.61-.14.97h.03c.27-.6.72-1.07,1.29-1.07.06,0,.15,0,.2.02l-.08.41s-.11-.02-.2-.02c-.54,0-1.23.81-1.43,1.91l-.4,2.1h-.4Z"/>
    <path class="cls-18" d="M529.58,115.83l.53,2.6c.11.53.17.86.22,1.21h.03c.13-.29.27-.6.5-1.09l1.31-2.72h.43l-1.67,3.39c-.4.81-.78,1.55-1.38,2.15-.47.5-.96.69-1.18.76l-.12-.35c.18-.07.51-.2.83-.47.3-.23.65-.64.92-1.15.05-.07.04-.12.03-.19l-.87-4.14h.41Z"/>
    <path class="cls-18" d="M467.22,130.3c.31.22.73.39,1.2.39.8,0,1.53-.51,1.53-1.4,0-.52-.24-.93-.93-1.31-.85-.47-1.18-.95-1.18-1.53,0-1,.85-1.67,1.84-1.67.5,0,.95.18,1.13.33l-.17.31c-.19-.12-.54-.3-1.01-.3-.84,0-1.38.61-1.38,1.22s.27.89.98,1.29c.75.41,1.13.88,1.13,1.64,0,.86-.64,1.76-2.02,1.76-.46,0-1.05-.18-1.29-.41l.17-.32Z"/>
    <path class="cls-18" d="M474.07,130.7c-.22.14-.67.34-1.31.34-1.1,0-1.5-.83-1.5-1.68,0-1.29.97-2.83,2.26-2.83.78,0,1.12.49,1.12.99,0,1.16-1.4,1.4-2.93,1.37-.05.23-.04.77.06,1.06.17.5.55.74,1.04.74.54,0,.92-.18,1.13-.31l.12.32ZM473.44,126.88c-.78,0-1.43.82-1.67,1.67,1.28.02,2.45-.15,2.45-1,0-.44-.33-.67-.77-.67Z"/>
    <path class="cls-18" d="M477.41,132.73l.51-2.67h-.02c-.38.62-1.02.99-1.6.99-.9,0-1.25-.77-1.25-1.53,0-1.49,1.15-2.99,2.63-2.99.55,0,1.01.14,1.25.3l-1.12,5.91h-.41ZM478.48,127.07c-.15-.09-.46-.19-.86-.19-1.12,0-2.15,1.13-2.15,2.59,0,.77.34,1.22.87,1.22.86,0,1.64-.97,1.82-1.93l.32-1.7Z"/>
    <path class="cls-18" d="M483.52,126.63l-.6,3.16c-.08.43-.13.82-.16,1.16h-.39l.13-.89h-.02c-.35.57-.95.99-1.55.99-.47,0-1.16-.19-1.16-1.28,0-.19.03-.41.08-.68l.47-2.46h.41l-.47,2.47c-.05.27-.08.47-.08.68,0,.55.22.91.85.91s1.45-.7,1.64-1.7l.44-2.35h.41Z"/>
    <path class="cls-18" d="M486.95,130.7c-.22.14-.67.34-1.31.34-1.1,0-1.5-.83-1.5-1.68,0-1.29.97-2.83,2.26-2.83.78,0,1.12.49,1.12.99,0,1.16-1.4,1.4-2.93,1.37-.05.23-.04.77.06,1.06.17.5.55.74,1.04.74.54,0,.92-.18,1.13-.31l.12.32ZM486.33,126.88c-.78,0-1.43.82-1.67,1.67,1.28.02,2.45-.15,2.45-1,0-.44-.33-.67-.77-.67Z"/>
    <path class="cls-18" d="M487.96,130.95l.59-3.16c.09-.44.14-.82.19-1.16h.38l-.13.93h.02c.38-.63.99-1.03,1.67-1.03.39,0,1.08.21,1.08,1.21,0,.2-.04.44-.08.68l-.48,2.53h-.41l.49-2.57c.03-.18.06-.4.06-.59,0-.51-.21-.9-.83-.9s-1.53.7-1.74,1.85l-.41,2.21h-.41Z"/>
    <path class="cls-18" d="M495.44,130.75c-.18.1-.64.29-1.27.29-1.14,0-1.57-.81-1.57-1.6,0-1.44,1.05-2.91,2.55-2.91.42,0,.82.14.91.23l-.14.34c-.19-.09-.46-.2-.83-.2-1.26,0-2.06,1.32-2.06,2.48,0,.77.36,1.31,1.21,1.31.49,0,.86-.16,1.09-.28l.11.34Z"/>
    <path class="cls-18" d="M499.07,130.7c-.22.14-.67.34-1.31.34-1.1,0-1.5-.83-1.5-1.68,0-1.29.97-2.83,2.26-2.83.78,0,1.12.49,1.12.99,0,1.16-1.4,1.4-2.93,1.37-.05.23-.04.77.06,1.06.17.5.55.74,1.04.74.54,0,.92-.18,1.13-.31l.12.32ZM498.45,126.88c-.78,0-1.43.82-1.67,1.67,1.28.02,2.45-.15,2.45-1,0-.44-.33-.67-.77-.67Z"/>
    <path class="cls-18" d="M505.67,130.73c-.35.16-.91.31-1.56.31-1.48,0-2.33-.96-2.33-2.48,0-1,.38-2.11,1.15-2.85.63-.59,1.42-.93,2.32-.93.68,0,1.17.18,1.3.32l-.17.32c-.25-.16-.69-.28-1.24-.28-.7,0-1.43.3-1.95.81-.61.6-.99,1.57-.99,2.53,0,1.15.47,2.21,1.99,2.21.48,0,1.03-.1,1.39-.3l.09.34Z"/>
    <path class="cls-18" d="M510.35,128.34c0,1.18-.86,2.71-2.29,2.71-1.07,0-1.6-.86-1.6-1.76,0-1.39.96-2.75,2.29-2.75,1.17,0,1.6.94,1.6,1.81ZM506.89,129.25c0,.83.48,1.45,1.23,1.45.98,0,1.81-1.2,1.81-2.37,0-.58-.27-1.46-1.21-1.46-1.06,0-1.84,1.19-1.84,2.38Z"/>
    <path class="cls-18" d="M514.85,128.34c0,1.18-.86,2.71-2.29,2.71-1.07,0-1.6-.86-1.6-1.76,0-1.39.96-2.75,2.29-2.75,1.17,0,1.6.94,1.6,1.81ZM511.39,129.25c0,.83.48,1.45,1.23,1.45.98,0,1.81-1.2,1.81-2.37,0-.58-.27-1.46-1.21-1.46-1.06,0-1.84,1.19-1.84,2.38Z"/>
    <path class="cls-18" d="M515.46,130.95l.56-2.92c.09-.51.16-.99.22-1.4h.37c-.04.31-.08.61-.14.97h.03c.27-.6.72-1.07,1.29-1.07.06,0,.15,0,.2.02l-.08.41s-.11-.02-.2-.02c-.54,0-1.23.81-1.43,1.91l-.4,2.1h-.4Z"/>
    <path class="cls-18" d="M522.28,124.56l-1,5.21c-.07.39-.14.82-.17,1.18h-.37l.14-.95h-.02c-.41.64-.95,1.05-1.65,1.05-.89,0-1.26-.76-1.26-1.54,0-1.56,1.18-2.98,2.65-2.98.33,0,.68.07.87.17l.4-2.14h.41ZM521.4,127.09c-.18-.12-.46-.21-.84-.21-1.21,0-2.19,1.25-2.19,2.59,0,.53.15,1.22.95,1.22.7,0,1.54-.81,1.74-1.88l.33-1.73Z"/>
    <path class="cls-18" d="M522.5,130.95l.83-4.32h.41l-.83,4.32h-.4ZM523.44,125.39c0-.2.14-.36.33-.36.21,0,.32.16.32.36-.02.19-.13.36-.35.36-.2,0-.32-.17-.31-.36Z"/>
    <path class="cls-18" d="M524.36,130.95l.59-3.16c.09-.44.14-.82.19-1.16h.38l-.13.93h.02c.38-.63.99-1.03,1.67-1.03.39,0,1.08.21,1.08,1.21,0,.2-.04.44-.08.68l-.48,2.53h-.41l.49-2.57c.03-.18.06-.4.06-.59,0-.51-.21-.9-.83-.9s-1.53.7-1.74,1.85l-.41,2.21h-.41Z"/>
    <path class="cls-18" d="M531.89,130.95c0-.27.04-.75.12-1.28h-.02c-.5,1.01-1.13,1.38-1.81,1.38-.76,0-1.2-.61-1.2-1.38,0-1.54,1.19-3.14,2.92-3.14.35,0,.74.05,1,.13l-.43,2.25c-.16.87-.21,1.6-.19,2.04h-.39ZM532.44,126.96c-.11-.04-.29-.08-.62-.08-1.31,0-2.41,1.26-2.42,2.72,0,.52.16,1.1.87,1.1.77,0,1.66-1.04,1.89-2.24l.28-1.49Z"/>
    <path class="cls-18" d="M535.14,125.49l-.22,1.13h1.1l-.06.33h-1.11l-.47,2.5c-.05.29-.09.5-.09.77,0,.29.14.46.43.46.14,0,.26-.02.35-.04l.04.32c-.12.04-.29.06-.47.06-.58,0-.77-.4-.77-.77,0-.26.04-.52.1-.82l.48-2.48h-.66l.06-.33h.67l.19-1.02.43-.12Z"/>
    <path class="cls-18" d="M538.93,130.7c-.22.14-.67.34-1.31.34-1.1,0-1.5-.83-1.5-1.68,0-1.29.97-2.83,2.26-2.83.78,0,1.12.49,1.12.99,0,1.16-1.4,1.4-2.93,1.37-.05.23-.04.77.06,1.06.17.5.55.74,1.04.74.54,0,.92-.18,1.13-.31l.12.32ZM538.31,126.88c-.78,0-1.43.82-1.67,1.67,1.28.02,2.45-.15,2.45-1,0-.44-.33-.67-.77-.67Z"/>
  </g>
  <text class="cls-40" transform="translate(461.81 207.03)"><tspan x="0" y="0">3’ </tspan><tspan class="cls-1" x="7.18" y="0">S</tspan><tspan x="11.23" y="0">egment Bounda</tspan><tspan class="cls-69" x="66.48" y="0">r</tspan><tspan class="cls-4" x="69.24" y="0">y</tspan><tspan x="7.1" y="10.8">(E</tspan><tspan class="cls-86" x="13.45" y="10.8">x</tspan><tspan x="16.96" y="10.8">on Numbe</tspan><tspan class="cls-68" x="53.25" y="10.8">r</tspan><tspan x="56" y="10.8">: 7)</tspan></text>
  <text class="cls-40" transform="translate(500.89 193.89)"><tspan x="0" y="0">+ </tspan><tspan class="cls-107" x="6.98" y="0">O</tspan><tspan x="13.04" y="0">ffset</tspan></text>
  <text class="cls-40" transform="translate(468.69 193.99)"><tspan x="0" y="0">- </tspan><tspan class="cls-106" x="4.3" y="0">O</tspan><tspan class="cls-105" x="10.36" y="0">ffset</tspan></text>
  <text class="cls-12" transform="translate(225.77 155.17)"><tspan x="0" y="0">Chimeric </tspan><tspan class="cls-101" x="33.58" y="0">T</tspan><tspan class="cls-42" x="37.39" y="0">r</tspan><tspan x="40.11" y="0">anscript </tspan><tspan class="cls-112" x="70.88" y="0">(</tspan><tspan x="73.35" y="0">e</tspan><tspan class="cls-90" x="77.43" y="0">x</tspan><tspan x="81.25" y="0">ons)</tspan></text>
  <polygon class="cls-15" points="280.15 102.74 241.47 102.74 241.47 100.99 241.47 99.24 280.15 99.24 280.15 102.74"/>
  <rect class="cls-15" x="280.15" y="96.71" width="34.55" height="9.48"/>
  <polygon class="cls-15" points="285.69 177.16 247.01 177.16 247.01 175.42 247.01 173.67 285.69 173.67 285.69 177.16"/>
  <rect class="cls-15" x="285.69" y="171.14" width="34.55" height="9.48"/>
  <line class="cls-56" x1="228.99" y1="100.99" x2="241.47" y2="100.99"/>
  <line class="cls-56" x1="314.7" y1="101.46" x2="331.86" y2="101.46"/>
  <line class="cls-54" x1="402.29" y1="101.46" x2="424.06" y2="101.46"/>
  <line class="cls-54" x1="441.57" y1="101.46" x2="457.3" y2="101.46"/>
  <polyline class="cls-59" points="330.14 94.46 332.41 96.73 330.03 99.11 332.37 101.45 329.97 103.85 332.39 106.26 330.2 108.45"/>
  <polyline class="cls-59" points="400.37 94.46 402.64 96.73 400.26 99.11 402.6 101.45 400.21 103.85 402.62 106.26 400.44 108.45"/>
  <line class="cls-55" x1="440.95" y1="171.14" x2="440.95" y2="180.62"/>
  <g>
    <polyline class="cls-53" points="498.52 177.63 498.52 197.7 487.13 197.7"/>
    <polygon class="cls-17" points="483.95 197.7 488.43 195.87 487.36 197.7 488.43 199.53 483.95 197.7"/>
  </g>
  <g>
    <line class="cls-53" x1="509.86" y1="197.7" x2="498.46" y2="197.7"/>
    <polygon class="cls-17" points="513.04 197.7 508.56 195.87 509.62 197.7 508.56 199.53 513.04 197.7"/>
  </g>
  <text class="cls-40" transform="translate(283.54 207.03)"><tspan x="0" y="0">3’ </tspan><tspan class="cls-1" x="7.18" y="0">S</tspan><tspan x="11.23" y="0">egment Bounda</tspan><tspan class="cls-69" x="66.48" y="0">r</tspan><tspan class="cls-4" x="69.24" y="0">y</tspan><tspan x="7.1" y="10.8">(E</tspan><tspan class="cls-86" x="13.45" y="10.8">x</tspan><tspan x="16.96" y="10.8">on Numbe</tspan><tspan class="cls-68" x="53.25" y="10.8">r</tspan><tspan x="56" y="10.8">: 1)</tspan></text>
  <text class="cls-40" transform="translate(322.4 193.89)"><tspan x="0" y="0">+ </tspan><tspan class="cls-107" x="6.98" y="0">O</tspan><tspan x="13.04" y="0">ffset</tspan></text>
  <text class="cls-40" transform="translate(290.21 193.99)"><tspan x="0" y="0">- </tspan><tspan class="cls-106" x="4.3" y="0">O</tspan><tspan class="cls-105" x="10.36" y="0">ffset</tspan></text>
  <g>
    <polyline class="cls-53" points="320.04 177.63 320.04 197.7 308.64 197.7"/>
    <polygon class="cls-17" points="305.47 197.7 309.94 195.87 308.88 197.7 309.94 199.53 305.47 197.7"/>
  </g>
  <g>
    <line class="cls-53" x1="331.38" y1="197.7" x2="319.98" y2="197.7"/>
    <polygon class="cls-17" points="334.55 197.7 330.08 195.87 331.14 197.7 330.08 199.53 334.55 197.7"/>
  </g>
  <text class="cls-40" transform="translate(414.82 193.89)"><tspan x="0" y="0">+ </tspan><tspan class="cls-107" x="6.98" y="0">O</tspan><tspan x="13.04" y="0">ffset</tspan></text>
  <text class="cls-40" transform="translate(382.63 193.99)"><tspan x="0" y="0">- </tspan><tspan class="cls-106" x="4.3" y="0">O</tspan><tspan class="cls-105" x="10.36" y="0">ffset</tspan></text>
  <g>
    <polyline class="cls-53" points="412.46 177.63 412.46 197.7 401.06 197.7"/>
    <polygon class="cls-17" points="397.88 197.7 402.36 195.87 401.3 197.7 402.36 199.53 397.88 197.7"/>
  </g>
  <g>
    <line class="cls-53" x1="423.79" y1="197.7" x2="412.4" y2="197.7"/>
    <polygon class="cls-17" points="426.97 197.7 422.49 195.87 423.56 197.7 422.49 199.53 426.97 197.7"/>
  </g>
  <line class="cls-53" x1="413.05" y1="101.46" x2="413.05" y2="113.05"/>
  <line class="cls-53" x1="508.67" y1="101.46" x2="508.67" y2="113.05"/>
  <g>
    <path class="cls-18" d="M289.24,114.15c.43-.07.91-.12,1.4-.12,1.05,0,1.84.33,2.25.9.23.3.42.81.42,1.49,0,1.05-.4,2.19-1.2,2.89-.7.6-1.58.86-2.66.86-.4,0-.9,0-1.35-.04l1.12-5.99ZM288.59,119.79c.34.04.69.04.91.04,1.12,0,1.88-.31,2.45-.86.63-.61.95-1.56.95-2.49,0-1.14-.52-2.09-2.3-2.09-.31,0-.73.02-1,.07l-1.01,5.33Z"/>
    <path class="cls-18" d="M293.74,120.15l1.15-6.07h.39l1.76,4.12c.28.64.4,1.03.51,1.46h.02c.04-.51.09-.92.24-1.74l.73-3.84h.4l-1.15,6.07h-.37l-1.71-4.05c-.32-.71-.43-1.05-.55-1.53l-.03.02c-.06.55-.13,1-.27,1.75l-.72,3.82h-.4Z"/>
    <path class="cls-18" d="M300.2,118.02l-1.12,2.13h-.41l3.24-6.07h.4l.92,6.07h-.4l-.32-2.13h-2.31ZM302.45,117.66l-.31-2.03c-.04-.31-.09-.73-.12-1.07h-.03c-.16.35-.31.68-.5,1.05l-1.09,2.04h2.04Z"/>
    <path class="cls-18" d="M305.69,119.57c.22.13.54.31,1.04.31,1.16,0,1.64-.88,1.64-1.57,0-.85-.65-1.19-1.29-1.19h-.33l.06-.34h.35c.52,0,1.55-.43,1.55-1.36,0-.55-.3-.87-.9-.87-.4,0-.78.14-1.04.35l-.15-.31c.33-.23.77-.4,1.25-.4.97,0,1.28.66,1.28,1.18,0,.81-.65,1.38-1.29,1.57v.02c.66.17.96.77.96,1.35,0,1.03-.85,1.94-2.12,1.94-.56,0-1-.2-1.16-.36l.16-.31Z"/>
    <path class="cls-18" d="M311.44,113.98c-.28.68-.85,1.7-1.04,1.95l-.31.04c.22-.38.64-1.35.83-1.91l.52-.09Z"/>
    <path class="cls-18" d="M314.02,114.15c.32-.06.69-.12,1.12-.12.62,0,1.06.16,1.34.48.2.24.26.52.26.85,0,.77-.65,1.39-1.36,1.56v.03c.53.14,1.04.59,1.03,1.36,0,.6-.31,1.1-.67,1.39-.46.37-1.07.5-1.76.5-.42,0-.81-.02-1.09-.07l1.13-5.96ZM313.35,119.79c.22.04.47.04.68.04,1,0,1.94-.41,1.94-1.57,0-.78-.66-1.18-1.39-1.18h-.74l-.5,2.7ZM313.93,116.76h.63c.97,0,1.76-.54,1.76-1.41,0-.67-.5-.96-1.26-.96-.3,0-.56.02-.68.06l-.44,2.31Z"/>
    <path class="cls-18" d="M321.08,117.54c0,1.18-.87,2.71-2.29,2.71-1.07,0-1.6-.86-1.6-1.76,0-1.39.96-2.75,2.29-2.75,1.17,0,1.6.94,1.6,1.81ZM317.61,118.45c0,.83.48,1.45,1.23,1.45.98,0,1.81-1.2,1.81-2.37,0-.58-.27-1.46-1.21-1.46-1.06,0-1.84,1.19-1.84,2.38Z"/>
    <path class="cls-18" d="M325.6,115.83l-.6,3.16c-.08.43-.14.82-.16,1.16h-.39l.13-.89h-.02c-.35.57-.95.99-1.55.99-.47,0-1.16-.19-1.16-1.28,0-.19.03-.41.08-.68l.47-2.46h.41l-.47,2.47c-.05.27-.08.47-.08.68,0,.55.23.91.85.91s1.45-.7,1.64-1.7l.44-2.35h.41Z"/>
    <path class="cls-18" d="M326.24,120.15l.59-3.16c.09-.44.14-.82.19-1.16h.38l-.14.93h.02c.38-.63.99-1.03,1.67-1.03.39,0,1.08.21,1.08,1.21,0,.2-.04.44-.08.68l-.48,2.53h-.41l.49-2.57c.03-.18.06-.4.06-.59,0-.51-.21-.9-.83-.9s-1.53.7-1.74,1.85l-.41,2.21h-.41Z"/>
    <path class="cls-18" d="M335.19,113.76l-1,5.21c-.07.39-.14.82-.17,1.18h-.37l.14-.95h-.02c-.4.64-.95,1.05-1.65,1.05-.89,0-1.26-.76-1.26-1.54,0-1.56,1.18-2.98,2.65-2.98.33,0,.68.07.87.17l.4-2.14h.41ZM334.31,116.29c-.18-.12-.46-.21-.84-.21-1.21,0-2.19,1.25-2.19,2.59,0,.53.15,1.22.95,1.22.7,0,1.54-.81,1.74-1.88l.33-1.73Z"/>
    <path class="cls-18" d="M338.3,120.15c0-.27.04-.75.12-1.28h-.02c-.5,1.01-1.13,1.38-1.81,1.38-.76,0-1.2-.61-1.2-1.38,0-1.54,1.19-3.14,2.92-3.14.35,0,.74.05,1,.13l-.43,2.25c-.16.87-.21,1.6-.19,2.04h-.39ZM338.85,116.16c-.11-.04-.29-.08-.62-.08-1.3,0-2.41,1.26-2.42,2.72,0,.52.16,1.1.87,1.1.78,0,1.66-1.04,1.89-2.24l.28-1.49Z"/>
    <path class="cls-18" d="M339.94,120.15l.56-2.92c.09-.51.16-.99.22-1.4h.37c-.04.31-.08.61-.14.97h.03c.27-.6.72-1.07,1.29-1.07.06,0,.15,0,.2.02l-.08.41s-.11-.02-.2-.02c-.54,0-1.23.81-1.43,1.91l-.4,2.1h-.41Z"/>
    <path class="cls-18" d="M343.22,115.83l.53,2.6c.11.53.17.86.22,1.21h.03c.13-.29.27-.6.5-1.09l1.31-2.72h.43l-1.67,3.39c-.4.81-.78,1.55-1.38,2.15-.47.5-.96.69-1.18.76l-.12-.35c.18-.07.51-.2.83-.47.3-.23.65-.64.92-1.15.05-.07.04-.12.03-.19l-.87-4.14h.41Z"/>
    <path class="cls-18" d="M280.86,130.3c.31.22.73.39,1.2.39.8,0,1.53-.51,1.53-1.4,0-.52-.24-.93-.93-1.31-.86-.47-1.18-.95-1.18-1.53,0-1,.85-1.67,1.84-1.67.5,0,.96.18,1.13.33l-.17.31c-.19-.12-.54-.3-1.01-.3-.84,0-1.38.61-1.38,1.22s.27.89.98,1.29c.75.41,1.12.88,1.12,1.64,0,.86-.64,1.76-2.02,1.76-.46,0-1.05-.18-1.29-.41l.17-.32Z"/>
    <path class="cls-18" d="M287.71,130.7c-.22.14-.67.34-1.31.34-1.1,0-1.5-.83-1.5-1.68,0-1.29.97-2.83,2.26-2.83.78,0,1.12.49,1.12.99,0,1.16-1.4,1.4-2.93,1.37-.05.23-.04.77.06,1.06.17.5.55.74,1.04.74.54,0,.92-.18,1.13-.31l.12.32ZM287.09,126.88c-.78,0-1.43.82-1.67,1.67,1.28.02,2.45-.15,2.45-1,0-.44-.33-.67-.77-.67Z"/>
    <path class="cls-18" d="M291.06,132.73l.51-2.67h-.02c-.38.62-1.02.99-1.6.99-.9,0-1.25-.77-1.25-1.53,0-1.49,1.15-2.99,2.63-2.99.55,0,1.01.14,1.25.3l-1.12,5.91h-.41ZM292.13,127.07c-.15-.09-.46-.19-.85-.19-1.12,0-2.15,1.13-2.15,2.59,0,.77.34,1.22.87,1.22.87,0,1.64-.97,1.82-1.93l.32-1.7Z"/>
    <path class="cls-18" d="M297.16,126.63l-.6,3.16c-.08.43-.14.82-.16,1.16h-.39l.13-.89h-.02c-.35.57-.95.99-1.55.99-.47,0-1.16-.19-1.16-1.28,0-.19.03-.41.08-.68l.47-2.46h.41l-.47,2.47c-.05.27-.08.47-.08.68,0,.55.23.91.85.91s1.45-.7,1.64-1.7l.44-2.35h.41Z"/>
    <path class="cls-18" d="M300.6,130.7c-.22.14-.67.34-1.31.34-1.1,0-1.5-.83-1.5-1.68,0-1.29.97-2.83,2.26-2.83.78,0,1.12.49,1.12.99,0,1.16-1.4,1.4-2.93,1.37-.05.23-.04.77.06,1.06.17.5.55.74,1.04.74.54,0,.92-.18,1.13-.31l.12.32ZM299.98,126.88c-.78,0-1.43.82-1.67,1.67,1.28.02,2.45-.15,2.45-1,0-.44-.33-.67-.77-.67Z"/>
    <path class="cls-18" d="M301.61,130.95l.59-3.16c.09-.44.14-.82.19-1.16h.38l-.14.93h.02c.38-.63.99-1.03,1.67-1.03.39,0,1.08.21,1.08,1.21,0,.2-.04.44-.08.68l-.48,2.53h-.41l.49-2.57c.03-.18.06-.4.06-.59,0-.51-.21-.9-.83-.9s-1.53.7-1.74,1.85l-.41,2.21h-.41Z"/>
    <path class="cls-18" d="M309.09,130.75c-.18.1-.64.29-1.27.29-1.14,0-1.57-.81-1.57-1.6,0-1.44,1.05-2.91,2.55-2.91.42,0,.82.14.91.23l-.14.34c-.19-.09-.46-.2-.83-.2-1.26,0-2.06,1.32-2.06,2.48,0,.77.36,1.31,1.22,1.31.49,0,.86-.16,1.09-.28l.11.34Z"/>
    <path class="cls-18" d="M312.72,130.7c-.22.14-.67.34-1.31.34-1.1,0-1.5-.83-1.5-1.68,0-1.29.97-2.83,2.26-2.83.78,0,1.12.49,1.12.99,0,1.16-1.4,1.4-2.93,1.37-.05.23-.04.77.06,1.06.17.5.55.74,1.04.74.54,0,.92-.18,1.13-.31l.12.32ZM312.09,126.88c-.78,0-1.43.82-1.67,1.67,1.28.02,2.45-.15,2.45-1,0-.44-.33-.67-.77-.67Z"/>
    <path class="cls-18" d="M319.32,130.73c-.35.16-.91.31-1.56.31-1.48,0-2.33-.96-2.33-2.48,0-1,.38-2.11,1.15-2.85.63-.59,1.42-.93,2.32-.93.68,0,1.17.18,1.3.32l-.17.32c-.25-.16-.69-.28-1.24-.28-.7,0-1.43.3-1.95.81-.61.6-.99,1.57-.99,2.53,0,1.15.47,2.21,1.99,2.21.48,0,1.03-.1,1.39-.3l.09.34Z"/>
    <path class="cls-18" d="M324,128.34c0,1.18-.86,2.71-2.29,2.71-1.07,0-1.6-.86-1.6-1.76,0-1.39.96-2.75,2.29-2.75,1.17,0,1.6.94,1.6,1.81ZM320.54,129.25c0,.83.48,1.45,1.23,1.45.98,0,1.81-1.2,1.81-2.37,0-.58-.27-1.46-1.21-1.46-1.06,0-1.84,1.19-1.84,2.38Z"/>
    <path class="cls-18" d="M328.5,128.34c0,1.18-.86,2.71-2.29,2.71-1.07,0-1.6-.86-1.6-1.76,0-1.39.96-2.75,2.29-2.75,1.17,0,1.6.94,1.6,1.81ZM325.04,129.25c0,.83.48,1.45,1.23,1.45.98,0,1.81-1.2,1.81-2.37,0-.58-.27-1.46-1.21-1.46-1.06,0-1.84,1.19-1.84,2.38Z"/>
    <path class="cls-18" d="M329.11,130.95l.56-2.92c.09-.51.16-.99.21-1.4h.37c-.04.31-.08.61-.14.97h.03c.27-.6.72-1.07,1.29-1.07.06,0,.15,0,.2.02l-.08.41s-.11-.02-.2-.02c-.54,0-1.23.81-1.43,1.91l-.4,2.1h-.4Z"/>
    <path class="cls-18" d="M335.93,124.56l-1,5.21c-.07.39-.14.82-.17,1.18h-.37l.14-.95h-.02c-.4.64-.95,1.05-1.65,1.05-.89,0-1.26-.76-1.26-1.54,0-1.56,1.18-2.98,2.65-2.98.33,0,.68.07.87.17l.4-2.14h.41ZM335.04,127.09c-.18-.12-.46-.21-.84-.21-1.21,0-2.19,1.25-2.19,2.59,0,.53.15,1.22.95,1.22.7,0,1.54-.81,1.74-1.88l.33-1.73Z"/>
    <path class="cls-18" d="M336.15,130.95l.83-4.32h.41l-.83,4.32h-.41ZM337.09,125.39c0-.2.14-.36.33-.36.21,0,.32.16.32.36-.02.19-.13.36-.35.36-.2,0-.32-.17-.31-.36Z"/>
    <path class="cls-18" d="M338.01,130.95l.59-3.16c.09-.44.14-.82.19-1.16h.38l-.13.93h.02c.38-.63.99-1.03,1.67-1.03.39,0,1.08.21,1.08,1.21,0,.2-.04.44-.08.68l-.48,2.53h-.41l.49-2.57c.03-.18.06-.4.06-.59,0-.51-.21-.9-.83-.9s-1.53.7-1.74,1.85l-.41,2.21h-.4Z"/>
    <path class="cls-18" d="M345.54,130.95c0-.27.04-.75.12-1.28h-.02c-.5,1.01-1.13,1.38-1.81,1.38-.76,0-1.2-.61-1.2-1.38,0-1.54,1.19-3.14,2.92-3.14.35,0,.74.05,1,.13l-.43,2.25c-.16.87-.21,1.6-.19,2.04h-.39ZM346.09,126.96c-.11-.04-.29-.08-.62-.08-1.3,0-2.41,1.26-2.42,2.72,0,.52.16,1.1.87,1.1.78,0,1.66-1.04,1.89-2.24l.28-1.49Z"/>
    <path class="cls-18" d="M348.79,125.49l-.22,1.13h1.1l-.06.33h-1.11l-.47,2.5c-.05.29-.09.5-.09.77,0,.29.14.46.43.46.14,0,.26-.02.35-.04l.04.32c-.12.04-.29.06-.47.06-.58,0-.78-.4-.78-.77,0-.26.04-.52.1-.82l.48-2.48h-.66l.06-.33h.67l.19-1.02.43-.12Z"/>
    <path class="cls-18" d="M352.58,130.7c-.22.14-.67.34-1.31.34-1.1,0-1.5-.83-1.5-1.68,0-1.29.97-2.83,2.26-2.83.78,0,1.12.49,1.12.99,0,1.16-1.4,1.4-2.93,1.37-.05.23-.04.77.06,1.06.17.5.55.74,1.04.74.54,0,.92-.18,1.13-.31l.12.32ZM351.96,126.88c-.78,0-1.43.82-1.67,1.67,1.28.02,2.45-.15,2.45-1,0-.44-.33-.67-.77-.67Z"/>
  </g>
  <text class="cls-38" transform="translate(319.37 83.18)"><tspan class="cls-51" x="0" y="0">R</tspan><tspan class="cls-47" x="4.4" y="0">ear</tspan><tspan class="cls-45" x="15.32" y="0">r</tspan><tspan class="cls-46" x="17.72" y="0">angement </tspan><tspan class="cls-9" x="55.07" y="0">b</tspan><tspan class="cls-6" x="59.79" y="0">r</tspan><tspan class="cls-5" x="62.6" y="0">ea</tspan><tspan class="cls-7" x="71.38" y="0">k</tspan><tspan class="cls-10" x="75.54" y="0">p</tspan><tspan class="cls-9" x="80.3" y="0">oints</tspan></text>
  <line class="cls-53" x1="314.7" y1="101.46" x2="314.7" y2="113.05"/>
  <text class="cls-40" transform="translate(271.03 94.46)"><tspan x="0" y="0">E</tspan><tspan class="cls-90" x="3.97" y="0">x</tspan><tspan x="7.47" y="0">on1</tspan></text>
  <text class="cls-40" transform="translate(416.11 94.46)"><tspan x="0" y="0">E</tspan><tspan class="cls-90" x="3.97" y="0">x</tspan><tspan x="7.47" y="0">on 6</tspan></text>
  <text class="cls-40" transform="translate(471.56 94.46)"><tspan x="0" y="0">E</tspan><tspan class="cls-90" x="3.97" y="0">x</tspan><tspan x="7.47" y="0">on 7</tspan></text>
  <g>
    <path class="cls-61" d="M307.33,47.79l-44.51-.26c-1.7,0-3.08,1.36-3.08,3.06v13.86c0,1.7-1.38,3.07-3.08,3.06l-40.24-.21c-1.68,0-3.04-1.38-3.04-3.06h0c0-1.69-1.37-3.06-3.06-3.06l-10.48-.02"/>
    <polygon class="cls-18" points="196.33 61.15 201.3 59.13 200.12 61.16 201.3 63.19 196.33 61.15"/>
  </g>
  <g>
    <path class="cls-61" d="M199.86,72.77h10.7c1.59,0,2.89-1.29,2.89-2.89h0c0-1.43,1.17-2.6,2.6-2.59h.38"/>
    <polygon class="cls-18" points="196.33 72.77 201.3 74.8 200.12 72.77 201.3 70.74 196.33 72.77"/>
  </g>
  <text class="cls-8" transform="translate(62.54 192.96)"><tspan class="cls-123" x="0" y="0">L</tspan><tspan x="4.58" y="0">egend</tspan></text>
  <g>
    <line class="cls-57" x1="348.1" y1="87" x2="339.23" y2="93.61"/>
    <polygon class="cls-20" points="336.4 95.71 339.18 91.11 339.44 93.45 341.6 94.37 336.4 95.71"/>
  </g>
  <g>
    <line class="cls-57" x1="383.96" y1="87" x2="392.83" y2="93.61"/>
    <polygon class="cls-20" points="395.67 95.71 390.46 94.37 392.62 93.45 392.89 91.11 395.67 95.71"/>
  </g>
  <text class="cls-38" transform="translate(334.22 164.48)"><tspan class="cls-50" x="0" y="0">T</tspan><tspan class="cls-23" x="3.52" y="0">r</tspan><tspan class="cls-46" x="5.92" y="0">anscript </tspan><tspan class="cls-9" x="35.16" y="0">jun</tspan><tspan class="cls-11" x="46.75" y="0">c</tspan><tspan class="cls-9" x="50.61" y="0">tions</tspan></text>
  <g>
    <line class="cls-57" x1="337.04" y1="166.28" x2="328.17" y2="172.88"/>
    <polygon class="cls-20" points="325.34 174.98 328.12 170.38 328.38 172.72 330.54 173.65 325.34 174.98"/>
  </g>
  <g>
    <line class="cls-57" x1="397.88" y1="166.28" x2="406.75" y2="172.88"/>
    <polygon class="cls-20" points="409.58 174.98 404.38 173.65 406.54 172.72 406.8 170.38 409.58 174.98"/>
  </g>
  <g>
    <rect class="cls-60" x="293.55" y="258.49" width="67.81" height="46.13" rx="7.2" ry="7.2"/>
    <text class="cls-39" transform="translate(299.61 286.02)"><tspan class="cls-122" x="0" y="0">G</tspan><tspan x="5.86" y="0">ene </tspan><tspan class="cls-93" x="21.78" y="0">S</tspan><tspan x="26.14" y="0">ymbol &amp; </tspan><tspan class="cls-71" x="0" y="10.8">S</tspan><tspan x="4.41" y="10.8">table </tspan><tspan class="cls-122" x="25.39" y="10.8">G</tspan><tspan x="31.25" y="10.8">ene ID</tspan></text>
  </g>
  <g>
    <rect class="cls-60" x="367.52" y="258.49" width="72.42" height="46.13" rx="7.2" ry="7.2"/>
    <text class="cls-39" transform="translate(373.92 286.02)"><tspan class="cls-103" x="0" y="0">S</tspan><tspan x="4.49" y="0">e</tspan><tspan class="cls-98" x="9" y="0">q</tspan><tspan x="14" y="0">. ID (w/ vrsn)</tspan><tspan class="cls-103" x="0" y="10.8">S</tspan><tspan x="4.49" y="10.8">e</tspan><tspan class="cls-98" x="9" y="10.8">q</tspan><tspan x="14" y="10.8">. i</tspan><tspan class="cls-94" x="19.87" y="10.8">n</tspan><tspan class="cls-66" x="24.83" y="10.8">t</tspan><tspan x="27.75" y="10.8">e</tspan><tspan class="cls-24" x="32.26" y="10.8">r</tspan><tspan class="cls-94" x="35.43" y="10.8">v</tspan><tspan x="39.73" y="10.8">al</tspan></text>
  </g>
  <rect class="cls-52" x="72.99" y="202.11" width="9.81" height="8.5"/>
  <text class="cls-40" transform="translate(91.19 220.51)"><tspan x="0" y="0">Specific </tspan><tspan class="cls-71" x="27.38" y="0">t</tspan><tspan x="29.98" y="0">o </tspan><tspan class="cls-75" x="36.1" y="0">C</tspan><tspan x="40.88" y="0">a</tspan><tspan class="cls-3" x="45.4" y="0">t</tspan><tspan class="cls-105" x="48.01" y="0">egori</tspan><tspan class="cls-109" x="65.28" y="0">c</tspan><tspan x="68.88" y="0">al </tspan><tspan class="cls-85" x="76.88" y="0">F</tspan><tspan x="80.52" y="0">usions</tspan></text>
  <rect class="cls-58" x="72.99" y="213.61" width="9.81" height="8.5"/>
  <rect class="cls-52" x="155.66" y="341.26" width="191.73" height="70.57" rx="7.2" ry="7.2"/>
  <rect class="cls-52" x="353.74" y="341.26" width="170.84" height="70.57" rx="7.2" ry="7.2"/>
  <text class="cls-12" transform="translate(161.39 352.58)"><tspan class="cls-93" x="0" y="0">C</tspan><tspan x="4.92" y="0">ausati</tspan><tspan class="cls-98" x="27.29" y="0">v</tspan><tspan class="cls-79" x="31.31" y="0">e </tspan><tspan class="cls-93" x="37.03" y="0">Ev</tspan><tspan x="45.21" y="0">ent</tspan></text>
  <text class="cls-12" transform="translate(359.04 352.58)"><tspan class="cls-98" x="0" y="0">E</tspan><tspan x="4.16" y="0">viden</tspan><tspan class="cls-31" x="23.92" y="0">c</tspan><tspan x="27.65" y="0">e </tspan><tspan class="cls-74" x="33.36" y="0">D</tspan><tspan x="39.28" y="0">etails</tspan></text>
  <rect class="cls-52" x="162.28" y="359.72" width="83.35" height="45.74" rx="7.2" ry="7.2"/>
  <text class="cls-39" transform="translate(168.25 388.95)"><tspan class="cls-32" x="0" y="0">R</tspan><tspan x="4.88" y="0">ea</tspan><tspan class="cls-32" x="13.72" y="0">r</tspan><tspan class="cls-27" x="16.7" y="0">r</tspan><tspan x="19.6" y="0">angeme</tspan><tspan class="cls-94" x="50.49" y="0">n</tspan><tspan class="cls-78" x="55.45" y="0">t /</tspan><tspan class="cls-70" x="0" y="10.8">P</tspan><tspan class="cls-79" x="4.56" y="10.8">os</tspan><tspan class="cls-108" x="13.07" y="10.8">t</tspan><tspan x="16" y="10.8">-t</tspan><tspan class="cls-27" x="21.74" y="10.8">r</tspan><tspan x="24.64" y="10.8">ansc</tspan><tspan class="cls-32" x="41.57" y="10.8">r</tspan><tspan x="44.55" y="10.8">iptional</tspan></text>
  <rect class="cls-52" x="250.4" y="347.83" width="91.01" height="57.63" rx="7.2" ry="7.2"/>
  <text class="cls-12" transform="translate(255.86 359.66)"><tspan class="cls-98" x="0" y="0">Ev</tspan><tspan x="8.18" y="0">ent </tspan><tspan class="cls-74" x="21.52" y="0">D</tspan><tspan x="27.44" y="0">escription</tspan></text>
  <text class="cls-12" transform="translate(168.25 372.46)"><tspan class="cls-98" x="0" y="0">Ev</tspan><tspan x="8.18" y="0">ent </tspan><tspan class="cls-114" x="21.52" y="0">T</tspan><tspan class="cls-78" x="25.49" y="0">y</tspan><tspan class="cls-63" x="29.46" y="0">p</tspan><tspan x="34.21" y="0">e</tspan></text>
  <text class="cls-39" transform="translate(259.28 379.48)"><tspan class="cls-32" x="0" y="0">R</tspan><tspan x="4.88" y="0">epo</tspan><tspan class="cls-13" x="19.45" y="0">r</tspan><tspan x="22.61" y="0">t with ISCN, </tspan><tspan x="0" y="10.8">HGVS, or equi</tspan><tspan class="cls-94" x="51.35" y="10.8">v</tspan><tspan x="55.64" y="10.8">ale</tspan><tspan class="cls-94" x="66.61" y="10.8">n</tspan><tspan x="71.57" y="10.8">t</tspan></text>
  <rect class="cls-52" x="357.24" y="360.63" width="68.94" height="44.83" rx="7.2" ry="7.2"/>
  <text class="cls-12" transform="translate(362.69 372.46)"><tspan class="cls-80" x="0" y="0">F</tspan><tspan x="3.94" y="0">usion eviden</tspan><tspan class="cls-31" x="49.07" y="0">c</tspan><tspan x="52.8" y="0">e</tspan></text>
  <text class="cls-39" transform="translate(364.98 386.75)"><tspan x="0" y="0">Obse</tspan><tspan class="cls-25" x="19.39" y="0">r</tspan><tspan class="cls-112" x="22.56" y="0">v</tspan><tspan x="26.8" y="0">ed / </tspan><tspan class="cls-83" x="0" y="10.8">I</tspan><tspan x="2.24" y="10.8">n</tspan><tspan class="cls-121" x="7.24" y="10.8">f</tspan><tspan x="9.75" y="10.8">e</tspan><tspan class="cls-32" x="14.26" y="10.8">r</tspan><tspan class="cls-112" x="17.24" y="10.8">r</tspan><tspan x="20.09" y="10.8">ed</tspan></text>
  <rect class="cls-52" x="435.22" y="345.67" width="83.8" height="59.79" rx="7.2" ry="7.2"/>
  <text class="cls-12" transform="translate(442.33 359.03)"><tspan x="0" y="0">Molecular </tspan><tspan class="cls-122" x="37.65" y="0">A</tspan><tspan x="42.81" y="0">ssay</tspan></text>
  <text class="cls-39" transform="translate(444.48 399.02)"><tspan class="cls-103" x="0" y="0">M</tspan><tspan x="7.29" y="0">ethod URI</tspan></text>
  <text class="cls-39" transform="translate(444.48 387.15)"><tspan class="cls-77" x="0" y="0">C</tspan><tspan x="5.12" y="0">o</tspan><tspan class="cls-94" x="10.06" y="0">n</tspan><tspan x="15.02" y="0">t</tspan><tspan class="cls-112" x="18" y="0">r</tspan><tspan x="20.85" y="0">olled ID</tspan></text>
  <text class="cls-39" transform="translate(444.48 374.62)"><tspan class="cls-36" x="0" y="0">A</tspan><tspan x="5.45" y="0">ss</tspan><tspan class="cls-93" x="12.58" y="0">a</tspan><tspan x="16.85" y="0">y name</tspan></text>
</svg>