<svg id="Layer_1" data-name="Layer 1" xmlns="http://www.w3.org/2000/svg" viewBox="0 0 533.25 237.96"><defs><style>.cls-1,.cls-3{font-size:14px;}.cls-1,.cls-16,.cls-18,.cls-27,.cls-3,.cls-46,.cls-5,.cls-65,.cls-84,.cls-88{fill:#231f20;}.cls-1,.cls-18,.cls-27,.cls-3,.cls-5{font-family:MyriadPro-Regular, Myriad Pro;}.cls-1{letter-spacing:-0.01em;}.cls-2{letter-spacing:0em;}.cls-4,.cls-73,.cls-74,.cls-75,.cls-76,.cls-77,.cls-83,.cls-86{fill:none;}.cls-26,.cls-4{stroke:#a6a8ab;}.cls-23,.cls-26,.cls-4,.cls-73,.cls-74,.cls-75,.cls-76,.cls-77,.cls-86{stroke-miterlimit:10;}.cls-5,.cls-84{font-size:11px;}.cls-6{letter-spacing:0em;}.cls-7{letter-spacing:0em;}.cls-8{letter-spacing:0.01em;}.cls-9{letter-spacing:0em;}.cls-10{letter-spacing:0em;}.cls-11{letter-spacing:-0.01em;}.cls-12{letter-spacing:0.01em;}.cls-13{letter-spacing:-0.02em;}.cls-14{letter-spacing:-0.01em;}.cls-15{letter-spacing:0.01em;}.cls-16,.cls-18,.cls-27,.cls-46,.cls-88{font-size:9px;}.cls-16,.cls-84{font-family:MyriadPro-It, Myriad Pro;}.cls-16,.cls-46,.cls-84,.cls-88{font-style:italic;}.cls-17{letter-spacing:0em;}.cls-19{letter-spacing:0em;}.cls-20{letter-spacing:0em;}.cls-21{letter-spacing:-0.01em;}.cls-22,.cls-27{letter-spacing:0em;}.cls-23{fill:#94d4d3;}.cls-23,.cls-77{stroke:#58595b;}.cls-24{letter-spacing:0.02em;}.cls-25{letter-spacing:-0.01em;}.cls-26{fill:#fcf8d0;}.cls-28{letter-spacing:-0.01em;}.cls-29{letter-spacing:0em;}.cls-30{fill:#a6a8ab;}.cls-31{letter-spacing:-0.05em;}.cls-32{letter-spacing:-0.01em;}.cls-33{letter-spacing:0.01em;}.cls-34{letter-spacing:0.02em;}.cls-35{letter-spacing:-0.03em;}.cls-36{letter-spacing:0em;}.cls-37{letter-spacing:-0.04em;}.cls-38{letter-spacing:-0.01em;}.cls-39{letter-spacing:0em;}.cls-40{letter-spacing:-0.01em;}.cls-41{letter-spacing:0.01em;}.cls-42{letter-spacing:-0.01em;}.cls-43{letter-spacing:-0.01em;}.cls-44{letter-spacing:-0.09em;}.cls-45{letter-spacing:0.02em;}.cls-46,.cls-88{font-family:MyriadPro-LightIt, Myriad Pro;font-weight:300;}.cls-47{letter-spacing:0.01em;}.cls-48{letter-spacing:0.02em;}.cls-49{letter-spacing:-0.01em;}.cls-50{letter-spacing:0.01em;}.cls-51{letter-spacing:0.01em;}.cls-52{letter-spacing:0em;}.cls-53{letter-spacing:0em;}.cls-54{letter-spacing:-0.02em;}.cls-55{letter-spacing:-0.06em;}.cls-56{letter-spacing:-0.01em;}.cls-57{fill:#ec1e24;}.cls-58{letter-spacing:-0.05em;}.cls-59{letter-spacing:-0.02em;}.cls-60{letter-spacing:0.01em;}.cls-61{letter-spacing:0.02em;}.cls-62{letter-spacing:0em;}.cls-63{letter-spacing:-0.02em;}.cls-64{letter-spacing:0.02em;}.cls-66{letter-spacing:0em;}.cls-67{letter-spacing:0.01em;}.cls-68{letter-spacing:-0.03em;}.cls-69{letter-spacing:0.03em;}.cls-70{letter-spacing:0.03em;}.cls-71{letter-spacing:0em;}.cls-72{fill:#4068b1;}.cls-73{stroke:#4068b1;}.cls-74{stroke:#ec1e24;}.cls-75,.cls-76,.cls-83{stroke:#231f20;}.cls-75,.cls-83,.cls-86{stroke-width:0.5px;}.cls-76{stroke-width:0.2px;}.cls-77{stroke-width:0.75px;}.cls-78{fill:#58595b;}.cls-79{letter-spacing:0em;}.cls-80{letter-spacing:-0.02em;}.cls-81{letter-spacing:-0.01em;}.cls-82{letter-spacing:-0.02em;}.cls-83{stroke-miterlimit:1;stroke-dasharray:1 2;}.cls-85{letter-spacing:-0.03em;}.cls-86{stroke:#00adee;}.cls-87{fill:#00adee;}.cls-88{letter-spacing:-0.03em;}.cls-89{letter-spacing:-0.01em;}.cls-90{letter-spacing:0em;}.cls-91{letter-spacing:-0.02em;}</style></defs><text class="cls-1" transform="translate(0 11.72)">A<tspan class="cls-2" x="8.44" y="0">)</tspan></text><text class="cls-3" transform="translate(236.79 11.72)">B)</text><rect class="cls-4" x="22.89" y="21.23" width="82.44" height="139.22" rx="7.2"/><text class="cls-5" transform="translate(16.17 11.76)"><tspan class="cls-6">S</tspan><tspan class="cls-7" x="5.39" y="0">tru</tspan><tspan class="cls-8" x="18.69" y="0">c</tspan><tspan x="23.76" y="0">tu</tspan><tspan class="cls-9" x="33.46" y="0">r</tspan><tspan x="37" y="0">al Eleme</tspan><tspan class="cls-10" x="75.44" y="0">n</tspan><tspan x="81.5" y="0">ts (Exp</tspan><tspan class="cls-11" x="111.71" y="0">r</tspan><tspan x="115.2" y="0">essed </tspan><tspan class="cls-12" x="143.47" y="0">G</tspan><tspan x="150.63" y="0">ene </tspan><tspan class="cls-13" x="170.09" y="0">P</tspan><tspan class="cls-14" x="175.77" y="0">r</tspan><tspan x="179.25" y="0">odu</tspan><tspan class="cls-15" x="197.56" y="0">c</tspan><tspan class="cls-7" x="202.63" y="0">t)</tspan></text><text class="cls-16" transform="translate(28.17 32.52)"><tspan class="cls-17">G</tspan><tspan x="5.63" y="0">ene</tspan></text><rect class="cls-4" x="29.91" y="40.57" width="67.81" height="32.26" rx="7.2"/><text class="cls-18" transform="translate(35.1 53.33)"><tspan class="cls-19">G</tspan><tspan class="cls-20" x="5.86" y="0">ene </tspan><tspan class="cls-21" x="21.78" y="0">S</tspan><tspan x="26.14" y="0">ymbol &amp;</tspan></text><text class="cls-18" transform="translate(36.16 65.84)"><tspan class="cls-22">S</tspan><tspan x="4.41" y="0">table </tspan><tspan class="cls-19" x="25.39" y="0">G</tspan><tspan class="cls-20" x="31.25" y="0">ene ID</tspan></text><rect class="cls-23" x="29.91" y="93.34" width="67.81" height="19.17" rx="7.2"/><text class="cls-18" transform="translate(45.64 106.03)">Un<tspan class="cls-24" x="10.82" y="0">k</tspan><tspan x="15.19" y="0">n</tspan><tspan class="cls-25" x="20.19" y="0">o</tspan><tspan x="25.06" y="0">wn</tspan></text><rect class="cls-26" x="29.91" y="133" width="67.81" height="19.17" rx="7.2"/><text class="cls-27" transform="translate(57.78 145.36)">A<tspan class="cls-28" x="5.48" y="0">n</tspan><tspan class="cls-29" x="10.36" y="0">y</tspan></text><text class="cls-18" transform="translate(52.51 85.65)">– OR –</text><text class="cls-18" transform="translate(52.24 125.32)">– OR –</text><rect class="cls-4" x="111.36" y="21.23" width="87.21" height="52.45" rx="7.2"/><rect class="cls-4" x="301.98" y="10.5" width="171.43" height="59.09"/><path class="cls-30" d="M205.66,188.54V232H62.75V188.54H205.66m1-1H61.75V233H206.66V187.54Z" transform="translate(-7.34 -3.44)"/><rect class="cls-4" x="376.87" y="18.76" width="88.29" height="44.94"/><text class="cls-16" transform="translate(115.1 32.52)"><tspan class="cls-31">T</tspan><tspan class="cls-32" x="3.81" y="0">r</tspan><tspan class="cls-29" x="6.53" y="0">anscript </tspan><tspan class="cls-33" x="37.3" y="0">S</tspan><tspan x="41.59" y="0">egment</tspan></text><text class="cls-16" transform="translate(310.07 25.11)"><tspan class="cls-17">B</tspan><tspan class="cls-29" x="4.7" y="0">ounda</tspan><tspan class="cls-34" x="28.36" y="0">r</tspan><tspan x="31.4" y="0">y</tspan></text><text class="cls-16" transform="translate(380.3 30.49)"><tspan class="cls-17">G</tspan><tspan x="5.63" y="0">enomic </tspan><tspan class="cls-35" x="33.99" y="0">L</tspan><tspan class="cls-36" x="37.74" y="0">o</tspan><tspan class="cls-32" x="42.46" y="0">c</tspan><tspan x="46.13" y="0">ation</tspan></text><text class="cls-18" transform="translate(120.41 46.58)"><tspan class="cls-37">T</tspan><tspan class="cls-38" x="4.07" y="0">r</tspan><tspan x="6.97" y="0">ansc</tspan><tspan class="cls-39" x="23.89" y="0">r</tspan><tspan x="26.87" y="0">ipt ID</tspan></text><text class="cls-18" transform="translate(314.36 44.04)">E<tspan class="cls-32" x="4.43" y="0">x</tspan><tspan class="cls-29" x="8.46" y="0">on number</tspan></text><text class="cls-18" transform="translate(314.36 55.2)">E<tspan class="cls-32" x="4.43" y="0">x</tspan><tspan class="cls-29" x="8.46" y="0">on o</tspan><tspan class="cls-40" x="25.25" y="0">ff</tspan><tspan x="30.41" y="0">set</tspan></text><text class="cls-18" transform="translate(120.91 103.49)"><tspan class="cls-41">S</tspan><tspan x="4.49" y="0">equen</tspan><tspan class="cls-42" x="28.53" y="0">c</tspan><tspan x="32.51" y="0">e (cDN</tspan><tspan class="cls-43" x="57.43" y="0">A</tspan><tspan x="62.86" y="0">)</tspan></text><text class="cls-18" transform="translate(120.4 57.71)">5<tspan class="cls-44" x="4.62" y="0">’</tspan><tspan class="cls-29" x="5.71" y="0"> </tspan><tspan class="cls-22" x="7.61" y="0">e</tspan><tspan class="cls-32" x="12.1" y="0">x</tspan><tspan class="cls-29" x="16.13" y="0">on bounda</tspan><tspan class="cls-45" x="57.4" y="0">r</tspan><tspan class="cls-29" x="60.57" y="0">y*</tspan></text><text class="cls-18" transform="translate(120.4 68.84)">3<tspan class="cls-44" x="4.62" y="0">’</tspan><tspan class="cls-29" x="5.71" y="0"> </tspan><tspan class="cls-22" x="7.61" y="0">e</tspan><tspan class="cls-32" x="12.1" y="0">x</tspan><tspan class="cls-29" x="16.13" y="0">on bounda</tspan><tspan class="cls-45" x="57.4" y="0">r</tspan><tspan class="cls-29" x="60.57" y="0">y*</tspan></text><text class="cls-46" transform="translate(23.89 171.98)">*<tspan class="cls-47" x="3.52" y="0">O</tspan><tspan class="cls-20" x="9.4" y="0">ne or both of 5’ and 3’ bounda</tspan><tspan class="cls-48" x="111.46" y="0">r</tspan><tspan class="cls-29" x="114.22" y="0">y may be specified</tspan></text><rect class="cls-4" x="111.49" y="78.96" width="88.01" height="31.44" rx="7.2"/><text class="cls-16" transform="translate(116.63 90.56)">Lin<tspan class="cls-49" x="10.84" y="0">k</tspan><tspan x="14.82" y="0">er </tspan><tspan class="cls-50" x="23.4" y="0">S</tspan><tspan class="cls-29" x="27.68" y="0">equen</tspan><tspan class="cls-43" x="50.1" y="0">c</tspan><tspan x="53.83" y="0">e</tspan></text><text class="cls-18" transform="translate(120.39 141.57)">Chr <tspan class="cls-51" x="15.07" y="0">S</tspan><tspan x="19.56" y="0">eq ID (w/ vrsn)</tspan></text><text class="cls-18" transform="translate(120.92 152.52)"><tspan class="cls-51">S</tspan><tspan x="4.49" y="0">equen</tspan><tspan class="cls-42" x="28.53" y="0">c</tspan><tspan x="32.51" y="0">e </tspan><tspan class="cls-50" x="38.92" y="0">I</tspan><tspan class="cls-52" x="41.17" y="0">n</tspan><tspan class="cls-42" x="46.12" y="0">t</tspan><tspan x="49.05" y="0">e</tspan><tspan class="cls-45" x="53.56" y="0">r</tspan><tspan class="cls-53" x="56.73" y="0">v</tspan><tspan x="61.02" y="0">al</tspan></text><text class="cls-18" transform="translate(384.46 46.3)">Chr <tspan class="cls-51" x="15.07" y="0">S</tspan><tspan x="19.56" y="0">eq ID (w/ vrsn)</tspan></text><text class="cls-18" transform="translate(384.99 57.25)"><tspan class="cls-51">S</tspan><tspan x="4.49" y="0">equen</tspan><tspan class="cls-42" x="28.53" y="0">c</tspan><tspan x="32.51" y="0">e </tspan><tspan class="cls-54" x="38.92" y="0">P</tspan><tspan x="43.49" y="0">osition</tspan></text><rect class="cls-4" x="111.49" y="116.11" width="88.01" height="44.34" rx="7.2"/><text class="cls-16" transform="translate(115.69 127.54)"><tspan class="cls-55">T</tspan><tspan class="cls-29" x="3.74" y="0">empla</tspan><tspan class="cls-52" x="26.57" y="0">t</tspan><tspan x="29.35" y="0">ed Lin</tspan><tspan class="cls-56" x="50.63" y="0">k</tspan><tspan x="54.61" y="0">er</tspan></text><rect class="cls-57" x="407.7" y="96.54" width="28.52" height="9.48"/><rect class="cls-57" x="451.95" y="96.54" width="28.52" height="9.48"/><rect class="cls-57" x="480.47" y="99.53" width="22.85" height="3.5"/><rect class="cls-57" x="407.08" y="160.96" width="28.52" height="9.48"/><rect class="cls-57" x="435.6" y="160.96" width="28.52" height="9.48"/><rect class="cls-57" x="464.12" y="163.95" width="29.13" height="3.5"/><text class="cls-16" transform="translate(220.42 92.83)">DNA</text><text class="cls-46" transform="translate(241.66 157.4)"><tspan class="cls-58">T</tspan><tspan class="cls-59" x="3.52" y="0">r</tspan><tspan x="5.92" y="0">anscript </tspan><tspan class="cls-60" x="35.16" y="0">S</tspan><tspan x="39.21" y="0">egment 1</tspan></text><text class="cls-46" transform="translate(405.06 157.4)"><tspan class="cls-58">T</tspan><tspan class="cls-59" x="3.52" y="0">r</tspan><tspan x="5.92" y="0">anscript </tspan><tspan class="cls-60" x="35.16" y="0">S</tspan><tspan x="39.21" y="0">egment 2</tspan></text><text class="cls-46" transform="translate(371.38 196.85)">5’ <tspan class="cls-60" x="7.18" y="0">S</tspan><tspan x="11.23" y="0">egment Bounda</tspan><tspan class="cls-61" x="66.48" y="0">r</tspan><tspan class="cls-62" x="69.24" y="0">y</tspan><tspan x="7.1" y="10.8">(E</tspan><tspan class="cls-63" x="13.45" y="10.8">x</tspan><tspan x="16.96" y="10.8">on Numbe</tspan><tspan class="cls-64" x="53.25" y="10.8">r</tspan><tspan x="56" y="10.8">: 6)</tspan></text><path class="cls-65" d="M398.89,117.93h-2l-.58,1.83a1.55,1.55,0,0,1,.31,0,2,2,0,0,1,.91.24,1.4,1.4,0,0,1,.73,1.28,2.2,2.2,0,0,1-2.22,2.26,2,2,0,0,1-1.09-.31l.16-.32a2.13,2.13,0,0,0,1,.27,1.77,1.77,0,0,0,1.71-1.79c0-.69-.32-1.26-1.4-1.26-.21,0-.39,0-.61,0l.79-2.57H399Z" transform="translate(-7.34 -3.44)"/><path class="cls-65" d="M400.93,117.24a13,13,0,0,1-1,2l-.31,0a16.08,16.08,0,0,0,.82-1.91Z" transform="translate(-7.34 -3.44)"/><path class="cls-65" d="M403.51,117.41a6,6,0,0,1,1.11-.11,1.72,1.72,0,0,1,1.35.47,1.32,1.32,0,0,1,.26.85,1.72,1.72,0,0,1-1.36,1.56v0a1.34,1.34,0,0,1,1,1.36,1.82,1.82,0,0,1-.66,1.39,2.74,2.74,0,0,1-1.77.49,5.74,5.74,0,0,1-1.09-.07Zm-.67,5.64a5.32,5.32,0,0,0,.69,0c1,0,1.94-.41,1.94-1.56a1.23,1.23,0,0,0-1.39-1.18h-.73Zm.58-3h.63c1,0,1.75-.54,1.75-1.41,0-.67-.49-1-1.26-1a2.81,2.81,0,0,0-.68.06Z" transform="translate(-7.34 -3.44)"/><path class="cls-65" d="M410.57,120.8c0,1.18-.87,2.71-2.29,2.71a1.62,1.62,0,0,1-1.6-1.77A2.59,2.59,0,0,1,409,119,1.61,1.61,0,0,1,410.57,120.8Zm-3.47.91a1.29,1.29,0,0,0,1.23,1.45c1,0,1.81-1.2,1.81-2.37a1.3,1.3,0,0,0-1.2-1.46C407.87,119.33,407.1,120.52,407.1,121.71Z" transform="translate(-7.34 -3.44)"/><path class="cls-65" d="M415.09,119.09l-.6,3.16a9.67,9.67,0,0,0-.16,1.16h-.39l.14-.89h0a2,2,0,0,1-1.55,1c-.47,0-1.16-.19-1.16-1.28a3.24,3.24,0,0,1,.08-.69l.47-2.45h.4l-.47,2.46a3.65,3.65,0,0,0-.08.68c0,.55.23.91.86.91a2,2,0,0,0,1.64-1.7l.44-2.35Z" transform="translate(-7.34 -3.44)"/><path class="cls-65" d="M415.73,123.41l.59-3.16c.09-.44.15-.82.19-1.16h.38l-.13.92h0a2,2,0,0,1,1.67-1,1.06,1.06,0,0,1,1.08,1.2,4.57,4.57,0,0,1-.08.69l-.48,2.53h-.4l.48-2.57a3.66,3.66,0,0,0,.07-.59c0-.52-.21-.9-.83-.9a2.15,2.15,0,0,0-1.74,1.84l-.41,2.22Z" transform="translate(-7.34 -3.44)"/><path class="cls-65" d="M424.68,117l-1,5.21a10.48,10.48,0,0,0-.17,1.18h-.37l.14-1h0a2,2,0,0,1-1.64,1.06c-.89,0-1.26-.76-1.26-1.54a2.88,2.88,0,0,1,2.64-3,2.11,2.11,0,0,1,.88.17l.39-2.14Zm-.89,2.53a1.45,1.45,0,0,0-.83-.21,2.47,2.47,0,0,0-2.19,2.59c0,.53.15,1.23,1,1.23a2.17,2.17,0,0,0,1.74-1.89Z" transform="translate(-7.34 -3.44)"/><path class="cls-65" d="M427.79,123.41a9.72,9.72,0,0,1,.12-1.28h0a2,2,0,0,1-1.81,1.38,1.23,1.23,0,0,1-1.2-1.38A3.08,3.08,0,0,1,427.8,119a4.21,4.21,0,0,1,1,.12l-.43,2.25a9.94,9.94,0,0,0-.19,2Zm.55-4a1.81,1.81,0,0,0-.62-.08,2.64,2.64,0,0,0-2.42,2.72c0,.52.16,1.1.87,1.1s1.66-1,1.89-2.25Z" transform="translate(-7.34 -3.44)"/><path class="cls-65" d="M429.43,123.41l.56-2.92c.09-.51.16-1,.21-1.4h.37c0,.3-.08.61-.14,1h0a1.55,1.55,0,0,1,1.29-1.07l.2,0-.08.41a.56.56,0,0,0-.2,0c-.54,0-1.23.81-1.43,1.91l-.4,2.1Z" transform="translate(-7.34 -3.44)"/><path class="cls-65" d="M432.71,119.09l.53,2.6c.11.53.18.85.23,1.21h0c.12-.29.27-.61.5-1.09l1.31-2.72h.44l-1.68,3.39a7.75,7.75,0,0,1-1.37,2.15,2.69,2.69,0,0,1-1.18.76l-.12-.35a2.82,2.82,0,0,0,.83-.47,3.75,3.75,0,0,0,.91-1.15.22.22,0,0,0,0-.19l-.87-4.14Z" transform="translate(-7.34 -3.44)"/><path class="cls-65" d="M384.17,134a4,4,0,0,1-1.55.31,2.31,2.31,0,0,1-2-.82,2.66,2.66,0,0,1-.52-1.7,3.89,3.89,0,0,1,1.15-2.75,3.49,3.49,0,0,1,2.39-.92,2.47,2.47,0,0,1,1.32.29l-.15.34a2.55,2.55,0,0,0-1.27-.27,3,3,0,0,0-2.09.89,3.56,3.56,0,0,0-.93,2.38,2,2,0,0,0,2.17,2.2,2.8,2.8,0,0,0,1.08-.21l.41-2.14h-1.41l.07-.35h1.81Z" transform="translate(-7.34 -3.44)"/><path class="cls-65" d="M388.21,134a2.4,2.4,0,0,1-1.3.34c-1.1,0-1.5-.83-1.5-1.69,0-1.28,1-2.82,2.26-2.82a1,1,0,0,1,1.11,1c0,1.16-1.4,1.39-2.92,1.37a2.29,2.29,0,0,0,.06,1.06,1,1,0,0,0,1,.74,2.2,2.2,0,0,0,1.14-.31Zm-.62-3.82c-.78,0-1.43.82-1.67,1.66,1.28,0,2.45-.15,2.45-1C388.37,130.36,388,130.14,387.59,130.14Z" transform="translate(-7.34 -3.44)"/><path class="cls-65" d="M389.22,134.21l.59-3.16a10.66,10.66,0,0,0,.19-1.16h.38l-.13.92h0a2,2,0,0,1,1.67-1A1.06,1.06,0,0,1,393,131a4.72,4.72,0,0,1-.08.69l-.48,2.53h-.4l.48-2.57a3.66,3.66,0,0,0,.07-.59c0-.52-.21-.9-.83-.9A2.15,2.15,0,0,0,390,132l-.4,2.22Z" transform="translate(-7.34 -3.44)"/><path class="cls-65" d="M397.75,131.6c0,1.18-.86,2.71-2.28,2.71a1.62,1.62,0,0,1-1.6-1.77,2.59,2.59,0,0,1,2.28-2.75A1.61,1.61,0,0,1,397.75,131.6Zm-3.46.91a1.29,1.29,0,0,0,1.23,1.45c1,0,1.81-1.2,1.81-2.37a1.3,1.3,0,0,0-1.21-1.46C395.06,130.13,394.29,131.32,394.29,132.51Z" transform="translate(-7.34 -3.44)"/><path class="cls-65" d="M398.37,134.21l.59-3.16c.09-.44.14-.82.19-1.16h.38l-.14.87h0a1.88,1.88,0,0,1,1.56-1c.64,0,1,.4,1,1.05a1.86,1.86,0,0,1,1.64-1.05,1,1,0,0,1,1.05,1.11,4,4,0,0,1-.07.73l-.49,2.58h-.41l.49-2.58a2.65,2.65,0,0,0,.06-.58c0-.56-.19-.9-.79-.9a1.89,1.89,0,0,0-1.57,1.68l-.45,2.38H401l.5-2.64a2.24,2.24,0,0,0,.07-.55c0-.4-.11-.87-.8-.87a2.07,2.07,0,0,0-1.6,1.74l-.43,2.32Z" transform="translate(-7.34 -3.44)"/><path class="cls-65" d="M405.51,134.21l.83-4.32h.4l-.82,4.32Zm.94-5.57a.35.35,0,0,1,.33-.36.33.33,0,0,1,.32.36.35.35,0,0,1-.35.36A.31.31,0,0,1,406.45,128.64Z" transform="translate(-7.34 -3.44)"/><path class="cls-65" d="M410.2,134a2.74,2.74,0,0,1-1.27.29,1.47,1.47,0,0,1-1.56-1.6,2.78,2.78,0,0,1,2.54-2.91,1.77,1.77,0,0,1,.91.22l-.14.34a1.88,1.88,0,0,0-.83-.19,2.34,2.34,0,0,0-2.06,2.47c0,.77.36,1.32,1.21,1.32a2.41,2.41,0,0,0,1.09-.28Z" transform="translate(-7.34 -3.44)"/><path class="cls-65" d="M416.71,134a3.9,3.9,0,0,1-1.56.31,2.23,2.23,0,0,1-2.33-2.49A4,4,0,0,1,414,129a3.29,3.29,0,0,1,2.32-.93,2.16,2.16,0,0,1,1.31.32l-.17.32a2.44,2.44,0,0,0-1.24-.28,2.86,2.86,0,0,0-2,.81,3.65,3.65,0,0,0-1,2.53c0,1.15.47,2.21,2,2.21a3.09,3.09,0,0,0,1.39-.3Z" transform="translate(-7.34 -3.44)"/><path class="cls-65" d="M421.39,131.6c0,1.18-.87,2.71-2.29,2.71a1.62,1.62,0,0,1-1.6-1.77,2.59,2.59,0,0,1,2.29-2.75A1.61,1.61,0,0,1,421.39,131.6Zm-3.47.91a1.3,1.3,0,0,0,1.24,1.45c1,0,1.8-1.2,1.8-2.37a1.3,1.3,0,0,0-1.2-1.46C418.7,130.13,417.92,131.32,417.92,132.51Z" transform="translate(-7.34 -3.44)"/><path class="cls-65" d="M425.89,131.6c0,1.18-.87,2.71-2.29,2.71a1.62,1.62,0,0,1-1.6-1.77,2.59,2.59,0,0,1,2.29-2.75A1.61,1.61,0,0,1,425.89,131.6Zm-3.47.91a1.3,1.3,0,0,0,1.24,1.45c1,0,1.8-1.2,1.8-2.37a1.3,1.3,0,0,0-1.2-1.46C423.2,130.13,422.42,131.32,422.42,132.51Z" transform="translate(-7.34 -3.44)"/><path class="cls-65" d="M426.5,134.21l.56-2.92c.09-.51.16-1,.21-1.4h.37c0,.3-.08.61-.14,1h0a1.56,1.56,0,0,1,1.29-1.07l.2,0-.08.41a.56.56,0,0,0-.2,0c-.54,0-1.23.81-1.43,1.91l-.4,2.1Z" transform="translate(-7.34 -3.44)"/><path class="cls-65" d="M433.31,127.82l-1,5.21c-.07.39-.14.82-.17,1.18h-.37l.15-1h0a2,2,0,0,1-1.65,1.06c-.89,0-1.26-.76-1.26-1.54a2.88,2.88,0,0,1,2.65-3,2.1,2.1,0,0,1,.87.17l.4-2.14Zm-.88,2.53a1.52,1.52,0,0,0-.84-.21,2.47,2.47,0,0,0-2.18,2.59c0,.53.15,1.23.95,1.23a2.18,2.18,0,0,0,1.74-1.89Z" transform="translate(-7.34 -3.44)"/><path class="cls-65" d="M433.54,134.21l.82-4.32h.41l-.83,4.32Zm.93-5.57a.36.36,0,0,1,.34-.36.33.33,0,0,1,.32.36.36.36,0,0,1-.35.36A.32.32,0,0,1,434.47,128.64Z" transform="translate(-7.34 -3.44)"/><path class="cls-65" d="M435.39,134.21l.59-3.16c.09-.44.15-.82.19-1.16h.38l-.13.92h0a2,2,0,0,1,1.67-1,1.06,1.06,0,0,1,1.08,1.2,4.72,4.72,0,0,1-.08.69l-.48,2.53h-.4l.48-2.57a3.66,3.66,0,0,0,.07-.59c0-.52-.21-.9-.83-.9A2.15,2.15,0,0,0,436.2,132l-.41,2.22Z" transform="translate(-7.34 -3.44)"/><path class="cls-65" d="M442.92,134.21a11.85,11.85,0,0,1,.12-1.28h0a2,2,0,0,1-1.81,1.38,1.24,1.24,0,0,1-1.19-1.38,3.07,3.07,0,0,1,2.91-3.14,4.21,4.21,0,0,1,1,.12l-.43,2.25a9.94,9.94,0,0,0-.19,2.05Zm.55-4a1.51,1.51,0,0,0-.62-.08,2.64,2.64,0,0,0-2.42,2.72c0,.52.16,1.1.87,1.1s1.66-1,1.89-2.25Z" transform="translate(-7.34 -3.44)"/><path class="cls-65" d="M446.17,128.75l-.21,1.14h1.09l-.06.33h-1.11l-.46,2.5a3.59,3.59,0,0,0-.09.78.4.4,0,0,0,.43.46,1.13,1.13,0,0,0,.35-.05l0,.32a1.29,1.29,0,0,1-.47.07.72.72,0,0,1-.78-.78,4.16,4.16,0,0,1,.1-.82l.48-2.48h-.66l.06-.33h.67l.19-1Z" transform="translate(-7.34 -3.44)"/><path class="cls-65" d="M450,134a2.4,2.4,0,0,1-1.3.34,1.49,1.49,0,0,1-1.51-1.69c0-1.28,1-2.82,2.26-2.82a1,1,0,0,1,1.12,1c0,1.16-1.41,1.39-2.93,1.37a2.45,2.45,0,0,0,.07,1.06,1,1,0,0,0,1,.74,2.12,2.12,0,0,0,1.13-.31Zm-.62-3.82c-.78,0-1.43.82-1.67,1.66,1.27,0,2.45-.15,2.45-1C450.12,130.36,449.78,130.14,449.34,130.14Z" transform="translate(-7.34 -3.44)"/><text class="cls-46" transform="translate(85.84 211.85)">Specific <tspan class="cls-66" x="27.38" y="0">t</tspan><tspan x="29.98" y="0">o </tspan><tspan class="cls-67" x="36.1" y="0">A</tspan><tspan x="40.99" y="0">ssa</tspan><tspan class="cls-25" x="51.75" y="0">y</tspan><tspan class="cls-20" x="55.34" y="0">ed </tspan><tspan class="cls-68" x="65.29" y="0">F</tspan><tspan x="68.94" y="0">usions</tspan></text><path class="cls-65" d="M485.24,122.83a1.89,1.89,0,0,0,1,.32,1.55,1.55,0,0,0,1.64-1.57,1.17,1.17,0,0,0-1.29-1.19h-.33l.06-.34h.36c.52,0,1.54-.43,1.54-1.36a.79.79,0,0,0-.9-.87,1.71,1.71,0,0,0-1,.35l-.15-.32a2.29,2.29,0,0,1,1.25-.39,1.15,1.15,0,0,1,1.28,1.18,1.7,1.7,0,0,1-1.29,1.56v0a1.32,1.32,0,0,1,1,1.35,2,2,0,0,1-2.11,1.94,1.79,1.79,0,0,1-1.16-.36Z" transform="translate(-7.34 -3.44)"/><path class="cls-65" d="M491,117.24a14.14,14.14,0,0,1-1,2l-.32,0a14.54,14.54,0,0,0,.83-1.91Z" transform="translate(-7.34 -3.44)"/><path class="cls-65" d="M493.56,117.41a6.16,6.16,0,0,1,1.12-.11,1.72,1.72,0,0,1,1.34.47,1.27,1.27,0,0,1,.26.85,1.72,1.72,0,0,1-1.36,1.56v0a1.35,1.35,0,0,1,1,1.36,1.83,1.83,0,0,1-.67,1.39,2.73,2.73,0,0,1-1.76.49,5.74,5.74,0,0,1-1.09-.07Zm-.66,5.64a5.17,5.17,0,0,0,.68,0c1,0,1.95-.41,1.95-1.56a1.23,1.23,0,0,0-1.39-1.18h-.74Zm.57-3h.63c1,0,1.76-.54,1.76-1.41,0-.67-.5-1-1.26-1a2.7,2.7,0,0,0-.68.06Z" transform="translate(-7.34 -3.44)"/><path class="cls-65" d="M500.62,120.8c0,1.18-.86,2.71-2.29,2.71a1.62,1.62,0,0,1-1.6-1.77A2.59,2.59,0,0,1,499,119,1.61,1.61,0,0,1,500.62,120.8Zm-3.47.91a1.29,1.29,0,0,0,1.24,1.45c1,0,1.81-1.2,1.81-2.37a1.3,1.3,0,0,0-1.21-1.46C497.93,119.33,497.15,120.52,497.15,121.71Z" transform="translate(-7.34 -3.44)"/><path class="cls-65" d="M505.15,119.09l-.61,3.16c-.08.43-.13.82-.16,1.16H504l.13-.89h0a2,2,0,0,1-1.55,1c-.46,0-1.16-.19-1.16-1.28a4.06,4.06,0,0,1,.08-.69l.47-2.45h.41l-.47,2.46a3,3,0,0,0-.08.68c0,.55.22.91.85.91a2,2,0,0,0,1.64-1.7l.44-2.35Z" transform="translate(-7.34 -3.44)"/><path class="cls-65" d="M505.79,123.41l.59-3.16c.09-.44.14-.82.19-1.16H507l-.14.92h0a2,2,0,0,1,1.67-1,1.06,1.06,0,0,1,1.08,1.2,3.63,3.63,0,0,1-.09.69l-.47,2.53h-.41l.49-2.57a5.35,5.35,0,0,0,.06-.59c0-.52-.21-.9-.83-.9a2.13,2.13,0,0,0-1.73,1.84l-.41,2.22Z" transform="translate(-7.34 -3.44)"/><path class="cls-65" d="M514.73,117l-1,5.21c-.07.39-.14.82-.17,1.18h-.37l.15-1h0a2,2,0,0,1-1.65,1.06c-.89,0-1.26-.76-1.26-1.54a2.88,2.88,0,0,1,2.65-3,2.1,2.1,0,0,1,.87.17l.4-2.14Zm-.88,2.53a1.52,1.52,0,0,0-.84-.21,2.47,2.47,0,0,0-2.18,2.59c0,.53.15,1.23.95,1.23a2.18,2.18,0,0,0,1.74-1.89Z" transform="translate(-7.34 -3.44)"/><path class="cls-65" d="M517.85,123.41a9.36,9.36,0,0,1,.11-1.28h0c-.51,1-1.14,1.38-1.81,1.38a1.23,1.23,0,0,1-1.2-1.38,3.08,3.08,0,0,1,2.92-3.14,4.13,4.13,0,0,1,1,.12l-.43,2.25a9.94,9.94,0,0,0-.19,2Zm.55-4a1.84,1.84,0,0,0-.63-.08,2.64,2.64,0,0,0-2.42,2.72c0,.52.16,1.1.88,1.1s1.65-1,1.89-2.25Z" transform="translate(-7.34 -3.44)"/><path class="cls-65" d="M519.48,123.41l.56-2.92c.09-.51.16-1,.22-1.4h.37c0,.3-.09.61-.15,1h0A1.55,1.55,0,0,1,521.8,119l.2,0-.09.41a.47.47,0,0,0-.19,0c-.54,0-1.24.81-1.44,1.91l-.39,2.1Z" transform="translate(-7.34 -3.44)"/><path class="cls-65" d="M522.77,119.09l.53,2.6c.11.53.17.85.22,1.21h0c.13-.29.27-.61.51-1.09l1.31-2.72h.43l-1.67,3.39a8,8,0,0,1-1.38,2.15,2.64,2.64,0,0,1-1.18.76l-.12-.35a2.7,2.7,0,0,0,.83-.47,3.76,3.76,0,0,0,.92-1.15.22.22,0,0,0,0-.19l-.88-4.14Z" transform="translate(-7.34 -3.44)"/><path class="cls-65" d="M474.23,134a4,4,0,0,1-1.55.31,2.31,2.31,0,0,1-2-.82,2.66,2.66,0,0,1-.52-1.7,3.85,3.85,0,0,1,1.15-2.75,3.48,3.48,0,0,1,2.38-.92,2.55,2.55,0,0,1,1.33.29l-.16.34a2.55,2.55,0,0,0-1.27-.27,2.91,2.91,0,0,0-2.08.89,3.51,3.51,0,0,0-.93,2.38,2,2,0,0,0,2.17,2.2,2.84,2.84,0,0,0,1.08-.21l.4-2.14h-1.4l.06-.35h1.81Z" transform="translate(-7.34 -3.44)"/><path class="cls-65" d="M478.27,134a2.48,2.48,0,0,1-1.31.34,1.49,1.49,0,0,1-1.5-1.69c0-1.28,1-2.82,2.26-2.82a1,1,0,0,1,1.12,1c0,1.16-1.41,1.39-2.93,1.37a2.6,2.6,0,0,0,.06,1.06,1,1,0,0,0,1,.74,2.12,2.12,0,0,0,1.13-.31Zm-.62-3.82c-.79,0-1.43.82-1.68,1.66,1.28,0,2.45-.15,2.45-1C478.42,130.36,478.09,130.14,477.65,130.14Z" transform="translate(-7.34 -3.44)"/><path class="cls-65" d="M479.28,134.21l.59-3.16c.09-.44.14-.82.19-1.16h.38l-.14.92h0a2,2,0,0,1,1.67-1,1.06,1.06,0,0,1,1.08,1.2,4.72,4.72,0,0,1-.08.69l-.48,2.53h-.41l.49-2.57a3.68,3.68,0,0,0,.06-.59c0-.52-.2-.9-.83-.9a2.13,2.13,0,0,0-1.73,1.84l-.41,2.22Z" transform="translate(-7.34 -3.44)"/><path class="cls-65" d="M487.81,131.6c0,1.18-.86,2.71-2.29,2.71a1.62,1.62,0,0,1-1.6-1.77,2.59,2.59,0,0,1,2.29-2.75A1.61,1.61,0,0,1,487.81,131.6Zm-3.47.91a1.3,1.3,0,0,0,1.24,1.45c1,0,1.81-1.2,1.81-2.37a1.3,1.3,0,0,0-1.21-1.46C485.12,130.13,484.34,131.32,484.34,132.51Z" transform="translate(-7.34 -3.44)"/><path class="cls-65" d="M488.42,134.21l.59-3.16c.09-.44.15-.82.19-1.16h.38l-.13.87h0a1.91,1.91,0,0,1,1.56-1c.64,0,1,.4,1,1.05a1.88,1.88,0,0,1,1.65-1.05,1,1,0,0,1,1,1.11,3.91,3.91,0,0,1-.06.73l-.5,2.58h-.4l.49-2.58a3.44,3.44,0,0,0,.06-.58c0-.56-.2-.9-.79-.9a1.9,1.9,0,0,0-1.58,1.68l-.44,2.38h-.41l.51-2.64a2.8,2.8,0,0,0,.06-.55c0-.4-.11-.87-.8-.87a2.07,2.07,0,0,0-1.59,1.74l-.43,2.32Z" transform="translate(-7.34 -3.44)"/><path class="cls-65" d="M495.57,134.21l.82-4.32h.41l-.83,4.32Zm.93-5.57a.36.36,0,0,1,.33-.36.33.33,0,0,1,.33.36.36.36,0,0,1-.35.36A.32.32,0,0,1,496.5,128.64Z" transform="translate(-7.34 -3.44)"/><path class="cls-65" d="M500.26,134a2.74,2.74,0,0,1-1.27.29,1.47,1.47,0,0,1-1.57-1.6,2.78,2.78,0,0,1,2.55-2.91,1.8,1.8,0,0,1,.91.22l-.15.34a1.88,1.88,0,0,0-.83-.19,2.34,2.34,0,0,0-2.06,2.47c0,.77.36,1.32,1.22,1.32a2.48,2.48,0,0,0,1.09-.28Z" transform="translate(-7.34 -3.44)"/><path class="cls-65" d="M506.76,134a3.88,3.88,0,0,1-1.55.31,2.23,2.23,0,0,1-2.34-2.49A4,4,0,0,1,504,129a3.29,3.29,0,0,1,2.32-.93,2.12,2.12,0,0,1,1.3.32l-.17.32a2.41,2.41,0,0,0-1.24-.28,2.85,2.85,0,0,0-1.95.81,3.6,3.6,0,0,0-1,2.53c0,1.15.46,2.21,2,2.21a3.08,3.08,0,0,0,1.38-.3Z" transform="translate(-7.34 -3.44)"/><path class="cls-65" d="M511.44,131.6c0,1.18-.86,2.71-2.28,2.71a1.62,1.62,0,0,1-1.61-1.77,2.6,2.6,0,0,1,2.29-2.75A1.61,1.61,0,0,1,511.44,131.6Zm-3.46.91a1.29,1.29,0,0,0,1.23,1.45c1,0,1.81-1.2,1.81-2.37a1.3,1.3,0,0,0-1.21-1.46C508.75,130.13,508,131.32,508,132.51Z" transform="translate(-7.34 -3.44)"/><path class="cls-65" d="M515.94,131.6c0,1.18-.86,2.71-2.28,2.71a1.62,1.62,0,0,1-1.61-1.77,2.6,2.6,0,0,1,2.29-2.75A1.61,1.61,0,0,1,515.94,131.6Zm-3.46.91a1.29,1.29,0,0,0,1.23,1.45c1,0,1.81-1.2,1.81-2.37a1.3,1.3,0,0,0-1.21-1.46C513.25,130.13,512.48,131.32,512.48,132.51Z" transform="translate(-7.34 -3.44)"/><path class="cls-65" d="M516.55,134.21l.56-2.92c.09-.51.16-1,.22-1.4h.37c-.05.3-.08.61-.15,1h0a1.55,1.55,0,0,1,1.29-1.07l.2,0-.09.41a.47.47,0,0,0-.19,0c-.54,0-1.24.81-1.43,1.91l-.4,2.1Z" transform="translate(-7.34 -3.44)"/><path class="cls-65" d="M523.37,127.82l-1,5.21a10.48,10.48,0,0,0-.17,1.18h-.37l.14-1h0a2,2,0,0,1-1.64,1.06c-.89,0-1.26-.76-1.26-1.54a2.88,2.88,0,0,1,2.64-3,2.11,2.11,0,0,1,.88.17l.39-2.14Zm-.88,2.53a1.52,1.52,0,0,0-.84-.21,2.47,2.47,0,0,0-2.19,2.59c0,.53.15,1.23,1,1.23a2.17,2.17,0,0,0,1.73-1.89Z" transform="translate(-7.34 -3.44)"/><path class="cls-65" d="M523.59,134.21l.83-4.32h.41l-.83,4.32Zm.94-5.57a.35.35,0,0,1,.33-.36.33.33,0,0,1,.32.36.35.35,0,0,1-.35.36A.32.32,0,0,1,524.53,128.64Z" transform="translate(-7.34 -3.44)"/><path class="cls-65" d="M525.45,134.21l.59-3.16c.09-.44.14-.82.19-1.16h.38l-.14.92h0a2,2,0,0,1,1.67-1,1.06,1.06,0,0,1,1.08,1.2,3.74,3.74,0,0,1-.09.69l-.47,2.53h-.41l.49-2.57a3.68,3.68,0,0,0,.06-.59c0-.52-.21-.9-.83-.9a2.13,2.13,0,0,0-1.73,1.84l-.41,2.22Z" transform="translate(-7.34 -3.44)"/><path class="cls-65" d="M533,134.21a8.24,8.24,0,0,1,.12-1.28h0c-.51,1-1.14,1.38-1.81,1.38a1.24,1.24,0,0,1-1.2-1.38,3.08,3.08,0,0,1,2.92-3.14,4.21,4.21,0,0,1,1,.12l-.43,2.25a9.28,9.28,0,0,0-.19,2.05Zm.55-4a1.58,1.58,0,0,0-.62-.08,2.63,2.63,0,0,0-2.42,2.72c0,.52.16,1.1.87,1.1s1.66-1,1.89-2.25Z" transform="translate(-7.34 -3.44)"/><path class="cls-65" d="M536.23,128.75l-.22,1.14h1.1l-.06.33h-1.11l-.47,2.5a4.34,4.34,0,0,0-.09.78.41.41,0,0,0,.43.46,1.15,1.15,0,0,0,.36-.05l0,.32a1.29,1.29,0,0,1-.47.07.72.72,0,0,1-.77-.78,3.52,3.52,0,0,1,.1-.82l.47-2.48h-.65l.06-.33h.67l.19-1Z" transform="translate(-7.34 -3.44)"/><path class="cls-65" d="M540,134a2.48,2.48,0,0,1-1.31.34c-1.1,0-1.5-.83-1.5-1.69,0-1.28,1-2.82,2.26-2.82a1,1,0,0,1,1.11,1c0,1.16-1.4,1.39-2.92,1.37a2.29,2.29,0,0,0,.06,1.06,1,1,0,0,0,1,.74,2.15,2.15,0,0,0,1.13-.31Zm-.62-3.82c-.79,0-1.44.82-1.68,1.66,1.28,0,2.45-.15,2.45-1C540.17,130.36,539.84,130.14,539.4,130.14Z" transform="translate(-7.34 -3.44)"/><text class="cls-46" transform="translate(456.46 196.85)">3’ <tspan class="cls-60" x="7.18" y="0">S</tspan><tspan x="11.23" y="0">egment Bounda</tspan><tspan class="cls-61" x="66.48" y="0">r</tspan><tspan class="cls-62" x="69.24" y="0">y</tspan><tspan x="7.1" y="10.8">(E</tspan><tspan class="cls-63" x="13.45" y="10.8">x</tspan><tspan x="16.96" y="10.8">on Numbe</tspan><tspan class="cls-64" x="53.25" y="10.8">r</tspan><tspan x="56" y="10.8">: 7)</tspan></text><text class="cls-46" transform="translate(495.54 183.71)">+ <tspan class="cls-69" x="6.98" y="0">O</tspan><tspan x="13.04" y="0">ffset</tspan></text><text class="cls-46" transform="translate(463.34 183.81)">- <tspan class="cls-70" x="4.3" y="0">O</tspan><tspan class="cls-71" x="10.36" y="0">ffset</tspan></text><text class="cls-16" transform="translate(220.42 144.99)">Chimeric <tspan class="cls-31" x="33.58" y="0">T</tspan><tspan class="cls-32" x="37.39" y="0">r</tspan><tspan x="40.11" y="0">anscript</tspan></text><polygon class="cls-72" points="274.8 102.56 236.12 102.56 236.12 100.81 236.12 99.07 274.8 99.07 274.8 102.56"/><rect class="cls-72" x="274.8" y="96.54" width="34.55" height="9.48"/><polygon class="cls-72" points="280.34 166.99 241.66 166.99 241.66 165.24 241.66 163.49 280.34 163.49 280.34 166.99"/><rect class="cls-72" x="280.34" y="160.96" width="34.55" height="9.48"/><line class="cls-73" x1="223.64" y1="100.82" x2="236.12" y2="100.82"/><line class="cls-73" x1="309.35" y1="101.28" x2="326.51" y2="101.28"/><line class="cls-74" x1="396.94" y1="101.28" x2="418.71" y2="101.28"/><line class="cls-74" x1="436.22" y1="101.28" x2="451.95" y2="101.28"/><polyline class="cls-75" points="324.79 94.28 327.06 96.55 324.68 98.93 327.02 101.27 324.62 103.67 327.04 106.08 324.85 108.27"/><polyline class="cls-75" points="395.02 94.28 397.29 96.55 394.91 98.93 397.25 101.27 394.86 103.67 397.27 106.08 395.09 108.27"/><line class="cls-76" x1="435.6" y1="160.96" x2="435.6" y2="170.44"/><path class="cls-77" d="M414.42,191" transform="translate(-7.34 -3.44)"/><path class="cls-76" d="M414.42,173.88" transform="translate(-7.34 -3.44)"/><polyline class="cls-77" points="493.17 167.45 493.17 187.52 481.77 187.52"/><polygon class="cls-78" points="478.6 187.52 483.07 185.69 482.01 187.52 483.07 189.35 478.6 187.52"/><line class="cls-77" x1="504.51" y1="187.52" x2="493.11" y2="187.52"/><polygon class="cls-78" points="507.69 187.52 503.21 185.69 504.27 187.52 503.21 189.35 507.69 187.52"/><path class="cls-77" d="M500.51,191" transform="translate(-7.34 -3.44)"/><text class="cls-46" transform="translate(278.18 196.85)">3’ <tspan class="cls-60" x="7.18" y="0">S</tspan><tspan x="11.23" y="0">egment Bounda</tspan><tspan class="cls-61" x="66.48" y="0">r</tspan><tspan class="cls-62" x="69.24" y="0">y</tspan><tspan x="7.1" y="10.8">(E</tspan><tspan class="cls-63" x="13.45" y="10.8">x</tspan><tspan x="16.96" y="10.8">on Numbe</tspan><tspan class="cls-64" x="53.25" y="10.8">r</tspan><tspan x="56" y="10.8">: 1)</tspan></text><text class="cls-46" transform="translate(317.05 183.71)">+ <tspan class="cls-69" x="6.98" y="0">O</tspan><tspan x="13.04" y="0">ffset</tspan></text><text class="cls-46" transform="translate(284.86 183.81)">- <tspan class="cls-70" x="4.3" y="0">O</tspan><tspan class="cls-71" x="10.36" y="0">ffset</tspan></text><polyline class="cls-77" points="314.69 167.45 314.69 187.52 303.29 187.52"/><polygon class="cls-78" points="300.11 187.52 304.59 185.69 303.53 187.52 304.59 189.35 300.11 187.52"/><line class="cls-77" x1="326.02" y1="187.52" x2="314.63" y2="187.52"/><polygon class="cls-78" points="329.2 187.52 324.73 185.69 325.79 187.52 324.73 189.35 329.2 187.52"/><path class="cls-77" d="M322,191" transform="translate(-7.34 -3.44)"/><text class="cls-46" transform="translate(409.47 183.71)">+ <tspan class="cls-69" x="6.98" y="0">O</tspan><tspan x="13.04" y="0">ffset</tspan></text><text class="cls-46" transform="translate(377.28 183.81)">- <tspan class="cls-70" x="4.3" y="0">O</tspan><tspan class="cls-71" x="10.36" y="0">ffset</tspan></text><polyline class="cls-77" points="407.1 167.45 407.1 187.52 395.71 187.52"/><polygon class="cls-78" points="392.53 187.52 397.01 185.69 395.95 187.52 397.01 189.35 392.53 187.52"/><line class="cls-77" x1="418.44" y1="187.52" x2="407.05" y2="187.52"/><polygon class="cls-78" points="421.62 187.52 417.14 185.69 418.2 187.52 417.14 189.35 421.62 187.52"/><path class="cls-77" d="M414.44,191" transform="translate(-7.34 -3.44)"/><line class="cls-77" x1="407.7" y1="101.28" x2="407.7" y2="112.87"/><line class="cls-77" x1="503.32" y1="101.28" x2="503.32" y2="112.87"/><path class="cls-65" d="M298.89,122.83a1.86,1.86,0,0,0,1,.32,1.56,1.56,0,0,0,1.64-1.57,1.17,1.17,0,0,0-1.29-1.19h-.33l.06-.34h.35c.53,0,1.55-.43,1.55-1.36a.79.79,0,0,0-.9-.87,1.71,1.71,0,0,0-1,.35l-.15-.32a2.29,2.29,0,0,1,1.25-.39,1.14,1.14,0,0,1,1.27,1.18,1.69,1.69,0,0,1-1.28,1.56v0a1.32,1.32,0,0,1,.95,1.35,2,2,0,0,1-2.11,1.94,1.85,1.85,0,0,1-1.17-.36Z" transform="translate(-7.34 -3.44)"/><path class="cls-65" d="M304.63,117.24a13,13,0,0,1-1,2l-.31,0a14.54,14.54,0,0,0,.83-1.91Z" transform="translate(-7.34 -3.44)"/><path class="cls-65" d="M307.21,117.41a6.16,6.16,0,0,1,1.12-.11,1.72,1.72,0,0,1,1.34.47,1.27,1.27,0,0,1,.26.85,1.72,1.72,0,0,1-1.36,1.56v0a1.35,1.35,0,0,1,1,1.36,1.83,1.83,0,0,1-.67,1.39,2.73,2.73,0,0,1-1.76.49,5.68,5.68,0,0,1-1.09-.07Zm-.66,5.64a5.07,5.07,0,0,0,.68,0c1,0,1.94-.41,1.94-1.56a1.22,1.22,0,0,0-1.38-1.18h-.74Zm.57-3h.63c1,0,1.76-.54,1.76-1.41,0-.67-.5-1-1.26-1a2.85,2.85,0,0,0-.69.06Z" transform="translate(-7.34 -3.44)"/><path class="cls-65" d="M314.27,120.8c0,1.18-.86,2.71-2.29,2.71a1.62,1.62,0,0,1-1.6-1.77,2.59,2.59,0,0,1,2.29-2.75A1.61,1.61,0,0,1,314.27,120.8Zm-3.47.91a1.29,1.29,0,0,0,1.24,1.45c1,0,1.81-1.2,1.81-2.37a1.3,1.3,0,0,0-1.21-1.46C311.58,119.33,310.8,120.52,310.8,121.71Z" transform="translate(-7.34 -3.44)"/><path class="cls-65" d="M318.8,119.09l-.61,3.16c-.08.43-.13.82-.16,1.16h-.39l.14-.89h0a2,2,0,0,1-1.55,1c-.47,0-1.16-.19-1.16-1.28a4.06,4.06,0,0,1,.08-.69l.47-2.45h.4l-.46,2.46a3,3,0,0,0-.08.68c0,.55.22.91.85.91a2,2,0,0,0,1.64-1.7l.44-2.35Z" transform="translate(-7.34 -3.44)"/><path class="cls-65" d="M319.43,123.41l.6-3.16c.09-.44.14-.82.19-1.16h.37l-.13.92h0a2,2,0,0,1,1.66-1,1.06,1.06,0,0,1,1.08,1.2,3.57,3.57,0,0,1-.08.69l-.47,2.53h-.41l.49-2.57a5.35,5.35,0,0,0,.06-.59c0-.52-.21-.9-.83-.9a2.15,2.15,0,0,0-1.74,1.84l-.4,2.22Z" transform="translate(-7.34 -3.44)"/><path class="cls-65" d="M328.38,117l-1,5.21c-.07.39-.14.82-.17,1.18h-.37l.15-1h0a2,2,0,0,1-1.65,1.06c-.89,0-1.26-.76-1.26-1.54a2.88,2.88,0,0,1,2.65-3,2.1,2.1,0,0,1,.87.17L328,117Zm-.88,2.53a1.52,1.52,0,0,0-.84-.21,2.48,2.48,0,0,0-2.19,2.59c0,.53.16,1.23,1,1.23a2.18,2.18,0,0,0,1.74-1.89Z" transform="translate(-7.34 -3.44)"/><path class="cls-65" d="M331.49,123.41a11.85,11.85,0,0,1,.12-1.28h0a2,2,0,0,1-1.81,1.38,1.23,1.23,0,0,1-1.19-1.38A3.08,3.08,0,0,1,331.5,119a4.21,4.21,0,0,1,1,.12l-.43,2.25a9.94,9.94,0,0,0-.19,2Zm.55-4a1.72,1.72,0,0,0-.62-.08,2.64,2.64,0,0,0-2.42,2.72c0,.52.16,1.1.87,1.1s1.66-1,1.89-2.25Z" transform="translate(-7.34 -3.44)"/><path class="cls-65" d="M333.13,123.41l.56-2.92c.09-.51.16-1,.22-1.4h.36c0,.3-.08.61-.14,1h0a1.55,1.55,0,0,1,1.29-1.07l.19,0-.08.41a.53.53,0,0,0-.2,0c-.54,0-1.23.81-1.43,1.91l-.39,2.1Z" transform="translate(-7.34 -3.44)"/><path class="cls-65" d="M336.42,119.09l.53,2.6c.11.53.17.85.22,1.21h0c.13-.29.27-.61.5-1.09l1.32-2.72h.43l-1.67,3.39a8,8,0,0,1-1.38,2.15,2.69,2.69,0,0,1-1.18.76l-.12-.35a2.7,2.7,0,0,0,.83-.47,3.76,3.76,0,0,0,.92-1.15.33.33,0,0,0,0-.19l-.88-4.14Z" transform="translate(-7.34 -3.44)"/><path class="cls-65" d="M287.88,134a4,4,0,0,1-1.55.31,2.31,2.31,0,0,1-2-.82,2.61,2.61,0,0,1-.53-1.7A3.86,3.86,0,0,1,285,129a3.46,3.46,0,0,1,2.38-.92,2.55,2.55,0,0,1,1.33.29l-.16.34a2.55,2.55,0,0,0-1.27-.27,3,3,0,0,0-2.09.89,3.55,3.55,0,0,0-.92,2.38,2,2,0,0,0,2.17,2.2,2.84,2.84,0,0,0,1.08-.21l.4-2.14h-1.4l.06-.35h1.81Z" transform="translate(-7.34 -3.44)"/><path class="cls-65" d="M291.92,134a2.48,2.48,0,0,1-1.31.34c-1.1,0-1.5-.83-1.5-1.69,0-1.28,1-2.82,2.26-2.82a1,1,0,0,1,1.11,1c0,1.16-1.4,1.39-2.92,1.37a2.29,2.29,0,0,0,.06,1.06,1,1,0,0,0,1.05.74,2.15,2.15,0,0,0,1.13-.31Zm-.62-3.82c-.79,0-1.43.82-1.68,1.66,1.28,0,2.45-.15,2.45-1C292.07,130.36,291.74,130.14,291.3,130.14Z" transform="translate(-7.34 -3.44)"/><path class="cls-65" d="M292.92,134.21l.6-3.16c.09-.44.14-.82.19-1.16h.38l-.14.92h0a2,2,0,0,1,1.66-1,1.06,1.06,0,0,1,1.08,1.2,3.66,3.66,0,0,1-.08.69l-.47,2.53h-.41l.49-2.57a5.35,5.35,0,0,0,.06-.59c0-.52-.21-.9-.83-.9a2.15,2.15,0,0,0-1.74,1.84l-.4,2.22Z" transform="translate(-7.34 -3.44)"/><path class="cls-65" d="M301.46,131.6c0,1.18-.87,2.71-2.29,2.71a1.62,1.62,0,0,1-1.6-1.77,2.59,2.59,0,0,1,2.29-2.75A1.61,1.61,0,0,1,301.46,131.6Zm-3.47.91a1.3,1.3,0,0,0,1.23,1.45c1,0,1.81-1.2,1.81-2.37a1.3,1.3,0,0,0-1.2-1.46C298.77,130.13,298,131.32,298,132.51Z" transform="translate(-7.34 -3.44)"/><path class="cls-65" d="M302.07,134.21l.59-3.16c.09-.44.15-.82.19-1.16h.38l-.14.87h0a1.91,1.91,0,0,1,1.56-1c.64,0,1,.4,1,1.05a1.88,1.88,0,0,1,1.65-1.05,1,1,0,0,1,1,1.11,5,5,0,0,1-.06.73l-.5,2.58h-.4l.48-2.58a2.63,2.63,0,0,0,.07-.58c0-.56-.2-.9-.79-.9a1.9,1.9,0,0,0-1.58,1.68l-.44,2.38h-.41l.51-2.64a2.8,2.8,0,0,0,.06-.55c0-.4-.11-.87-.8-.87a2.07,2.07,0,0,0-1.59,1.74l-.44,2.32Z" transform="translate(-7.34 -3.44)"/><path class="cls-65" d="M309.21,134.21l.83-4.32h.41l-.83,4.32Zm.94-5.57a.35.35,0,0,1,.33-.36.33.33,0,0,1,.33.36.36.36,0,0,1-.35.36A.32.32,0,0,1,310.15,128.64Z" transform="translate(-7.34 -3.44)"/><path class="cls-65" d="M313.9,134a2.74,2.74,0,0,1-1.27.29,1.47,1.47,0,0,1-1.56-1.6,2.78,2.78,0,0,1,2.55-2.91,1.8,1.8,0,0,1,.91.22l-.15.34a1.88,1.88,0,0,0-.83-.19,2.34,2.34,0,0,0-2.06,2.47c0,.77.36,1.32,1.22,1.32a2.48,2.48,0,0,0,1.09-.28Z" transform="translate(-7.34 -3.44)"/><path class="cls-65" d="M320.41,134a3.9,3.9,0,0,1-1.56.31,2.23,2.23,0,0,1-2.33-2.49,4,4,0,0,1,1.15-2.84A3.31,3.31,0,0,1,320,128a2.12,2.12,0,0,1,1.3.32l-.17.32a2.41,2.41,0,0,0-1.24-.28,2.85,2.85,0,0,0-1.95.81,3.6,3.6,0,0,0-1,2.53c0,1.15.46,2.21,2,2.21a3.09,3.09,0,0,0,1.39-.3Z" transform="translate(-7.34 -3.44)"/><path class="cls-65" d="M325.09,131.6c0,1.18-.86,2.71-2.29,2.71a1.62,1.62,0,0,1-1.6-1.77,2.6,2.6,0,0,1,2.29-2.75A1.61,1.61,0,0,1,325.09,131.6Zm-3.47.91a1.3,1.3,0,0,0,1.24,1.45c1,0,1.81-1.2,1.81-2.37a1.3,1.3,0,0,0-1.21-1.46C322.4,130.13,321.62,131.32,321.62,132.51Z" transform="translate(-7.34 -3.44)"/><path class="cls-65" d="M329.59,131.6c0,1.18-.86,2.71-2.29,2.71a1.62,1.62,0,0,1-1.6-1.77,2.6,2.6,0,0,1,2.29-2.75A1.61,1.61,0,0,1,329.59,131.6Zm-3.47.91a1.3,1.3,0,0,0,1.24,1.45c1,0,1.81-1.2,1.81-2.37a1.3,1.3,0,0,0-1.21-1.46C326.9,130.13,326.12,131.32,326.12,132.51Z" transform="translate(-7.34 -3.44)"/><path class="cls-65" d="M330.2,134.21l.56-2.92c.09-.51.16-1,.22-1.4h.37c-.05.3-.09.61-.15,1h0a1.55,1.55,0,0,1,1.29-1.07l.19,0-.08.41a.5.5,0,0,0-.2,0c-.54,0-1.23.81-1.43,1.91l-.39,2.1Z" transform="translate(-7.34 -3.44)"/><path class="cls-65" d="M337,127.82,336,133a10.48,10.48,0,0,0-.17,1.18h-.37l.14-1h0a2,2,0,0,1-1.64,1.06c-.9,0-1.26-.76-1.26-1.54a2.87,2.87,0,0,1,2.64-3,2.06,2.06,0,0,1,.87.17l.4-2.14Zm-.89,2.53a1.5,1.5,0,0,0-.83-.21,2.47,2.47,0,0,0-2.19,2.59c0,.53.15,1.23.95,1.23a2.17,2.17,0,0,0,1.74-1.89Z" transform="translate(-7.34 -3.44)"/><path class="cls-65" d="M337.24,134.21l.83-4.32h.4l-.83,4.32Zm.94-5.57a.35.35,0,0,1,.33-.36.33.33,0,0,1,.32.36.35.35,0,0,1-.35.36A.31.31,0,0,1,338.18,128.64Z" transform="translate(-7.34 -3.44)"/><path class="cls-65" d="M339.09,134.21l.6-3.16c.09-.44.14-.82.19-1.16h.37l-.13.92h0a2,2,0,0,1,1.66-1,1.06,1.06,0,0,1,1.08,1.2,3.66,3.66,0,0,1-.08.69l-.47,2.53h-.41l.49-2.57a5.35,5.35,0,0,0,.06-.59c0-.52-.21-.9-.83-.9A2.15,2.15,0,0,0,339.9,132l-.4,2.22Z" transform="translate(-7.34 -3.44)"/><path class="cls-65" d="M346.63,134.21a8.24,8.24,0,0,1,.12-1.28h0c-.51,1-1.14,1.38-1.81,1.38a1.24,1.24,0,0,1-1.2-1.38,3.08,3.08,0,0,1,2.92-3.14,4.21,4.21,0,0,1,1,.12l-.44,2.25a10.71,10.71,0,0,0-.19,2.05Zm.55-4a1.58,1.58,0,0,0-.62-.08,2.64,2.64,0,0,0-2.43,2.72c0,.52.17,1.1.88,1.1s1.65-1,1.89-2.25Z" transform="translate(-7.34 -3.44)"/><path class="cls-65" d="M349.88,128.75l-.22,1.14h1.1l-.06.33h-1.11l-.47,2.5a4.34,4.34,0,0,0-.09.78.4.4,0,0,0,.43.46,1.08,1.08,0,0,0,.35-.05l0,.32a1.29,1.29,0,0,1-.47.07.71.71,0,0,1-.77-.78,3.52,3.52,0,0,1,.1-.82l.47-2.48h-.65l.06-.33h.66l.19-1Z" transform="translate(-7.34 -3.44)"/><path class="cls-65" d="M353.67,134a2.48,2.48,0,0,1-1.31.34c-1.1,0-1.5-.83-1.5-1.69,0-1.28,1-2.82,2.26-2.82a1,1,0,0,1,1.11,1c0,1.16-1.4,1.39-2.92,1.37a2.29,2.29,0,0,0,.06,1.06,1,1,0,0,0,1,.74,2.2,2.2,0,0,0,1.14-.31Zm-.63-3.82c-.78,0-1.43.82-1.67,1.66,1.28,0,2.45-.15,2.45-1C353.82,130.36,353.49,130.14,353,130.14Z" transform="translate(-7.34 -3.44)"/><text class="cls-46" transform="translate(315.3 83.01)"><tspan class="cls-79">R</tspan><tspan class="cls-71" x="4.4" y="0">ear</tspan><tspan class="cls-80" x="15.32" y="0">r</tspan><tspan x="17.72" y="0">angement b</tspan><tspan class="cls-81" x="59.6" y="0">r</tspan><tspan x="62.11" y="0">ea</tspan><tspan class="cls-47" x="70.44" y="0">k</tspan><tspan x="74.21" y="0">points</tspan></text><line class="cls-77" x1="309.35" y1="101.28" x2="309.35" y2="112.87"/><text class="cls-46" transform="translate(265.68 94.29)">E<tspan class="cls-82" x="3.97" y="0">x</tspan><tspan x="7.47" y="0">on1</tspan></text><text class="cls-46" transform="translate(410.76 94.29)">E<tspan class="cls-82" x="3.97" y="0">x</tspan><tspan x="7.47" y="0">on 6</tspan></text><text class="cls-46" transform="translate(466.21 94.29)">E<tspan class="cls-82" x="3.97" y="0">x</tspan><tspan x="7.47" y="0">on 7</tspan></text><path class="cls-83" d="M309.31,44.48l-44.5-.26a3.06,3.06,0,0,0-3.08,3.06V61.14a3.06,3.06,0,0,1-3.08,3.06L218.42,64a3.06,3.06,0,0,1-3-3.06h0a3.05,3.05,0,0,0-3.05-3.06l-10.48,0" transform="translate(-7.34 -3.44)"/><polygon class="cls-65" points="190.97 54.41 195.95 52.38 194.77 54.41 195.94 56.45 190.97 54.41"/><path class="cls-83" d="M201.84,69.46h10.7a2.89,2.89,0,0,0,2.89-2.89h0A2.58,2.58,0,0,1,218,64h.39" transform="translate(-7.34 -3.44)"/><polygon class="cls-65" points="190.97 66.02 195.95 68.06 194.77 66.02 195.95 63.99 190.97 66.02"/><text class="cls-84" transform="translate(57.19 195.81)"><tspan class="cls-85">L</tspan><tspan x="4.58" y="0">egend</tspan></text><line class="cls-86" x1="342.75" y1="86.83" x2="333.88" y2="93.43"/><polygon class="cls-87" points="331.05 95.53 333.82 90.94 334.09 93.27 336.25 94.2 331.05 95.53"/><line class="cls-86" x1="378.61" y1="86.83" x2="387.48" y2="93.43"/><polygon class="cls-87" points="390.31 95.53 385.11 94.2 387.27 93.27 387.54 90.94 390.31 95.53"/><text class="cls-88" transform="translate(335.35 235.71)">F<tspan class="cls-71" x="3.65" y="0">usion junctions</tspan></text><line class="cls-86" x1="342.75" y1="225.57" x2="333.88" y2="218.97"/><polygon class="cls-87" points="331.05 216.87 336.25 218.2 334.09 219.13 333.82 221.47 331.05 216.87"/><line class="cls-86" x1="378.61" y1="225.57" x2="387.48" y2="218.97"/><polygon class="cls-87" points="390.31 216.87 387.54 221.47 387.27 219.13 385.11 218.2 390.31 216.87"/><rect class="cls-23" x="67.64" y="204.96" width="9.81" height="8.5"/><text class="cls-46" transform="translate(85.84 223.35)">Specific <tspan class="cls-66" x="27.38" y="0">t</tspan><tspan x="29.98" y="0">o </tspan><tspan class="cls-89" x="36.1" y="0">C</tspan><tspan x="40.88" y="0">a</tspan><tspan class="cls-90" x="45.4" y="0">t</tspan><tspan class="cls-71" x="48.01" y="0">egori</tspan><tspan class="cls-91" x="65.28" y="0">c</tspan><tspan x="68.88" y="0">al </tspan><tspan class="cls-68" x="76.88" y="0">F</tspan><tspan x="80.52" y="0">usions</tspan></text><rect class="cls-26" x="67.64" y="216.46" width="9.81" height="8.5"/></svg>